<?xml version="1.0" encoding="UTF-8"?>
<!DOCTYPE svg PUBLIC "-//W3C//DTD SVG 1.1//EN" "http://www.w3.org/Graphics/SVG/1.1/DTD/svg11.dtd">
<svg xmlns="http://www.w3.org/2000/svg" version="1.1" width="357px" height="350px" style="shape-rendering:geometricPrecision; text-rendering:geometricPrecision; image-rendering:optimizeQuality; fill-rule:evenodd; clip-rule:evenodd" xmlns:xlink="http://www.w3.org/1999/xlink">
<g><path style="opacity:0.995" fill="#293253" d="M 216.5,349.5 C 191.833,349.5 167.167,349.5 142.5,349.5C 113.966,342.9 88.299,330.4 65.5,312C 54.6667,301.167 43.8333,290.333 33,279.5C -3.07316,223.724 -8.4065,165.057 17,103.5C 50.3124,37.4131 104.146,3.07979 178.5,0.5C 238.093,1.5461 285.926,25.5461 322,72.5C 360.757,130.458 366.091,191.458 338,255.5C 311.827,305.189 271.327,336.523 216.5,349.5 Z"/></g>
<g><path style="opacity:1" fill="#4d69b6" d="M 158.5,7.5 C 229.469,2.90359 284.636,29.9036 324,88.5C 352.208,137.881 356.208,189.214 336,242.5C 327.395,263.388 315.061,281.722 299,297.5C 297.322,296.534 296.655,295.201 297,293.5C 340,245.83 353.333,190.83 337,128.5C 316.065,67.5654 274.232,29.732 211.5,15C 144.135,4.11949 88.9683,24.9528 46,77.5C 5.16566,136.992 1.83233,198.659 36,262.5C 43.2086,273.878 51.3752,284.545 60.5,294.5C 59.8551,295.646 59.0217,296.646 58,297.5C 20.7189,258.787 4.38557,212.454 9,158.5C 19.2271,92.6177 54.7271,46.1177 115.5,19C 129.581,13.7318 143.915,9.89845 158.5,7.5 Z"/></g>
<g><path style="opacity:1" fill="#708ad1" d="M 161.5,20.5 C 164.187,20.3359 166.854,20.5026 169.5,21C 170.833,22.3333 170.833,23.6667 169.5,25C 166.518,25.498 163.518,25.6646 160.5,25.5C 160.366,23.7085 160.699,22.0418 161.5,20.5 Z"/></g>
<g><path style="opacity:1" fill="#708ad1" d="M 187.5,20.5 C 190.187,20.3359 192.854,20.5026 195.5,21C 196.38,22.3561 196.714,23.8561 196.5,25.5C 193.482,25.6646 190.482,25.498 187.5,25C 186.272,23.5098 186.272,22.0098 187.5,20.5 Z"/></g>
<g><path style="opacity:1" fill="#6c86cc" d="M 138.5,24.5 C 140.199,24.3398 141.866,24.5065 143.5,25C 144.833,26.3333 144.833,27.6667 143.5,29C 141.278,29.6946 139.111,30.5279 137,31.5C 134.681,30.5915 134.014,28.9248 135,26.5C 136.302,25.9152 137.469,25.2485 138.5,24.5 Z"/></g>
<g><path style="opacity:1" fill="#6c85cb" d="M 213.5,24.5 C 216.271,24.4207 218.937,24.9207 221.5,26C 223.09,28.4798 222.59,30.3132 220,31.5C 217.755,30.8629 215.588,30.0296 213.5,29C 212.272,27.5098 212.272,26.0098 213.5,24.5 Z"/></g>
<g><path style="opacity:1" fill="#6d86cc" d="M 115.5,32.5 C 117.595,32.7598 118.928,33.9264 119.5,36C 117.063,38.7207 114.063,40.0541 110.5,40C 109.253,38.5064 109.253,37.0064 110.5,35.5C 112.396,34.7255 114.063,33.7255 115.5,32.5 Z"/></g>
<g><path style="opacity:1" fill="#6c85cb" d="M 238.5,32.5 C 241.354,32.9239 244.021,33.9239 246.5,35.5C 248.002,37.8326 247.502,39.4993 245,40.5C 241.622,39.7403 239.122,37.907 237.5,35C 237.743,34.0979 238.077,33.2646 238.5,32.5 Z"/></g>
<g><path style="opacity:1" fill="#6b85ca" d="M 261.5,45.5 C 264.226,45.2639 266.559,46.0972 268.5,48C 271.372,50.5321 271.039,52.3655 267.5,53.5C 264.385,52.6152 262.052,50.7819 260.5,48C 260.743,47.0979 261.077,46.2646 261.5,45.5 Z"/></g>
<g><path style="opacity:1" fill="#6c86cb" d="M 91.5,45.5 C 95.1378,44.7366 96.6378,46.0699 96,49.5C 94.2287,50.3041 92.7287,51.4708 91.5,53C 87.8886,54.2542 86.3886,53.0876 87,49.5C 88.6667,48.2668 90.1667,46.9335 91.5,45.5 Z"/></g>
<g><path style="opacity:1" fill="#f8fafb" d="M 149.5,54.5 C 154.535,53.5021 158.702,54.8354 162,58.5C 165.088,63.6748 167.921,69.0082 170.5,74.5C 175.833,75.8333 181.167,75.8333 186.5,74.5C 189.873,67.5818 193.873,61.0818 198.5,55C 213.576,55.7263 227.409,60.2263 240,68.5C 240.333,77.1667 240.667,85.8333 241,94.5C 245.411,97.9553 249.911,101.289 254.5,104.5C 259.844,100.826 265.51,97.6597 271.5,95C 273.971,94.2937 276.305,94.627 278.5,96C 287.482,105.311 295.315,115.478 302,126.5C 302.667,128.833 302.667,131.167 302,133.5C 297.667,139.833 293.333,146.167 289,152.5C 288.667,180.5 288.333,208.5 288,236.5C 284.834,250.99 277.001,262.157 264.5,270C 246.465,280.011 227.131,286.011 206.5,288C 177.094,291.435 148.094,289.435 119.5,282C 104.775,278.058 91.9417,270.891 81,260.5C 74.3111,253.12 70.3111,244.453 69,234.5C 68.6667,207.167 68.3333,179.833 68,152.5C 63.6667,146.167 59.3333,139.833 55,133.5C 54.3333,131.167 54.3333,128.833 55,126.5C 61.8375,115.005 70.0042,104.505 79.5,95C 81.5,94.3333 83.5,94.3333 85.5,95C 91.4897,97.6597 97.1564,100.826 102.5,104.5C 107.089,101.289 111.589,97.9553 116,94.5C 116.333,85.8333 116.667,77.1667 117,68.5C 120.081,65.7069 123.581,63.5403 127.5,62C 134.844,59.1739 142.177,56.6739 149.5,54.5 Z"/></g>
<g><path style="opacity:1" fill="#6d87cc" d="M 71.5,61.5 C 75.0714,61.4077 76.2381,63.0743 75,66.5C 73.2287,67.3041 71.7287,68.4708 70.5,70C 67.3333,70.8333 66.1667,69.6667 67,66.5C 68.7073,64.9625 70.2073,63.2959 71.5,61.5 Z"/></g>
<g><path style="opacity:1" fill="#478cbe" d="M 257.5,213.5 C 279.024,196.717 283.524,176.051 271,151.5C 255.936,132.692 237.103,127.525 214.5,136C 204.946,141.22 197.78,148.72 193,158.5C 183.597,150.994 173.931,150.661 164,157.5C 150.383,134.848 130.883,127.348 105.5,135C 80.6535,149.202 73.4868,169.702 84,196.5C 88.3586,204.024 94.1919,210.024 101.5,214.5C 93.2676,212.819 84.9343,212.153 76.5,212.5C 76.6666,191.497 76.5,170.497 76,149.5C 71.2794,143.779 66.946,137.779 63,131.5C 62.3333,130.167 62.3333,128.833 63,127.5C 68.8876,118.392 75.721,110.058 83.5,102.5C 89.6641,105.748 95.6641,109.248 101.5,113C 102.833,113.667 104.167,113.667 105.5,113C 111.554,107.557 118.054,102.724 125,98.5C 124.886,91.1752 124.386,83.8419 123.5,76.5C 123.833,75.1667 124.167,73.8333 124.5,72.5C 133.578,67.5847 143.245,64.2514 153.5,62.5C 155.088,63.0096 156.255,64.0096 157,65.5C 160.008,72.1901 163.508,78.5234 167.5,84.5C 175.17,83.4055 182.837,83.2388 190.5,84C 193.794,77.9116 196.961,71.7449 200,65.5C 200.745,64.0096 201.912,63.0096 203.5,62.5C 213.479,64.5482 222.979,67.8815 232,72.5C 232.312,81.1799 232.312,89.8466 232,98.5C 238.946,102.724 245.446,107.557 251.5,113C 252.833,113.667 254.167,113.667 255.5,113C 261.336,109.248 267.336,105.748 273.5,102.5C 275.817,104.316 277.984,106.316 280,108.5C 285.34,115.191 290.174,122.191 294.5,129.5C 290.757,136.646 286.257,143.312 281,149.5C 280.5,170.497 280.333,191.497 280.5,212.5C 272.825,212.68 265.158,213.014 257.5,213.5 Z"/></g>
<g><path style="opacity:1" fill="#6e88ce" d="M 282.5,61.5 C 285.614,62.0913 288.114,63.758 290,66.5C 290.833,69.6667 289.667,70.8333 286.5,70C 285.315,68.647 283.981,67.4803 282.5,66.5C 281.185,64.8014 281.185,63.1347 282.5,61.5 Z"/></g>
<g><path style="opacity:1" fill="#6f88cf" d="M 53.5,81.5 C 56.6802,81.1762 57.8469,82.5096 57,85.5C 55.9038,89.2718 53.4038,90.9385 49.5,90.5C 49.8843,87.1042 51.2177,84.1042 53.5,81.5 Z"/></g>
<g><path style="opacity:1" fill="#6e88ce" d="M 300.5,81.5 C 302.39,81.2965 303.89,81.9632 305,83.5C 306.903,85.441 307.736,87.7743 307.5,90.5C 304.112,90.8122 301.612,89.4789 300,86.5C 299.36,84.735 299.527,83.0683 300.5,81.5 Z"/></g>
<g><path style="opacity:1" fill="#6d86cc" d="M 39.5,103.5 C 43.0714,103.408 44.2381,105.074 43,108.5C 42.3907,112.283 40.224,113.95 36.5,113.5C 36.3502,109.805 37.3502,106.472 39.5,103.5 Z"/></g>
<g><path style="opacity:1" fill="#6d87cd" d="M 314.5,103.5 C 315.822,103.33 316.989,103.663 318,104.5C 319.908,107.206 320.741,110.206 320.5,113.5C 316.218,113.36 313.885,111.027 313.5,106.5C 313.685,105.416 314.018,104.416 314.5,103.5 Z"/></g>
<g><path style="opacity:1" fill="#6c86cc" d="M 29.5,128.5 C 31.6348,128.147 32.9681,128.98 33.5,131C 32.9097,133.196 32.2431,135.362 31.5,137.5C 28.855,139.094 27.1883,138.427 26.5,135.5C 26.9301,132.862 27.9301,130.529 29.5,128.5 Z"/></g>
<g><path style="opacity:1" fill="#6c86cb" d="M 324.5,128.5 C 328.56,128.91 330.56,131.244 330.5,135.5C 329.812,138.427 328.145,139.094 325.5,137.5C 323.986,134.509 323.653,131.509 324.5,128.5 Z"/></g>
<g><path style="opacity:1" fill="#2a3454" d="M 257.5,213.5 C 251.523,216.579 245.189,218.579 238.5,219.5C 214.309,220.468 198.475,209.468 191,186.5C 189.977,180.207 189.311,173.874 189,167.5C 181.744,159.59 174.411,159.59 167,167.5C 168.221,201.111 152.055,218.444 118.5,219.5C 112.401,219.226 106.734,217.559 101.5,214.5C 94.1919,210.024 88.3586,204.024 84,196.5C 73.4868,169.702 80.6535,149.202 105.5,135C 130.883,127.348 150.383,134.848 164,157.5C 173.931,150.661 183.597,150.994 193,158.5C 197.78,148.72 204.946,141.22 214.5,136C 237.103,127.525 255.936,132.692 271,151.5C 283.524,176.051 279.024,196.717 257.5,213.5 Z"/></g>
<g><path style="opacity:1" fill="#8ab4d5" d="M 115.5,140.5 C 143.509,139.347 157.676,152.68 158,180.5C 152.015,203.461 137.182,213.294 113.5,210C 94.8122,202.968 86.3122,189.468 88,169.5C 91.5733,154.429 100.74,144.762 115.5,140.5 Z"/></g>
<g><path style="opacity:1" fill="#8ab4d5" d="M 226.5,140.5 C 248.508,138.906 262.675,148.573 269,169.5C 270.636,184.937 265.136,197.103 252.5,206C 233.061,215.289 216.894,211.456 204,194.5C 193.069,168.705 200.569,150.705 226.5,140.5 Z"/></g>
<g><path style="opacity:1" fill="#fbfbfc" d="M 118.5,152.5 C 138.854,151.021 148.354,160.354 147,180.5C 141.31,195.095 130.81,200.261 115.5,196C 104.217,189.78 100.05,180.28 103,167.5C 106.106,160.225 111.272,155.225 118.5,152.5 Z"/></g>
<g><path style="opacity:1" fill="#fafbfc" d="M 225.5,152.5 C 248.193,151.686 257.359,162.353 253,184.5C 246.049,196.459 235.882,200.292 222.5,196C 212.004,189.834 207.837,180.667 210,168.5C 213.02,160.981 218.187,155.648 225.5,152.5 Z"/></g>
<g><path style="opacity:1" fill="#6f89d0" d="M 23.5,154.5 C 24.8333,154.5 26.1667,154.5 27.5,154.5C 27.6646,157.518 27.498,160.518 27,163.5C 25.6439,164.38 24.1439,164.714 22.5,164.5C 22.2529,161.061 22.5863,157.728 23.5,154.5 Z"/></g>
<g><path style="opacity:1" fill="#6f8ad1" d="M 329.5,154.5 C 331.144,154.286 332.644,154.62 334,155.5C 334.777,158.429 334.61,161.263 333.5,164C 332.216,164.684 331.049,164.517 330,163.5C 329.502,160.518 329.335,157.518 329.5,154.5 Z"/></g>
<g><path style="opacity:1" fill="#7a7f93" d="M 121.5,161.5 C 134.851,160.361 141.684,166.361 142,179.5C 137.458,190.855 129.625,194.022 118.5,189C 112.885,184.032 111.052,177.865 113,170.5C 115.362,166.973 118.196,163.973 121.5,161.5 Z"/></g>
<g><path style="opacity:1" fill="#7a7f93" d="M 224.5,161.5 C 241.849,161.329 247.682,169.329 242,185.5C 236.096,191.972 229.262,193.139 221.5,189C 211.474,178.678 212.474,169.512 224.5,161.5 Z"/></g>
<g><path style="opacity:1" fill="#4a8dbf" d="M 238.5,219.5 C 238.528,224.862 238.194,230.195 237.5,235.5C 226.565,237.064 215.565,237.73 204.5,237.5C 204.142,233.491 203.642,229.491 203,225.5C 202.837,223.324 202.004,221.491 200.5,220C 185.833,219.333 171.167,219.333 156.5,220C 154.996,221.491 154.163,223.324 154,225.5C 153.265,229.813 152.765,234.147 152.5,238.5C 141.523,237.543 130.523,236.876 119.5,236.5C 118.866,230.855 118.532,225.189 118.5,219.5C 152.055,218.444 168.221,201.111 167,167.5C 174.411,159.59 181.744,159.59 189,167.5C 189.311,173.874 189.977,180.207 191,186.5C 198.475,209.468 214.309,220.468 238.5,219.5 Z"/></g>
<g><path style="opacity:1" fill="#fdfdfe" d="M 175.5,165.5 C 179.639,164.704 182.805,166.037 185,169.5C 185.667,178.5 185.667,187.5 185,196.5C 180.667,200.5 176.333,200.5 172,196.5C 171.333,187.5 171.333,178.5 172,169.5C 173.102,168.051 174.269,166.718 175.5,165.5 Z"/></g>
<g><path style="opacity:1" fill="#718bd3" d="M 22.5,180.5 C 23.8221,180.33 24.9887,180.663 26,181.5C 26.498,184.482 26.6646,187.482 26.5,190.5C 24.8561,190.714 23.3561,190.38 22,189.5C 21.2642,186.408 21.4309,183.408 22.5,180.5 Z"/></g>
<g><path style="opacity:1" fill="#718bd4" d="M 331.5,180.5 C 334.893,180.375 336.226,182.042 335.5,185.5C 336.157,189.51 334.49,191.176 330.5,190.5C 330.253,187.061 330.586,183.728 331.5,180.5 Z"/></g>
<g><path style="opacity:1" fill="#6d86cc" d="M 25.5,206.5 C 28.3882,206.22 29.8882,207.553 30,210.5C 30.6667,212.5 30.6667,214.5 30,216.5C 27.0706,217.276 25.404,215.943 25,212.5C 24.3224,210.402 24.4891,208.402 25.5,206.5 Z"/></g>
<g><path style="opacity:1" fill="#6d87cd" d="M 328.5,206.5 C 331.243,206.077 332.576,207.244 332.5,210C 332.381,213.22 331.048,215.72 328.5,217.5C 327.009,216.652 326.342,215.319 326.5,213.5C 326.772,211.022 327.438,208.689 328.5,206.5 Z"/></g>
<g><path style="opacity:1" fill="#488cbf" d="M 76.5,220.5 C 87.5308,220.855 98.5308,221.688 109.5,223C 110.87,229.048 111.703,235.214 112,241.5C 112.833,242.333 113.667,243.167 114.5,244C 128.832,245.096 143.165,245.762 157.5,246C 159.004,244.509 159.837,242.676 160,240.5C 160.583,236.168 161.083,231.835 161.5,227.5C 172.833,227.5 184.167,227.5 195.5,227.5C 196.006,233.207 196.839,238.874 198,244.5C 198.5,245 199,245.5 199.5,246C 214.199,245.76 228.866,244.76 243.5,243C 244,242.5 244.5,242 245,241.5C 245.651,235.173 246.151,228.84 246.5,222.5C 257.866,222.304 269.2,221.638 280.5,220.5C 282.205,240.258 274.539,255.091 257.5,265C 242.392,272.889 226.392,277.889 209.5,280C 184.721,282.626 160.054,281.96 135.5,278C 114.729,274.701 97.229,265.535 83,250.5C 77.5788,241.229 75.4121,231.229 76.5,220.5 Z"/></g>
<g><path style="opacity:1" fill="#6d86cc" d="M 32.5,232.5 C 36.7816,232.64 39.1149,234.973 39.5,239.5C 38.9763,242.396 37.4763,243.063 35,241.5C 33.0924,238.794 32.259,235.794 32.5,232.5 Z"/></g>
<g><path style="opacity:1" fill="#6c86cc" d="M 321.5,231.5 C 323.722,231.559 324.722,232.725 324.5,235C 324.069,238.031 322.736,240.531 320.5,242.5C 318.954,241.788 317.954,240.622 317.5,239C 318.457,236.251 319.79,233.751 321.5,231.5 Z"/></g>
<g><path style="opacity:1" fill="#6d87cd" d="M 45.5,255.5 C 50.2008,257.068 51.8675,260.235 50.5,265C 49.365,265.749 48.365,265.583 47.5,264.5C 46.3333,262.833 45.1667,261.167 44,259.5C 43.7003,257.934 44.2003,256.601 45.5,255.5 Z"/></g>
<g><path style="opacity:1" fill="#6d86cc" d="M 308.5,255.5 C 310.714,255.291 312.381,256.124 313.5,258C 312.273,260.957 310.44,263.457 308,265.5C 306.268,265.266 305.434,264.266 305.5,262.5C 306.251,260.004 307.251,257.67 308.5,255.5 Z"/></g>
<g><path style="opacity:1" fill="#6a83c7" d="M 60.5,276.5 C 63.6136,277.091 66.1136,278.758 68,281.5C 68.6363,284.522 67.4697,286.022 64.5,286C 63,284.5 61.5,283 60,281.5C 59.3603,279.735 59.5269,278.068 60.5,276.5 Z"/></g>
<g><path style="opacity:1" fill="#6b84c9" d="M 293.5,276.5 C 297.071,276.408 298.238,278.074 297,281.5C 295.289,284.58 292.789,285.746 289.5,285C 288.483,283.951 288.316,282.784 289,281.5C 290.707,279.963 292.207,278.296 293.5,276.5 Z"/></g>
<g><path style="opacity:1" fill="#4d69b6" d="M 63.5,300.5 C 65.6282,299.371 67.9615,299.204 70.5,300C 111.637,335.12 158.97,347.787 212.5,338C 241.177,331.661 266.511,318.995 288.5,300C 290.833,299.333 293.167,299.333 295.5,300C 254.73,336.452 207.063,351.119 152.5,344C 118.496,337.997 88.8297,323.497 63.5,300.5 Z"/></g>
<g><path style="opacity:1" fill="#6c85cb" d="M 88.5,299.5 C 89.8734,299.343 91.2068,299.51 92.5,300C 93.5505,301.385 94.8839,302.385 96.5,303C 98.0628,305.476 97.3962,306.976 94.5,307.5C 91.3853,306.615 89.052,304.782 87.5,302C 87.7432,301.098 88.0766,300.265 88.5,299.5 Z"/></g>
<g><path style="opacity:1" fill="#6c86cc" d="M 266.5,299.5 C 270.138,298.737 271.638,300.07 271,303.5C 268.689,306.191 265.856,307.357 262.5,307C 261.483,305.951 261.316,304.784 262,303.5C 263.992,302.672 265.492,301.339 266.5,299.5 Z"/></g>
<g><path style="opacity:1" fill="#6c85ca" d="M 111.5,312.5 C 114.354,312.924 117.021,313.924 119.5,315.5C 120.748,317.597 120.248,319.264 118,320.5C 115.773,319.637 113.607,318.637 111.5,317.5C 110.334,315.833 110.334,314.166 111.5,312.5 Z"/></g>
<g><path style="opacity:1" fill="#6c86cb" d="M 244.5,312.5 C 248.252,312.501 249.252,314.167 247.5,317.5C 245.5,318.5 243.5,319.5 241.5,320.5C 239.954,319.788 238.954,318.622 238.5,317C 240.358,315.245 242.358,313.745 244.5,312.5 Z"/></g>
<g><path style="opacity:1" fill="#6f89d0" d="M 135.5,322.5 C 138.607,322.351 141.607,322.851 144.5,324C 146.118,326.8 145.285,328.3 142,328.5C 137.507,328.771 135.34,326.771 135.5,322.5 Z"/></g>
<g><path style="opacity:1" fill="#6c86cc" d="M 219.5,321.5 C 223.071,321.408 224.238,323.074 223,326.5C 220.306,327.883 217.473,328.383 214.5,328C 213.483,326.951 213.316,325.784 214,324.5C 215.876,323.391 217.709,322.391 219.5,321.5 Z"/></g>
<g><path style="opacity:1" fill="#708ad2" d="M 161.5,327.5 C 164.518,327.335 167.518,327.502 170.5,328C 171.833,329.333 171.833,330.667 170.5,332C 167.833,332.667 165.167,332.667 162.5,332C 161.62,330.644 161.286,329.144 161.5,327.5 Z"/></g>
<g><path style="opacity:1" fill="#6f8ad1" d="M 188.5,327.5 C 191.5,327.5 194.5,327.5 197.5,327.5C 198.176,331.49 196.51,333.157 192.5,332.5C 188.054,333.068 186.721,331.401 188.5,327.5 Z"/></g>
</svg>
