<?xml version="1.0" encoding="UTF-8"?>
<!DOCTYPE svg PUBLIC "-//W3C//DTD SVG 1.1//EN" "http://www.w3.org/Graphics/SVG/1.1/DTD/svg11.dtd">
<svg xmlns="http://www.w3.org/2000/svg" version="1.1" width="512px" height="512px" style="shape-rendering:geometricPrecision; text-rendering:geometricPrecision; image-rendering:optimizeQuality; fill-rule:evenodd; clip-rule:evenodd" xmlns:xlink="http://www.w3.org/1999/xlink">
<g><path style="opacity:1" fill="#fefefe" d="M 439.5,177.5 C 439.409,179.698 440.075,180.031 441.5,178.5C 472.175,208.51 482.008,244.51 471,286.5C 466.19,301.764 458.356,315.097 447.5,326.5C 446.167,326.5 445.5,327.167 445.5,328.5C 443.973,328.427 442.973,329.094 442.5,330.5C 427.58,345.129 409.58,354.296 388.5,358C 343.365,363.091 308.031,347.091 282.5,310C 264.5,309.333 246.5,309.333 228.5,310C 197.882,352.988 156.882,367.655 105.5,354C 61.0215,336.333 37.6882,303.499 35.5,255.5C 35.4475,227.966 44.7809,204.3 63.5,184.5C 64.8333,184.5 65.5,183.833 65.5,182.5C 65.5,181.833 65.8333,181.5 66.5,181.5C 67.3274,182.439 67.9941,182.105 68.5,180.5C 86.5954,162.634 108.595,153.134 134.5,152C 215.167,151.333 295.833,151.333 376.5,152C 400.622,153.198 421.622,161.698 439.5,177.5 Z M 368.5,200.5 C 380.636,200.228 387.636,206.061 389.5,218C 388.34,228.493 382.507,234.327 372,235.5C 356.141,231.783 351.475,222.45 358,207.5C 361.043,204.246 364.543,201.913 368.5,200.5 Z M 128.5,201.5 C 138.501,200.913 145.334,205.247 149,214.5C 149.5,221.492 149.666,228.492 149.5,235.5C 157.611,235.065 165.611,235.565 173.5,237C 182.534,243.384 185.034,251.884 181,262.5C 178.545,267.149 174.712,269.983 169.5,271C 162.842,271.5 156.175,271.666 149.5,271.5C 149.666,278.508 149.5,285.508 149,292.5C 146.025,300.577 140.192,304.577 131.5,304.5C 122.254,304.086 116.421,299.42 114,290.5C 113.5,284.175 113.334,277.842 113.5,271.5C 106.825,271.666 100.158,271.5 93.5,271C 81.5381,265.8 77.7048,256.967 82,244.5C 83.8333,241.333 86.3333,238.833 89.5,237C 97.4148,235.599 105.415,235.099 113.5,235.5C 113.144,227.762 113.644,220.095 115,212.5C 117.616,206.372 122.116,202.706 128.5,201.5 Z M 323.5,242.5 C 324.5,242.167 325.167,241.5 325.5,240.5C 337.823,232.625 347.323,235.291 354,248.5C 355.891,259.221 351.724,266.387 341.5,270C 328.671,271.509 321.337,265.842 319.5,253C 320.161,249.175 321.494,245.675 323.5,242.5 Z M 420.5,265.5 C 419.5,265.833 418.833,266.5 418.5,267.5C 403.665,273.673 394.332,269.006 390.5,253.5C 391.426,242.741 397.259,236.741 408,235.5C 420.396,237.621 426.062,244.955 425,257.5C 423.741,260.356 422.241,263.023 420.5,265.5 Z M 367.5,271.5 C 378.769,270.042 385.936,274.709 389,285.5C 389.733,297.358 384.233,304.358 372.5,306.5C 356.263,303.026 351.43,293.692 358,278.5C 360.529,275.115 363.696,272.782 367.5,271.5 Z"/></g>
<g><path style="opacity:1" fill="#252525" d="M 439.5,177.5 C 440.492,177.328 441.158,177.662 441.5,178.5C 440.075,180.031 439.409,179.698 439.5,177.5 Z"/></g>
<g><path style="opacity:0.675" fill="#211f20" d="M 68.5,180.5 C 67.9941,182.105 67.3274,182.439 66.5,181.5C 66.8417,180.662 67.5084,180.328 68.5,180.5 Z"/></g>
<g><path style="opacity:0.82" fill="#242223" d="M 65.5,182.5 C 65.5,183.833 64.8333,184.5 63.5,184.5C 63.8333,183.5 64.5,182.833 65.5,182.5 Z"/></g>
<g><path style="opacity:0.004" fill="#242424" d="M 325.5,240.5 C 325.167,241.5 324.5,242.167 323.5,242.5C 323.5,241.167 324.167,240.5 325.5,240.5 Z"/></g>
<g><path style="opacity:0.949" fill="#1f1f1f" d="M 420.5,265.5 C 420.938,265.435 421.272,265.601 421.5,266C 420.667,266.833 419.833,267.667 419,268.5C 418.601,268.272 418.435,267.938 418.5,267.5C 418.833,266.5 419.5,265.833 420.5,265.5 Z"/></g>
<g><path style="opacity:0.453" fill="#202020" d="M 447.5,326.5 C 447.167,327.5 446.5,328.167 445.5,328.5C 445.5,327.167 446.167,326.5 447.5,326.5 Z"/></g>
<g><path style="opacity:0.082" fill="#2a292a" d="M 445.5,328.5 C 445.027,329.906 444.027,330.573 442.5,330.5C 442.973,329.094 443.973,328.427 445.5,328.5 Z"/></g>
</svg>
