<?xml version="1.0" encoding="UTF-8"?>
<!DOCTYPE svg PUBLIC "-//W3C//DTD SVG 1.1//EN" "http://www.w3.org/Graphics/SVG/1.1/DTD/svg11.dtd">
<svg xmlns="http://www.w3.org/2000/svg" version="1.1" width="512px" height="512px" style="shape-rendering:geometricPrecision; text-rendering:geometricPrecision; image-rendering:optimizeQuality; fill-rule:evenodd; clip-rule:evenodd" xmlns:xlink="http://www.w3.org/1999/xlink">
<g><path style="opacity:0.02" fill="#3b3b3b" d="M -0.5,-0.5 C 0.166667,-0.5 0.833333,-0.5 1.5,-0.5C 1.16667,0.5 0.5,1.16667 -0.5,1.5C -0.5,0.833333 -0.5,0.166667 -0.5,-0.5 Z"/></g>
<g><path style="opacity:0.024" fill="#474747" d="M 16.5,-0.5 C 18.1667,-0.5 19.8333,-0.5 21.5,-0.5C 14.5,7.16667 7.16667,14.5 -0.5,21.5C -0.5,19.8333 -0.5,18.1667 -0.5,16.5C 5.5,11.1667 11.1667,5.5 16.5,-0.5 Z"/></g>
<g><path style="opacity:0.024" fill="#474747" d="M 36.5,-0.5 C 38.1667,-0.5 39.8333,-0.5 41.5,-0.5C 27.8333,13.8333 13.8333,27.8333 -0.5,41.5C -0.5,39.8333 -0.5,38.1667 -0.5,36.5C 12.1667,24.5 24.5,12.1667 36.5,-0.5 Z"/></g>
<g><path style="opacity:0.024" fill="#474747" d="M 56.5,-0.5 C 58.1667,-0.5 59.8333,-0.5 61.5,-0.5C 41.1667,20.5 20.5,41.1667 -0.5,61.5C -0.5,59.8333 -0.5,58.1667 -0.5,56.5C 18.8333,37.8333 37.8333,18.8333 56.5,-0.5 Z"/></g>
<g><path style="opacity:0.024" fill="#474747" d="M 76.5,-0.5 C 78.1667,-0.5 79.8333,-0.5 81.5,-0.5C 54.5,27.1667 27.1667,54.5 -0.5,81.5C -0.5,79.8333 -0.5,78.1667 -0.5,76.5C 25.5,51.1667 51.1667,25.5 76.5,-0.5 Z"/></g>
<g><path style="opacity:0.024" fill="#474747" d="M 96.5,-0.5 C 98.1667,-0.5 99.8333,-0.5 101.5,-0.5C 67.8333,33.8333 33.8333,67.8333 -0.5,101.5C -0.5,99.8333 -0.5,98.1667 -0.5,96.5C 32.1667,64.5 64.5,32.1667 96.5,-0.5 Z"/></g>
<g><path style="opacity:0.024" fill="#474747" d="M 116.5,-0.5 C 118.167,-0.5 119.833,-0.5 121.5,-0.5C 81.1667,40.5 40.5,81.1667 -0.5,121.5C -0.5,119.833 -0.5,118.167 -0.5,116.5C 38.8333,77.8333 77.8333,38.8333 116.5,-0.5 Z"/></g>
<g><path style="opacity:0.024" fill="#474747" d="M 136.5,-0.5 C 138.167,-0.5 139.833,-0.5 141.5,-0.5C 94.5,47.1667 47.1667,94.5 -0.5,141.5C -0.5,139.833 -0.5,138.167 -0.5,136.5C 45.5,91.1667 91.1667,45.5 136.5,-0.5 Z"/></g>
<g><path style="opacity:0.024" fill="#474747" d="M 156.5,-0.5 C 158.167,-0.5 159.833,-0.5 161.5,-0.5C 107.833,53.8333 53.8333,107.833 -0.5,161.5C -0.5,159.833 -0.5,158.167 -0.5,156.5C 52.1667,104.5 104.5,52.1667 156.5,-0.5 Z"/></g>
<g><path style="opacity:0.024" fill="#474747" d="M 176.5,-0.5 C 178.167,-0.5 179.833,-0.5 181.5,-0.5C 121.167,60.5 60.5,121.167 -0.5,181.5C -0.5,179.833 -0.5,178.167 -0.5,176.5C 58.8333,117.833 117.833,58.8333 176.5,-0.5 Z"/></g>
<g><path style="opacity:0.024" fill="#464646" d="M 196.5,-0.5 C 198.167,-0.5 199.833,-0.5 201.5,-0.5C 175.167,26.1667 148.833,52.8333 122.5,79.5C 121.833,79.5 121.5,79.8333 121.5,80.5C 120.833,80.5 120.5,80.8333 120.5,81.5C 119.833,81.5 119.5,81.8333 119.5,82.5C 118.833,82.5 118.5,82.8333 118.5,83.5C 117.833,83.5 117.5,83.8333 117.5,84.5C 116.833,84.5 116.5,84.8333 116.5,85.5C 115.833,85.5 115.5,85.8333 115.5,86.5C 114.992,88.2327 114.159,88.566 113,87.5C 109.244,90.6972 106.41,94.0305 104.5,97.5C 103.833,97.5 103.5,97.8333 103.5,98.5C 102.833,98.5 102.5,98.8333 102.5,99.5C 101.833,99.5 101.5,99.8333 101.5,100.5C 100.833,100.5 100.5,100.833 100.5,101.5C 99.8333,101.5 99.5,101.833 99.5,102.5C 98.8333,102.5 98.5,102.833 98.5,103.5C 97.8333,103.5 97.5,103.833 97.5,104.5C 64.8333,136.833 32.1667,169.167 -0.5,201.5C -0.5,199.833 -0.5,198.167 -0.5,196.5C 65.5,131.167 131.167,65.5 196.5,-0.5 Z"/></g>
<g><path style="opacity:0.024" fill="#474747" d="M 216.5,-0.5 C 218.167,-0.5 219.833,-0.5 221.5,-0.5C 204.833,16.5 188.167,33.5 171.5,50.5C 171.167,50.5 170.833,50.5 170.5,50.5C 168.445,51.9477 166.278,53.281 164,54.5C 163.601,54.2716 163.435,53.9382 163.5,53.5C 181.167,35.5 198.833,17.5 216.5,-0.5 Z"/></g>
<g><path style="opacity:0.024" fill="#474646" d="M 236.5,-0.5 C 238.167,-0.5 239.833,-0.5 241.5,-0.5C 227.833,13.5 214.167,27.5 200.5,41.5C 199.093,41.6587 197.426,42.3254 195.5,43.5C 194.893,43.3764 194.56,43.0431 194.5,42.5C 208.5,28.1667 222.5,13.8333 236.5,-0.5 Z"/></g>
<g><path style="opacity:0.024" fill="#474747" d="M 256.5,-0.5 C 258.167,-0.5 259.833,-0.5 261.5,-0.5C 249.167,12.5 236.5,25.1667 223.5,37.5C 222.039,38.6857 220.705,38.6857 219.5,37.5C 231.833,24.8333 244.167,12.1667 256.5,-0.5 Z"/></g>
<g><path style="opacity:0.024" fill="#474747" d="M 276.5,-0.5 C 278.167,-0.5 279.833,-0.5 281.5,-0.5C 269.5,12.1667 257.167,24.5 244.5,36.5C 243.039,37.6857 241.705,37.6857 240.5,36.5C 252.5,24.1667 264.5,11.8333 276.5,-0.5 Z"/></g>
<g><path style="opacity:0.024" fill="#474747" d="M 296.5,-0.5 C 298.167,-0.5 299.833,-0.5 301.5,-0.5C 289.167,12.5 276.5,25.1667 263.5,37.5C 262.039,38.6857 260.705,38.6857 259.5,37.5C 271.833,24.8333 284.167,12.1667 296.5,-0.5 Z"/></g>
<g><path style="opacity:0.024" fill="#464646" d="M 316.5,-0.5 C 318.167,-0.5 319.833,-0.5 321.5,-0.5C 308.535,12.9652 295.369,26.2985 282,39.5C 281.536,40.0944 281.369,40.7611 281.5,41.5C 280.005,41.0113 278.671,40.3446 277.5,39.5C 290.5,26.1667 303.5,12.8333 316.5,-0.5 Z"/></g>
<g><path style="opacity:0.024" fill="#464646" d="M 336.5,-0.5 C 338.167,-0.5 339.833,-0.5 341.5,-0.5C 327.202,14.2985 312.702,28.9652 298,43.5C 297.536,44.0944 297.369,44.7611 297.5,45.5C 296.005,45.0113 294.671,44.3446 293.5,43.5C 307.833,28.8333 322.167,14.1667 336.5,-0.5 Z"/></g>
<g><path style="opacity:0.024" fill="#474747" d="M 356.5,-0.5 C 358.167,-0.5 359.833,-0.5 361.5,-0.5C 345.167,16.5 328.5,33.1667 311.5,49.5C 310.209,49.7373 309.209,49.404 308.5,48.5C 324.5,32.1667 340.5,15.8333 356.5,-0.5 Z"/></g>
<g><path style="opacity:0.024" fill="#474747" d="M 376.5,-0.5 C 378.167,-0.5 379.833,-0.5 381.5,-0.5C 363.167,18.5 344.5,37.1667 325.5,55.5C 324.209,55.7373 323.209,55.404 322.5,54.5C 340.5,36.1667 358.5,17.8333 376.5,-0.5 Z"/></g>
<g><path style="opacity:0.024" fill="#474747" d="M 396.5,-0.5 C 398.167,-0.5 399.833,-0.5 401.5,-0.5C 380.833,20.8333 359.833,41.8333 338.5,62.5C 337.167,62.5 336.5,61.8333 336.5,60.5C 356.5,40.1667 376.5,19.8333 396.5,-0.5 Z"/></g>
<g><path style="opacity:0.024" fill="#474747" d="M 416.5,-0.5 C 418.167,-0.5 419.833,-0.5 421.5,-0.5C 398.167,23.5 374.5,47.1667 350.5,70.5C 349.5,70.1667 348.833,69.5 348.5,68.5C 371.167,45.5 393.833,22.5 416.5,-0.5 Z"/></g>
<g><path style="opacity:0.024" fill="#474747" d="M 436.5,-0.5 C 438.167,-0.5 439.833,-0.5 441.5,-0.5C 415.5,26.1667 389.167,52.5 362.5,78.5C 361.209,78.7373 360.209,78.404 359.5,77.5C 385.167,51.5 410.833,25.5 436.5,-0.5 Z"/></g>
<g><path style="opacity:0.024" fill="#474747" d="M 456.5,-0.5 C 458.167,-0.5 459.833,-0.5 461.5,-0.5C 432.167,29.5 402.5,59.1667 372.5,88.5C 371.5,88.1667 370.833,87.5 370.5,86.5C 399.167,57.5 427.833,28.5 456.5,-0.5 Z"/></g>
<g><path style="opacity:0.024" fill="#474747" d="M 476.5,-0.5 C 478.167,-0.5 479.833,-0.5 481.5,-0.5C 448.833,32.8333 415.833,65.8333 382.5,98.5C 381.5,98.1667 380.833,97.5 380.5,96.5C 412.5,64.1667 444.5,31.8333 476.5,-0.5 Z"/></g>
<g><path style="opacity:0.024" fill="#474747" d="M 496.5,-0.5 C 498.167,-0.5 499.833,-0.5 501.5,-0.5C 465.167,36.5 428.5,73.1667 391.5,109.5C 389.519,108.895 389.185,107.895 390.5,106.5C 425.833,70.8333 461.167,35.1667 496.5,-0.5 Z"/></g>
<g><path style="opacity:0.024" fill="#474747" d="M 511.5,5.5 C 511.5,7.16667 511.5,8.83333 511.5,10.5C 474.5,47.1667 437.5,83.8333 400.5,120.5C 399.167,120.5 398.5,119.833 398.5,118.5C 435.833,80.5 473.5,42.8333 511.5,5.5 Z"/></g>
<g><path style="opacity:0.024" fill="#474747" d="M 511.5,25.5 C 511.5,27.1667 511.5,28.8333 511.5,30.5C 476.833,64.8333 442.167,99.1667 407.5,133.5C 406.596,132.791 406.263,131.791 406.5,130.5C 441.167,95.1667 476.167,60.1667 511.5,25.5 Z"/></g>
<g><path style="opacity:0.999" fill="#fefefe" d="M 240.5,36.5 C 241.705,37.6857 243.039,37.6857 244.5,36.5C 249.305,37.4872 254.305,37.8205 259.5,37.5C 260.705,38.6857 262.039,38.6857 263.5,37.5C 267.56,38.5445 271.727,39.5445 276,40.5C 276.383,39.944 276.883,39.6107 277.5,39.5C 278.671,40.3446 280.005,41.0113 281.5,41.5C 285.5,42.1667 289.5,42.8333 293.5,43.5C 294.671,44.3446 296.005,45.0113 297.5,45.5C 301.223,46.2967 304.89,47.2967 308.5,48.5C 309.209,49.404 310.209,49.7373 311.5,49.5C 314.983,51.4056 318.65,53.0722 322.5,54.5C 323.209,55.404 324.209,55.7373 325.5,55.5C 328.687,57.3503 331.853,59.3503 335,61.5C 335.383,60.944 335.883,60.6107 336.5,60.5C 336.5,61.8333 337.167,62.5 338.5,62.5C 341.494,64.9998 344.827,66.9998 348.5,68.5C 348.833,69.5 349.5,70.1667 350.5,70.5C 353.28,73.0638 356.28,75.3971 359.5,77.5C 360.209,78.404 361.209,78.7373 362.5,78.5C 362.369,79.2389 362.536,79.9056 363,80.5C 365.663,82.3336 368.163,84.3336 370.5,86.5C 370.833,87.5 371.5,88.1667 372.5,88.5C 374.833,91.5 377.5,94.1667 380.5,96.5C 380.833,97.5 381.5,98.1667 382.5,98.5C 384.288,102.104 386.955,104.77 390.5,106.5C 389.185,107.895 389.519,108.895 391.5,109.5C 393.482,112.81 395.815,115.81 398.5,118.5C 398.5,119.833 399.167,120.5 400.5,120.5C 401.479,124.461 403.479,127.794 406.5,130.5C 406.263,131.791 406.596,132.791 407.5,133.5C 409.012,137.201 411.012,140.534 413.5,143.5C 413.263,144.791 413.596,145.791 414.5,146.5C 415.93,150.354 417.597,154.021 419.5,157.5C 419.263,158.791 419.596,159.791 420.5,160.5C 421.241,164.78 422.907,168.446 425.5,171.5C 423.871,173.196 424.204,174.196 426.5,174.5C 426.196,175.15 425.863,175.817 425.5,176.5C 426.391,180.444 427.724,184.111 429.5,187.5C 428.185,188.895 428.519,189.895 430.5,190.5C 430.196,191.15 429.863,191.817 429.5,192.5C 430.511,196.623 431.511,200.623 432.5,204.5C 432.263,205.791 432.596,206.791 433.5,207.5C 433.196,208.15 432.863,208.817 432.5,209.5C 432.921,213.78 433.921,217.78 435.5,221.5C 434.314,222.961 434.314,224.295 435.5,225.5C 434.274,230.665 434.607,235.665 436.5,240.5C 435.314,241.961 435.314,243.295 436.5,244.5C 435.198,249.933 435.198,255.266 436.5,260.5C 435.314,261.961 435.314,263.295 436.5,264.5C 435.198,269.933 435.198,275.266 436.5,280.5C 435.314,281.961 435.314,283.295 436.5,284.5C 435.198,289.933 435.198,295.266 436.5,300.5C 435.314,301.961 435.314,303.295 436.5,304.5C 435.198,309.933 435.198,315.266 436.5,320.5C 435.314,321.961 435.314,323.295 436.5,324.5C 435.198,329.933 435.198,335.266 436.5,340.5C 435.314,341.961 435.314,343.295 436.5,344.5C 435.198,349.933 435.198,355.266 436.5,360.5C 435.314,361.961 435.314,363.295 436.5,364.5C 435.198,369.933 435.198,375.266 436.5,380.5C 435.314,381.961 435.314,383.295 436.5,384.5C 435.198,389.933 435.198,395.266 436.5,400.5C 435.314,401.961 435.314,403.295 436.5,404.5C 435.198,409.933 435.198,415.266 436.5,420.5C 435.314,421.961 435.314,423.295 436.5,424.5C 435.198,429.933 435.198,435.266 436.5,440.5C 435.314,441.961 435.314,443.295 436.5,444.5C 435.198,449.933 435.198,455.266 436.5,460.5C 435.314,461.961 435.314,463.295 436.5,464.5C 435.759,467.413 435.259,470.413 435,473.5C 433.871,471.859 432.371,470.859 430.5,470.5C 430.5,469.167 429.833,468.5 428.5,468.5C 426.833,464.833 424.167,462.167 420.5,460.5C 420.5,459.167 419.833,458.5 418.5,458.5C 416.833,454.833 414.167,452.167 410.5,450.5C 410.5,449.167 409.833,448.5 408.5,448.5C 406.833,444.833 404.167,442.167 400.5,440.5C 400.5,439.167 399.833,438.5 398.5,438.5C 396.833,434.833 394.167,432.167 390.5,430.5C 390.5,429.167 389.833,428.5 388.5,428.5C 386.833,424.833 384.167,422.167 380.5,420.5C 380.5,419.167 379.833,418.5 378.5,418.5C 376.869,414.696 374.202,412.196 370.5,411C 349.299,432.368 327.965,453.535 306.5,474.5C 306.5,473.167 305.833,472.5 304.5,472.5C 302.833,468.833 300.167,466.167 296.5,464.5C 296.5,463.167 295.833,462.5 294.5,462.5C 292.833,458.833 290.167,456.167 286.5,454.5C 286.5,453.167 285.833,452.5 284.5,452.5C 282.833,448.833 280.167,446.167 276.5,444.5C 276.5,443.167 275.833,442.5 274.5,442.5C 272.833,438.833 270.167,436.167 266.5,434.5C 266.5,433.167 265.833,432.5 264.5,432.5C 262.833,428.833 260.167,426.167 256.5,424.5C 256.5,423.167 255.833,422.5 254.5,422.5C 252.833,418.833 250.167,416.167 246.5,414.5C 246.5,413.167 245.833,412.5 244.5,412.5C 244.539,411.244 244.039,410.244 243,409.5C 221.667,430.833 200.333,452.167 179,473.5C 177.223,471.21 175.056,469.543 172.5,468.5C 172.5,467.167 171.833,466.5 170.5,466.5C 168.833,462.833 166.167,460.167 162.5,458.5C 162.5,457.167 161.833,456.5 160.5,456.5C 158.833,452.833 156.167,450.167 152.5,448.5C 152.5,447.167 151.833,446.5 150.5,446.5C 148.833,442.833 146.167,440.167 142.5,438.5C 142.5,437.167 141.833,436.5 140.5,436.5C 138.833,432.833 136.167,430.167 132.5,428.5C 132.5,427.167 131.833,426.5 130.5,426.5C 128.833,422.833 126.167,420.167 122.5,418.5C 122.5,417.167 121.833,416.5 120.5,416.5C 119.287,413.775 117.454,411.441 115,409.5C 93.6667,430.833 72.3333,452.167 51,473.5C 50.7216,472.584 50.2216,471.918 49.5,471.5C 50.6857,470.039 50.6857,468.705 49.5,467.5C 50.8021,462.067 50.8021,456.734 49.5,451.5C 50.6857,450.039 50.6857,448.705 49.5,447.5C 50.8021,442.067 50.8021,436.734 49.5,431.5C 50.6857,430.039 50.6857,428.705 49.5,427.5C 50.8021,422.067 50.8021,416.734 49.5,411.5C 50.6857,410.039 50.6857,408.705 49.5,407.5C 50.8021,402.067 50.8021,396.734 49.5,391.5C 50.6857,390.039 50.6857,388.705 49.5,387.5C 50.8021,382.067 50.8021,376.734 49.5,371.5C 50.6857,370.039 50.6857,368.705 49.5,367.5C 50.8021,362.067 50.8021,356.734 49.5,351.5C 50.6857,350.039 50.6857,348.705 49.5,347.5C 50.8021,342.067 50.8021,336.734 49.5,331.5C 50.6857,330.039 50.6857,328.705 49.5,327.5C 50.8021,322.067 50.8021,316.734 49.5,311.5C 50.6857,310.039 50.6857,308.705 49.5,307.5C 50.8021,302.067 50.8021,296.734 49.5,291.5C 50.6857,290.039 50.6857,288.705 49.5,287.5C 50.8021,282.067 50.8021,276.734 49.5,271.5C 50.6857,270.039 50.6857,268.705 49.5,267.5C 50.8021,262.067 50.8021,256.734 49.5,251.5C 50.6857,250.039 50.6857,248.705 49.5,247.5C 50.8021,242.067 50.8021,236.734 49.5,231.5C 50.6857,230.039 50.6857,228.705 49.5,227.5C 49.7828,226.711 50.2828,226.044 51,225.5C 51.3202,220.977 51.8202,216.477 52.5,212C 52.472,210.93 52.1386,210.097 51.5,209.5C 52.355,208.469 53.0217,207.303 53.5,206C 53.4301,205.235 53.0967,204.735 52.5,204.5C 54.3113,198.257 55.978,191.924 57.5,185.5C 57.3764,184.893 57.0431,184.56 56.5,184.5C 57.7772,182.852 58.7772,181.018 59.5,179C 59.2716,178.601 58.9382,178.435 58.5,178.5C 61.4855,170.549 64.4855,162.549 67.5,154.5C 68.8333,154.167 68.8333,153.833 67.5,153.5C 68.9477,151.445 70.281,149.278 71.5,147C 71.2716,146.601 70.9382,146.435 70.5,146.5C 78.5132,131.792 87.5132,117.792 97.5,104.5C 98.1667,104.5 98.5,104.167 98.5,103.5C 99.1667,103.5 99.5,103.167 99.5,102.5C 100.167,102.5 100.5,102.167 100.5,101.5C 101.167,101.5 101.5,101.167 101.5,100.5C 102.167,100.5 102.5,100.167 102.5,99.5C 103.167,99.5 103.5,99.1667 103.5,98.5C 104.167,98.5 104.5,98.1667 104.5,97.5C 106.41,94.0305 109.244,90.6972 113,87.5C 114.159,88.566 114.992,88.2327 115.5,86.5C 116.167,86.5 116.5,86.1667 116.5,85.5C 117.167,85.5 117.5,85.1667 117.5,84.5C 118.167,84.5 118.5,84.1667 118.5,83.5C 119.167,83.5 119.5,83.1667 119.5,82.5C 120.167,82.5 120.5,82.1667 120.5,81.5C 121.167,81.5 121.5,81.1667 121.5,80.5C 122.167,80.5 122.5,80.1667 122.5,79.5C 135.615,70.0698 149.281,61.4031 163.5,53.5C 163.435,53.9382 163.601,54.2716 164,54.5C 166.278,53.281 168.445,51.9477 170.5,50.5C 170.833,51.8333 171.167,51.8333 171.5,50.5C 179.322,48.2263 186.988,45.5597 194.5,42.5C 194.56,43.0431 194.893,43.3764 195.5,43.5C 197.426,42.3254 199.093,41.6587 200.5,41.5C 207.006,40.7171 213.339,39.3838 219.5,37.5C 220.705,38.6857 222.039,38.6857 223.5,37.5C 223.56,38.0431 223.893,38.3764 224.5,38.5C 229.863,37.8328 235.196,37.1661 240.5,36.5 Z M 176.5,180.5 C 156.5,199.833 136.833,219.5 117.5,239.5C 115.953,237.193 115.287,234.527 115.5,231.5C 115.56,229.079 115.893,226.746 116.5,224.5C 131.5,210.167 146.167,195.5 160.5,180.5C 162.267,179.744 164.1,179.077 166,178.5C 169.654,179.062 173.154,179.729 176.5,180.5 Z M 316.5,180.5 C 300.833,195.833 285.167,211.167 269.5,226.5C 269.448,218.327 271.781,210.994 276.5,204.5C 282.833,198.833 288.833,192.833 294.5,186.5C 301.135,181.391 308.468,179.391 316.5,180.5 Z M 321.5,179.5 C 324.187,179.336 326.854,179.503 329.5,180C 331.653,180.099 333.319,180.933 334.5,182.5C 313.5,202.833 292.833,223.5 272.5,244.5C 270.933,243.319 270.099,241.653 270,239.5C 269.503,236.854 269.336,234.187 269.5,231.5C 287.167,214.5 304.5,197.167 321.5,179.5 Z M 155.5,180.5 C 142.833,193.5 130.167,206.5 117.5,219.5C 120.749,201.699 131.083,189.199 148.5,182C 150.74,181.023 153.073,180.523 155.5,180.5 Z M 179.5,181.5 C 183.852,181.846 187.519,183.512 190.5,186.5C 167.5,208.833 144.833,231.5 122.5,254.5C 119.381,250.966 118.048,246.966 118.5,242.5C 139.167,222.5 159.5,202.167 179.5,181.5 Z M 348.5,188.5 C 324.833,211.5 301.5,234.833 278.5,258.5C 275.371,255.262 273.705,251.595 273.5,247.5C 295.167,226.5 316.5,205.167 337.5,183.5C 341.595,183.705 345.262,185.371 348.5,188.5 Z M 193.5,187.5 C 197.188,189.188 199.855,191.855 201.5,195.5C 177.833,218.5 154.5,241.833 131.5,265.5C 128.044,263.377 125.711,260.377 124.5,256.5C 147.833,233.833 170.833,210.833 193.5,187.5 Z M 350.5,190.5 C 354.167,192.167 356.833,194.833 358.5,198.5C 334.833,221.5 311.5,244.833 288.5,268.5C 284.833,266.833 282.167,264.167 280.5,260.5C 304.167,237.5 327.5,214.167 350.5,190.5 Z M 203.5,197.5 C 206.886,199.567 209.219,202.567 210.5,206.5C 187.833,228.5 165.5,250.833 143.5,273.5C 142.883,273.611 142.383,273.944 142,274.5C 138.977,272.302 136.144,269.969 133.5,267.5C 157.167,244.5 180.5,221.167 203.5,197.5 Z M 360.5,200.5 C 363.629,203.738 365.295,207.405 365.5,211.5C 343.833,232.5 322.5,253.833 301.5,275.5C 297.405,275.295 293.738,273.629 290.5,270.5C 314.167,247.5 337.5,224.167 360.5,200.5 Z M 211.5,209.5 C 214.048,212.996 215.381,216.996 215.5,221.5C 196.167,240.167 177.167,259.167 158.5,278.5C 153.911,278.938 149.578,277.938 145.5,275.5C 167.833,253.833 189.833,231.833 211.5,209.5 Z M 366.5,214.5 C 367.966,215.347 368.8,216.68 369,218.5C 369.226,221.095 369.726,223.595 370.5,226C 369.944,226.383 369.611,226.883 369.5,227.5C 351.833,244.5 334.5,261.833 317.5,279.5C 314.615,280.036 311.615,279.87 308.5,279C 306.563,278.878 305.23,278.045 304.5,276.5C 325.5,256.167 346.167,235.5 366.5,214.5 Z M 215.5,225.5 C 217.149,231.701 216.482,237.701 213.5,243.5C 201.833,254.5 190.5,265.833 179.5,277.5C 173.614,280.287 167.614,280.954 161.5,279.5C 179.833,261.833 197.833,243.833 215.5,225.5 Z M 369.5,231.5 C 370.147,239.875 367.814,247.541 362.5,254.5C 355.833,260.5 349.5,266.833 343.5,273.5C 336.666,278.038 329.333,280.038 321.5,279.5C 337.833,263.833 353.833,247.833 369.5,231.5 Z M 211.5,250.5 C 206.167,261.833 197.833,270.167 186.5,275.5C 194.5,266.833 202.833,258.5 211.5,250.5 Z"/></g>
<g><path style="opacity:0.024" fill="#474747" d="M 511.5,45.5 C 511.5,47.1667 511.5,48.8333 511.5,50.5C 479.167,82.5 446.833,114.5 414.5,146.5C 413.596,145.791 413.263,144.791 413.5,143.5C 445.833,110.5 478.5,77.8333 511.5,45.5 Z"/></g>
<g><path style="opacity:0.024" fill="#474747" d="M 511.5,65.5 C 511.5,67.1667 511.5,68.8333 511.5,70.5C 481.167,100.5 450.833,130.5 420.5,160.5C 419.596,159.791 419.263,158.791 419.5,157.5C 449.833,126.5 480.5,95.8333 511.5,65.5 Z"/></g>
<g><path style="opacity:0.024" fill="#474747" d="M 511.5,85.5 C 511.5,87.1667 511.5,88.8333 511.5,90.5C 483.167,118.5 454.833,146.5 426.5,174.5C 424.204,174.196 423.871,173.196 425.5,171.5C 453.833,142.5 482.5,113.833 511.5,85.5 Z"/></g>
<g><path style="opacity:0.024" fill="#474747" d="M 511.5,105.5 C 511.5,107.167 511.5,108.833 511.5,110.5C 484.5,137.167 457.5,163.833 430.5,190.5C 428.519,189.895 428.185,188.895 429.5,187.5C 456.5,159.833 483.833,132.5 511.5,105.5 Z"/></g>
<g><path style="opacity:0.024" fill="#474747" d="M 511.5,125.5 C 511.5,127.167 511.5,128.833 511.5,130.5C 485.5,156.167 459.5,181.833 433.5,207.5C 432.596,206.791 432.263,205.791 432.5,204.5C 458.5,177.833 484.833,151.5 511.5,125.5 Z"/></g>
<g><path style="opacity:0.024" fill="#474747" d="M 511.5,145.5 C 511.5,147.167 511.5,148.833 511.5,150.5C 486.167,175.5 460.833,200.5 435.5,225.5C 434.314,224.295 434.314,222.961 435.5,221.5C 460.5,195.833 485.833,170.5 511.5,145.5 Z"/></g>
<g><path style="opacity:0.024" fill="#474747" d="M 70.5,146.5 C 70.9382,146.435 71.2716,146.601 71.5,147C 70.281,149.278 68.9477,151.445 67.5,153.5C 67.5,153.833 67.5,154.167 67.5,154.5C 44.8333,176.833 22.1667,199.167 -0.5,221.5C -0.5,219.833 -0.5,218.167 -0.5,216.5C 23.1667,193.167 46.8333,169.833 70.5,146.5 Z"/></g>
<g><path style="opacity:0.024" fill="#474747" d="M 511.5,165.5 C 511.5,167.167 511.5,168.833 511.5,170.5C 486.5,195.167 461.5,219.833 436.5,244.5C 435.314,243.295 435.314,241.961 436.5,240.5C 461.167,215.167 486.167,190.167 511.5,165.5 Z"/></g>
<g><path style="opacity:0.024" fill="#474747" d="M 321.5,179.5 C 304.5,197.167 287.167,214.5 269.5,231.5C 268.506,230.001 268.506,228.334 269.5,226.5C 285.167,211.167 300.833,195.833 316.5,180.5C 317.531,179.645 318.697,178.978 320,178.5C 320.765,178.57 321.265,178.903 321.5,179.5 Z"/></g>
<g><path style="opacity:0.024" fill="#474747" d="M 58.5,178.5 C 58.9382,178.435 59.2716,178.601 59.5,179C 58.7772,181.018 57.7772,182.852 56.5,184.5C 37.8333,203.833 18.8333,222.833 -0.5,241.5C -0.5,239.833 -0.5,238.167 -0.5,236.5C 19.1667,217.167 38.8333,197.833 58.5,178.5 Z"/></g>
<g><path style="opacity:0.024" fill="#474747" d="M 160.5,180.5 C 146.167,195.5 131.5,210.167 116.5,224.5C 115.903,224.265 115.57,223.765 115.5,223C 115.978,221.697 116.645,220.531 117.5,219.5C 130.167,206.5 142.833,193.5 155.5,180.5C 157.334,179.506 159.001,179.506 160.5,180.5 Z"/></g>
<g><path style="opacity:0.024" fill="#474747" d="M 176.5,180.5 C 177.791,180.263 178.791,180.596 179.5,181.5C 159.5,202.167 139.167,222.5 118.5,242.5C 116.204,242.196 115.871,241.196 117.5,239.5C 136.833,219.5 156.5,199.833 176.5,180.5 Z"/></g>
<g><path style="opacity:0.024" fill="#474747" d="M 337.5,183.5 C 316.5,205.167 295.167,226.5 273.5,247.5C 271.204,247.196 270.871,246.196 272.5,244.5C 292.833,223.5 313.5,202.833 334.5,182.5C 335.895,181.185 336.895,181.519 337.5,183.5 Z"/></g>
<g><path style="opacity:0.024" fill="#474747" d="M 190.5,186.5 C 191.791,186.263 192.791,186.596 193.5,187.5C 170.833,210.833 147.833,233.833 124.5,256.5C 123.167,256.5 122.5,255.833 122.5,254.5C 144.833,231.5 167.5,208.833 190.5,186.5 Z"/></g>
<g><path style="opacity:0.024" fill="#474747" d="M 511.5,185.5 C 511.5,187.167 511.5,188.833 511.5,190.5C 486.5,215.167 461.5,239.833 436.5,264.5C 435.314,263.295 435.314,261.961 436.5,260.5C 461.167,235.167 486.167,210.167 511.5,185.5 Z"/></g>
<g><path style="opacity:0.024" fill="#484848" d="M 294.5,186.5 C 288.833,192.833 282.833,198.833 276.5,204.5C 280.072,196.732 285.905,190.399 294,185.5C 294.399,185.728 294.565,186.062 294.5,186.5 Z"/></g>
<g><path style="opacity:0.024" fill="#474747" d="M 348.5,188.5 C 349.5,188.833 350.167,189.5 350.5,190.5C 327.5,214.167 304.167,237.5 280.5,260.5C 279.5,260.167 278.833,259.5 278.5,258.5C 301.5,234.833 324.833,211.5 348.5,188.5 Z"/></g>
<g><path style="opacity:0.024" fill="#474747" d="M 201.5,195.5 C 202.833,195.5 203.5,196.167 203.5,197.5C 180.5,221.167 157.167,244.5 133.5,267.5C 132.167,267.5 131.5,266.833 131.5,265.5C 154.5,241.833 177.833,218.5 201.5,195.5 Z"/></g>
<g><path style="opacity:0.024" fill="#474747" d="M 358.5,198.5 C 359.5,198.833 360.167,199.5 360.5,200.5C 337.5,224.167 314.167,247.5 290.5,270.5C 289.5,270.167 288.833,269.5 288.5,268.5C 311.5,244.833 334.833,221.5 358.5,198.5 Z"/></g>
<g><path style="opacity:0.024" fill="#474747" d="M 52.5,204.5 C 53.0967,204.735 53.4301,205.235 53.5,206C 53.0217,207.303 52.355,208.469 51.5,209.5C 34.5,227.167 17.1667,244.5 -0.5,261.5C -0.5,259.833 -0.5,258.167 -0.5,256.5C 17.1667,239.167 34.8333,221.833 52.5,204.5 Z"/></g>
<g><path style="opacity:0.024" fill="#474747" d="M 210.5,206.5 C 211.404,207.209 211.737,208.209 211.5,209.5C 189.833,231.833 167.833,253.833 145.5,275.5C 144.167,275.5 143.5,274.833 143.5,273.5C 165.5,250.833 187.833,228.5 210.5,206.5 Z"/></g>
<g><path style="opacity:0.024" fill="#474747" d="M 511.5,205.5 C 511.5,207.167 511.5,208.833 511.5,210.5C 486.5,235.167 461.5,259.833 436.5,284.5C 435.314,283.295 435.314,281.961 436.5,280.5C 461.167,255.167 486.167,230.167 511.5,205.5 Z"/></g>
<g><path style="opacity:0.024" fill="#474747" d="M 365.5,211.5 C 367.796,211.804 368.129,212.804 366.5,214.5C 346.167,235.5 325.5,256.167 304.5,276.5C 302.804,278.129 301.804,277.796 301.5,275.5C 322.5,253.833 343.833,232.5 365.5,211.5 Z"/></g>
<g><path style="opacity:0.024" fill="#474747" d="M 215.5,221.5 C 216.686,222.705 216.686,224.039 215.5,225.5C 197.833,243.833 179.833,261.833 161.5,279.5C 160.209,279.737 159.209,279.404 158.5,278.5C 177.167,259.167 196.167,240.167 215.5,221.5 Z"/></g>
<g><path style="opacity:0.024" fill="#474747" d="M 511.5,225.5 C 511.5,227.167 511.5,228.833 511.5,230.5C 486.5,255.167 461.5,279.833 436.5,304.5C 435.314,303.295 435.314,301.961 436.5,300.5C 461.167,275.167 486.167,250.167 511.5,225.5 Z"/></g>
<g><path style="opacity:0.024" fill="#474747" d="M 49.5,227.5 C 50.6857,228.705 50.6857,230.039 49.5,231.5C 33.1667,248.5 16.5,265.167 -0.5,281.5C -0.5,279.833 -0.5,278.167 -0.5,276.5C 16.1667,260.167 32.8333,243.833 49.5,227.5 Z"/></g>
<g><path style="opacity:0.024" fill="#474747" d="M 369.5,227.5 C 370.686,228.705 370.686,230.039 369.5,231.5C 353.833,247.833 337.833,263.833 321.5,279.5C 320.039,280.686 318.705,280.686 317.5,279.5C 334.5,261.833 351.833,244.5 369.5,227.5 Z"/></g>
<g><path style="opacity:0.024" fill="#474747" d="M 213.5,243.5 C 214.043,243.56 214.376,243.893 214.5,244.5C 213.441,246.534 212.441,248.534 211.5,250.5C 202.833,258.5 194.5,266.833 186.5,275.5C 184.534,276.441 182.534,277.441 180.5,278.5C 179.893,278.376 179.56,278.043 179.5,277.5C 190.5,265.833 201.833,254.5 213.5,243.5 Z"/></g>
<g><path style="opacity:0.024" fill="#474747" d="M 511.5,245.5 C 511.5,247.167 511.5,248.833 511.5,250.5C 486.5,275.167 461.5,299.833 436.5,324.5C 435.314,323.295 435.314,321.961 436.5,320.5C 461.167,295.167 486.167,270.167 511.5,245.5 Z"/></g>
<g><path style="opacity:0.024" fill="#474747" d="M 49.5,247.5 C 50.6857,248.705 50.6857,250.039 49.5,251.5C 33.1667,268.5 16.5,285.167 -0.5,301.5C -0.5,299.833 -0.5,298.167 -0.5,296.5C 16.1667,280.167 32.8333,263.833 49.5,247.5 Z"/></g>
<g><path style="opacity:0.024" fill="#4a4949" d="M 362.5,254.5 C 362.938,254.435 363.272,254.601 363.5,255C 358.27,263.425 351.603,269.591 343.5,273.5C 349.5,266.833 355.833,260.5 362.5,254.5 Z"/></g>
<g><path style="opacity:0.024" fill="#474747" d="M 511.5,265.5 C 511.5,267.167 511.5,268.833 511.5,270.5C 486.5,295.167 461.5,319.833 436.5,344.5C 435.314,343.295 435.314,341.961 436.5,340.5C 461.167,315.167 486.167,290.167 511.5,265.5 Z"/></g>
<g><path style="opacity:0.024" fill="#474747" d="M 49.5,267.5 C 50.6857,268.705 50.6857,270.039 49.5,271.5C 33.1667,288.5 16.5,305.167 -0.5,321.5C -0.5,319.833 -0.5,318.167 -0.5,316.5C 16.1667,300.167 32.8333,283.833 49.5,267.5 Z"/></g>
<g><path style="opacity:0.024" fill="#474747" d="M 511.5,285.5 C 511.5,287.167 511.5,288.833 511.5,290.5C 486.5,315.167 461.5,339.833 436.5,364.5C 435.314,363.295 435.314,361.961 436.5,360.5C 461.167,335.167 486.167,310.167 511.5,285.5 Z"/></g>
<g><path style="opacity:0.024" fill="#474747" d="M 49.5,287.5 C 50.6857,288.705 50.6857,290.039 49.5,291.5C 33.1667,308.5 16.5,325.167 -0.5,341.5C -0.5,339.833 -0.5,338.167 -0.5,336.5C 16.1667,320.167 32.8333,303.833 49.5,287.5 Z"/></g>
<g><path style="opacity:0.024" fill="#474747" d="M 511.5,305.5 C 511.5,307.167 511.5,308.833 511.5,310.5C 486.5,335.167 461.5,359.833 436.5,384.5C 435.314,383.295 435.314,381.961 436.5,380.5C 461.167,355.167 486.167,330.167 511.5,305.5 Z"/></g>
<g><path style="opacity:0.024" fill="#474747" d="M 49.5,307.5 C 50.6857,308.705 50.6857,310.039 49.5,311.5C 33.1667,328.5 16.5,345.167 -0.5,361.5C -0.5,359.833 -0.5,358.167 -0.5,356.5C 16.1667,340.167 32.8333,323.833 49.5,307.5 Z"/></g>
<g><path style="opacity:0.024" fill="#474747" d="M 511.5,325.5 C 511.5,327.167 511.5,328.833 511.5,330.5C 486.5,355.167 461.5,379.833 436.5,404.5C 435.314,403.295 435.314,401.961 436.5,400.5C 461.167,375.167 486.167,350.167 511.5,325.5 Z"/></g>
<g><path style="opacity:0.024" fill="#474747" d="M 49.5,327.5 C 50.6857,328.705 50.6857,330.039 49.5,331.5C 33.1667,348.5 16.5,365.167 -0.5,381.5C -0.5,379.833 -0.5,378.167 -0.5,376.5C 16.1667,360.167 32.8333,343.833 49.5,327.5 Z"/></g>
<g><path style="opacity:0.024" fill="#474747" d="M 511.5,345.5 C 511.5,347.167 511.5,348.833 511.5,350.5C 486.5,375.167 461.5,399.833 436.5,424.5C 435.314,423.295 435.314,421.961 436.5,420.5C 461.167,395.167 486.167,370.167 511.5,345.5 Z"/></g>
<g><path style="opacity:0.024" fill="#474747" d="M 49.5,347.5 C 50.6857,348.705 50.6857,350.039 49.5,351.5C 33.1667,368.5 16.5,385.167 -0.5,401.5C -0.5,399.833 -0.5,398.167 -0.5,396.5C 16.1667,380.167 32.8333,363.833 49.5,347.5 Z"/></g>
<g><path style="opacity:0.024" fill="#474747" d="M 511.5,365.5 C 511.5,367.167 511.5,368.833 511.5,370.5C 486.5,395.167 461.5,419.833 436.5,444.5C 435.314,443.295 435.314,441.961 436.5,440.5C 461.167,415.167 486.167,390.167 511.5,365.5 Z"/></g>
<g><path style="opacity:0.024" fill="#474747" d="M 49.5,367.5 C 50.6857,368.705 50.6857,370.039 49.5,371.5C 33.1667,388.5 16.5,405.167 -0.5,421.5C -0.5,419.833 -0.5,418.167 -0.5,416.5C 16.1667,400.167 32.8333,383.833 49.5,367.5 Z"/></g>
<g><path style="opacity:0.024" fill="#474747" d="M 511.5,385.5 C 511.5,387.167 511.5,388.833 511.5,390.5C 486.5,415.167 461.5,439.833 436.5,464.5C 435.314,463.295 435.314,461.961 436.5,460.5C 461.167,435.167 486.167,410.167 511.5,385.5 Z"/></g>
<g><path style="opacity:0.024" fill="#474747" d="M 49.5,387.5 C 50.6857,388.705 50.6857,390.039 49.5,391.5C 33.1667,408.5 16.5,425.167 -0.5,441.5C -0.5,439.833 -0.5,438.167 -0.5,436.5C 16.1667,420.167 32.8333,403.833 49.5,387.5 Z"/></g>
<g><path style="opacity:0.024" fill="#474747" d="M 511.5,405.5 C 511.5,407.167 511.5,408.833 511.5,410.5C 477.5,443.833 443.833,477.5 410.5,511.5C 408.833,511.5 407.167,511.5 405.5,511.5C 440.5,475.833 475.833,440.5 511.5,405.5 Z"/></g>
<g><path style="opacity:0.024" fill="#474747" d="M 49.5,407.5 C 50.6857,408.705 50.6857,410.039 49.5,411.5C 33.1667,428.5 16.5,445.167 -0.5,461.5C -0.5,459.833 -0.5,458.167 -0.5,456.5C 16.1667,440.167 32.8333,423.833 49.5,407.5 Z"/></g>
<g><path style="opacity:0.024" fill="#474747" d="M 244.5,412.5 C 245.833,412.5 246.5,413.167 246.5,414.5C 214.5,446.833 182.5,479.167 150.5,511.5C 148.833,511.5 147.167,511.5 145.5,511.5C 178.167,478.167 211.167,445.167 244.5,412.5 Z"/></g>
<g><path style="opacity:0.024" fill="#474747" d="M 120.5,416.5 C 121.833,416.5 122.5,417.167 122.5,418.5C 91.8333,449.5 61.1667,480.5 30.5,511.5C 28.8333,511.5 27.1667,511.5 25.5,511.5C 56.8333,479.5 88.5,447.833 120.5,416.5 Z"/></g>
<g><path style="opacity:0.024" fill="#474747" d="M 378.5,418.5 C 379.833,418.5 380.5,419.167 380.5,420.5C 350.5,450.833 320.5,481.167 290.5,511.5C 288.833,511.5 287.167,511.5 285.5,511.5C 316.167,480.167 347.167,449.167 378.5,418.5 Z"/></g>
<g><path style="opacity:0.024" fill="#474747" d="M 254.5,422.5 C 255.833,422.5 256.5,423.167 256.5,424.5C 227.833,453.5 199.167,482.5 170.5,511.5C 168.833,511.5 167.167,511.5 165.5,511.5C 194.833,481.5 224.5,451.833 254.5,422.5 Z"/></g>
<g><path style="opacity:0.024" fill="#474747" d="M 130.5,426.5 C 131.833,426.5 132.5,427.167 132.5,428.5C 105.167,456.167 77.8333,483.833 50.5,511.5C 48.8333,511.5 47.1667,511.5 45.5,511.5C 73.5,482.833 101.833,454.5 130.5,426.5 Z"/></g>
<g><path style="opacity:0.024" fill="#474747" d="M 511.5,425.5 C 511.5,427.167 511.5,428.833 511.5,430.5C 484.167,457.167 457.167,484.167 430.5,511.5C 428.833,511.5 427.167,511.5 425.5,511.5C 453.833,482.5 482.5,453.833 511.5,425.5 Z"/></g>
<g><path style="opacity:0.024" fill="#474747" d="M 49.5,427.5 C 50.6857,428.705 50.6857,430.039 49.5,431.5C 33.1667,448.5 16.5,465.167 -0.5,481.5C -0.5,479.833 -0.5,478.167 -0.5,476.5C 16.1667,460.167 32.8333,443.833 49.5,427.5 Z"/></g>
<g><path style="opacity:0.024" fill="#474747" d="M 388.5,428.5 C 389.833,428.5 390.5,429.167 390.5,430.5C 363.833,457.5 337.167,484.5 310.5,511.5C 308.833,511.5 307.167,511.5 305.5,511.5C 332.833,483.5 360.5,455.833 388.5,428.5 Z"/></g>
<g><path style="opacity:0.024" fill="#474747" d="M 264.5,432.5 C 265.833,432.5 266.5,433.167 266.5,434.5C 241.167,460.167 215.833,485.833 190.5,511.5C 188.833,511.5 187.167,511.5 185.5,511.5C 211.5,484.833 237.833,458.5 264.5,432.5 Z"/></g>
<g><path style="opacity:0.024" fill="#474747" d="M 140.5,436.5 C 141.833,436.5 142.5,437.167 142.5,438.5C 118.5,462.833 94.5,487.167 70.5,511.5C 68.8333,511.5 67.1667,511.5 65.5,511.5C 90.1667,486.167 115.167,461.167 140.5,436.5 Z"/></g>
<g><path style="opacity:0.024" fill="#474747" d="M 398.5,438.5 C 399.833,438.5 400.5,439.167 400.5,440.5C 377.167,464.167 353.833,487.833 330.5,511.5C 328.833,511.5 327.167,511.5 325.5,511.5C 349.5,486.833 373.833,462.5 398.5,438.5 Z"/></g>
<g><path style="opacity:0.024" fill="#474747" d="M 274.5,442.5 C 275.833,442.5 276.5,443.167 276.5,444.5C 254.5,466.833 232.5,489.167 210.5,511.5C 208.833,511.5 207.167,511.5 205.5,511.5C 228.167,488.167 251.167,465.167 274.5,442.5 Z"/></g>
<g><path style="opacity:0.024" fill="#474747" d="M 150.5,446.5 C 151.833,446.5 152.5,447.167 152.5,448.5C 131.833,469.5 111.167,490.5 90.5,511.5C 88.8333,511.5 87.1667,511.5 85.5,511.5C 106.833,489.5 128.5,467.833 150.5,446.5 Z"/></g>
<g><path style="opacity:0.024" fill="#474747" d="M 511.5,445.5 C 511.5,447.167 511.5,448.833 511.5,450.5C 490.833,470.5 470.5,490.833 450.5,511.5C 448.833,511.5 447.167,511.5 445.5,511.5C 467.167,489.167 489.167,467.167 511.5,445.5 Z"/></g>
<g><path style="opacity:0.024" fill="#474747" d="M 49.5,447.5 C 50.6857,448.705 50.6857,450.039 49.5,451.5C 33.1667,468.5 16.5,485.167 -0.5,501.5C -0.5,499.833 -0.5,498.167 -0.5,496.5C 16.1667,480.167 32.8333,463.833 49.5,447.5 Z"/></g>
<g><path style="opacity:0.024" fill="#474747" d="M 408.5,448.5 C 409.833,448.5 410.5,449.167 410.5,450.5C 390.5,470.833 370.5,491.167 350.5,511.5C 348.833,511.5 347.167,511.5 345.5,511.5C 366.167,490.167 387.167,469.167 408.5,448.5 Z"/></g>
<g><path style="opacity:0.024" fill="#474747" d="M 284.5,452.5 C 285.833,452.5 286.5,453.167 286.5,454.5C 267.833,473.5 249.167,492.5 230.5,511.5C 228.833,511.5 227.167,511.5 225.5,511.5C 244.833,491.5 264.5,471.833 284.5,452.5 Z"/></g>
<g><path style="opacity:0.024" fill="#474747" d="M 160.5,456.5 C 161.833,456.5 162.5,457.167 162.5,458.5C 145.167,476.167 127.833,493.833 110.5,511.5C 108.833,511.5 107.167,511.5 105.5,511.5C 123.5,492.833 141.833,474.5 160.5,456.5 Z"/></g>
<g><path style="opacity:0.024" fill="#474747" d="M 418.5,458.5 C 419.833,458.5 420.5,459.167 420.5,460.5C 403.833,477.5 387.167,494.5 370.5,511.5C 368.833,511.5 367.167,511.5 365.5,511.5C 382.833,493.5 400.5,475.833 418.5,458.5 Z"/></g>
<g><path style="opacity:0.024" fill="#474747" d="M 294.5,462.5 C 295.833,462.5 296.5,463.167 296.5,464.5C 281.167,480.167 265.833,495.833 250.5,511.5C 248.833,511.5 247.167,511.5 245.5,511.5C 261.5,494.833 277.833,478.5 294.5,462.5 Z"/></g>
<g><path style="opacity:0.024" fill="#474747" d="M 170.5,466.5 C 171.833,466.5 172.5,467.167 172.5,468.5C 158.5,482.833 144.5,497.167 130.5,511.5C 128.833,511.5 127.167,511.5 125.5,511.5C 140.167,496.167 155.167,481.167 170.5,466.5 Z"/></g>
<g><path style="opacity:0.024" fill="#474747" d="M 511.5,465.5 C 511.5,467.167 511.5,468.833 511.5,470.5C 497.5,483.833 483.833,497.5 470.5,511.5C 468.833,511.5 467.167,511.5 465.5,511.5C 480.5,495.833 495.833,480.5 511.5,465.5 Z"/></g>
<g><path style="opacity:0.024" fill="#474747" d="M 49.5,467.5 C 50.6857,468.705 50.6857,470.039 49.5,471.5C 36.5,484.833 23.5,498.167 10.5,511.5C 8.83333,511.5 7.16667,511.5 5.5,511.5C 19.8333,496.5 34.5,481.833 49.5,467.5 Z"/></g>
<g><path style="opacity:0.024" fill="#474747" d="M 428.5,468.5 C 429.833,468.5 430.5,469.167 430.5,470.5C 417.167,484.167 403.833,497.833 390.5,511.5C 388.833,511.5 387.167,511.5 385.5,511.5C 399.5,496.833 413.833,482.5 428.5,468.5 Z"/></g>
<g><path style="opacity:0.024" fill="#474747" d="M 304.5,472.5 C 305.833,472.5 306.5,473.167 306.5,474.5C 294.5,486.833 282.5,499.167 270.5,511.5C 268.833,511.5 267.167,511.5 265.5,511.5C 278.167,498.167 291.167,485.167 304.5,472.5 Z"/></g>
<g><path style="opacity:0.024" fill="#474747" d="M 511.5,485.5 C 511.5,487.167 511.5,488.833 511.5,490.5C 504.167,497.167 497.167,504.167 490.5,511.5C 488.833,511.5 487.167,511.5 485.5,511.5C 493.833,502.5 502.5,493.833 511.5,485.5 Z"/></g>
<g><path style="opacity:0.024" fill="#474747" d="M 511.5,505.5 C 511.5,507.167 511.5,508.833 511.5,510.5C 510.833,510.5 510.5,510.833 510.5,511.5C 508.833,511.5 507.167,511.5 505.5,511.5C 507.167,509.167 509.167,507.167 511.5,505.5 Z"/></g>
</svg>
