<?xml version="1.0" encoding="UTF-8"?>
<!DOCTYPE svg PUBLIC "-//W3C//DTD SVG 1.1//EN" "http://www.w3.org/Graphics/SVG/1.1/DTD/svg11.dtd">
<svg xmlns="http://www.w3.org/2000/svg" version="1.1" width="512px" height="512px" style="shape-rendering:geometricPrecision; text-rendering:geometricPrecision; image-rendering:optimizeQuality; fill-rule:evenodd; clip-rule:evenodd" xmlns:xlink="http://www.w3.org/1999/xlink">
<g><path style="opacity:1" fill="#fefffe" d="M 209.5,-0.5 C 240.167,-0.5 270.833,-0.5 301.5,-0.5C 305.479,1.31481 308.312,4.31481 310,8.5C 309.855,24.9032 310.689,41.0699 312.5,57C 328.083,61.3752 342.916,67.5419 357,75.5C 367.5,65 378,54.5 388.5,44C 394.5,40.6667 400.5,40.6667 406.5,44C 426.667,64.1667 446.833,84.3333 467,104.5C 470.333,110.5 470.333,116.5 467,122.5C 456.5,133 446,143.5 435.5,154C 443.624,168.416 449.958,183.582 454.5,199.5C 470.49,200.333 486.49,200.833 502.5,201C 506.685,202.688 509.685,205.521 511.5,209.5C 511.5,240.167 511.5,270.833 511.5,301.5C 509.685,305.479 506.685,308.312 502.5,310C 486.097,309.855 469.93,310.689 454,312.5C 449.625,328.083 443.458,342.916 435.5,357C 446,367.5 456.5,378 467,388.5C 470.333,394.5 470.333,400.5 467,406.5C 446.833,426.667 426.667,446.833 406.5,467C 400.5,470.333 394.5,470.333 388.5,467C 378,456.5 367.5,446 357,435.5C 342.584,443.624 327.418,449.958 311.5,454.5C 310.667,470.49 310.167,486.49 310,502.5C 308.312,506.685 305.479,509.685 301.5,511.5C 270.833,511.5 240.167,511.5 209.5,511.5C 205.521,509.685 202.688,506.685 201,502.5C 201.145,486.097 200.311,469.93 198.5,454C 182.917,449.625 168.084,443.458 154,435.5C 143.5,446 133,456.5 122.5,467C 116.5,470.333 110.5,470.333 104.5,467C 84.3333,446.833 64.1667,426.667 44,406.5C 40.6667,400.5 40.6667,394.5 44,388.5C 54.5,378 65,367.5 75.5,357C 67.3758,342.584 61.0425,327.418 56.5,311.5C 40.5104,310.667 24.5104,310.167 8.5,310C 4.31481,308.312 1.31481,305.479 -0.5,301.5C -0.5,270.833 -0.5,240.167 -0.5,209.5C 1.31481,205.521 4.31481,202.688 8.5,201C 24.9032,201.145 41.0699,200.311 57,198.5C 61.3752,182.917 67.5419,168.084 75.5,154C 65,143.5 54.5,133 44,122.5C 40.6667,116.5 40.6667,110.5 44,104.5C 64.1667,84.3333 84.3333,64.1667 104.5,44C 110.5,40.6667 116.5,40.6667 122.5,44C 133,54.5 143.5,65 154,75.5C 168.416,67.3758 183.582,61.0425 199.5,56.5C 200.333,40.5104 200.833,24.5104 201,8.5C 202.688,4.31481 205.521,1.31481 209.5,-0.5 Z M 241.5,141.5 C 291.794,138.175 329.961,157.842 356,200.5C 380.63,253.783 372.13,300.95 330.5,342C 290.191,373.424 246.858,378.091 200.5,356C 151.097,324.497 132.931,279.997 146,222.5C 162.317,177.106 194.15,150.106 241.5,141.5 Z"/></g>
</svg>
