<svg id="svg" version="1.1" xmlns="http://www.w3.org/2000/svg" xmlns:xlink="http://www.w3.org/1999/xlink" width="400" height="400" viewBox="0, 0, 400,400"><g id="svgg"><path id="path0" d="M0.000 200.000 L 0.000 331.250 200.000 331.250 L 400.000 331.250 400.000 200.000 L 400.000 68.750 200.000 68.750 L 0.000 68.750 0.000 200.000 M390.137 71.973 C 389.970 72.474,13.869 72.957,11.800 72.458 C 11.308 72.340,11.011 72.072,11.140 71.864 C 11.523 71.244,390.343 71.353,390.137 71.973 M10.156 73.660 C 10.156 74.067,9.871 74.231,9.308 74.148 C 8.057 73.964,7.923 73.047,9.147 73.047 C 9.804 73.047,10.156 73.261,10.156 73.660 M392.444 73.651 C 392.744 74.434,395.879 77.568,396.662 77.869 C 397.359 78.136,397.479 78.906,396.824 78.906 C 396.249 78.906,391.406 74.063,391.406 73.488 C 391.406 72.833,392.176 72.954,392.444 73.651 M390.316 74.728 C 392.659 75.878,394.455 77.781,395.611 80.337 C 396.626 82.581,396.668 317.330,395.654 319.560 C 394.749 321.550,392.759 323.688,390.669 324.917 L 388.867 325.977 200.586 325.977 C 18.901 325.977,12.254 325.952,10.867 325.262 C 8.955 324.310,6.835 322.206,5.758 320.193 L 4.883 318.555 4.883 199.805 L 4.883 81.055 5.733 79.466 C 7.303 76.533,10.215 74.346,13.231 73.833 C 14.225 73.664,98.975 73.550,201.563 73.579 L 388.086 73.633 390.316 74.728 M7.031 75.195 C 7.031 75.518,6.768 75.781,6.445 75.781 C 6.123 75.781,5.859 75.518,5.859 75.195 C 5.859 74.873,6.123 74.609,6.445 74.609 C 6.768 74.609,7.031 74.873,7.031 75.195 M5.398 78.058 C 5.481 78.621,5.317 78.906,4.910 78.906 C 4.511 78.906,4.297 78.554,4.297 77.897 C 4.297 76.673,5.214 76.807,5.398 78.058 M15.730 79.688 C 13.304 79.855,12.754 80.035,11.824 80.965 L 10.742 82.048 10.742 91.708 L 10.742 101.367 38.477 101.563 L 66.211 101.758 66.320 106.726 L 66.429 111.694 76.612 111.804 C 82.735 111.870,86.885 111.766,87.023 111.544 C 87.148 111.340,87.351 109.055,87.473 106.466 L 87.695 101.758 117.306 101.658 C 137.274 101.590,147.165 101.690,147.677 101.964 C 148.365 102.333,148.437 102.814,148.438 107.045 L 148.438 111.719 224.902 111.815 C 266.958 111.869,302.824 111.913,304.605 111.913 C 308.676 111.914,308.691 111.894,308.368 106.808 C 308.154 103.414,308.210 102.783,308.782 102.211 C 309.594 101.399,368.049 101.209,369.020 102.015 C 369.388 102.321,369.531 103.731,369.531 107.061 L 369.531 111.682 379.785 111.798 C 385.425 111.862,390.183 111.805,390.359 111.673 C 390.534 111.540,390.622 105.036,390.554 97.220 C 390.419 81.826,390.344 81.275,388.217 80.157 C 387.301 79.675,22.555 79.216,15.730 79.688 M3.900 199.870 C 3.906 314.588,3.865 320.575,3.084 320.092 C 2.677 319.840,2.594 80.349,3.001 79.942 C 3.810 79.133,3.895 90.473,3.900 199.870 M398.828 199.196 C 398.828 308.645,398.736 320.329,397.892 318.130 C 397.568 317.284,397.592 80.663,397.917 80.339 C 398.060 80.195,398.324 80.078,398.503 80.078 C 398.682 80.078,398.828 133.681,398.828 199.196 M388.111 82.149 L 389.787 83.825 389.789 96.954 L 389.792 110.083 380.527 110.083 L 371.263 110.083 371.181 106.512 C 371.094 102.711,371.301 101.403,371.929 101.791 C 372.149 101.927,372.272 103.440,372.214 105.300 C 372.086 109.408,371.263 109.036,380.488 109.036 C 388.592 109.036,389.379 108.891,388.863 107.488 C 388.758 107.201,388.672 101.620,388.672 95.085 C 388.672 84.474,388.605 83.203,388.049 83.203 C 387.707 83.203,387.335 82.852,387.223 82.422 C 387.019 81.642,386.690 81.641,200.150 81.641 C 97.372 81.641,13.281 81.494,13.281 81.315 C 13.281 81.136,13.398 80.873,13.540 80.731 C 13.682 80.589,97.641 80.473,200.117 80.473 L 386.435 80.473 388.111 82.149 M12.868 90.649 C 12.835 95.389,12.893 99.351,12.995 99.454 C 13.098 99.557,25.233 99.630,39.962 99.617 C 64.587 99.596,68.664 99.740,66.538 100.556 C 66.183 100.692,53.721 100.788,38.843 100.768 L 11.792 100.732 11.792 91.382 C 11.792 83.467,11.880 82.031,12.360 82.031 C 12.840 82.031,12.918 83.348,12.868 90.649 M62.500 84.333 C 62.500 84.525,62.222 84.789,61.882 84.919 C 61.075 85.229,18.613 85.229,17.805 84.919 C 15.749 84.130,19.183 83.984,39.844 83.984 C 52.878 83.984,62.500 84.133,62.500 84.333 M95.313 84.333 C 95.313 85.126,72.874 85.665,70.930 84.919 C 69.000 84.179,71.468 83.984,82.813 83.984 C 89.887 83.984,95.313 84.136,95.313 84.333 M225.000 84.333 C 225.000 84.525,224.722 84.789,224.382 84.919 C 223.575 85.229,182.675 85.229,181.868 84.919 C 179.817 84.132,183.182 83.984,203.125 83.984 C 215.701 83.984,225.000 84.133,225.000 84.333 M384.375 84.333 C 384.375 84.525,384.097 84.789,383.757 84.919 C 382.950 85.229,340.488 85.229,339.680 84.919 C 337.624 84.130,341.058 83.984,361.719 83.984 C 374.753 83.984,384.375 84.133,384.375 84.333 M61.086 86.031 C 61.780 86.389,61.876 90.598,61.206 91.268 C 60.932 91.542,18.703 91.490,18.428 91.215 C 17.473 90.259,17.925 85.991,18.999 85.819 C 21.263 85.457,60.354 85.654,61.086 86.031 M94.984 86.171 C 95.477 86.476,95.381 90.927,94.874 91.240 C 94.344 91.568,71.220 91.531,70.688 91.201 C 70.247 90.929,70.176 86.212,70.605 85.757 C 70.916 85.427,94.426 85.827,94.984 86.171 M222.266 85.891 L 224.414 86.133 224.533 88.436 C 224.598 89.703,224.476 90.914,224.262 91.129 C 223.850 91.541,182.269 91.600,181.605 91.189 C 181.193 90.934,181.118 86.200,181.520 85.798 C 181.851 85.467,219.265 85.553,222.266 85.891 M382.071 85.892 C 383.448 86.172,384.332 90.043,383.262 91.113 C 382.770 91.605,340.989 91.535,340.494 91.041 C 340.296 90.843,340.112 89.657,340.086 88.406 L 340.039 86.133 342.969 85.935 C 347.541 85.626,380.585 85.590,382.071 85.892 M16.169 86.555 C 16.764 88.106,16.339 92.188,15.583 92.188 C 15.391 92.188,15.234 90.781,15.234 89.063 C 15.234 86.145,15.617 85.118,16.169 86.555 M64.453 89.063 C 64.453 91.697,63.872 93.094,63.513 91.325 C 63.070 89.144,63.437 85.746,64.074 86.140 C 64.282 86.269,64.453 87.584,64.453 89.063 M69.469 88.851 C 69.452 91.243,69.205 92.273,68.722 91.975 C 68.307 91.718,68.222 86.596,68.626 86.192 C 69.115 85.702,69.483 86.863,69.469 88.851 M97.266 89.063 C 97.266 91.697,96.685 93.094,96.325 91.325 C 95.882 89.144,96.250 85.746,96.886 86.140 C 97.095 86.269,97.266 87.584,97.266 89.063 M180.406 88.851 C 180.389 91.243,180.143 92.273,179.659 91.975 C 179.245 91.718,179.159 86.596,179.563 86.192 C 180.053 85.702,180.421 86.863,180.406 88.851 M226.953 89.063 C 226.953 91.697,226.372 93.094,226.013 91.325 C 225.570 89.144,225.937 85.746,226.574 86.140 C 226.782 86.269,226.953 87.584,226.953 89.063 M338.275 88.152 C 338.283 89.689,337.920 90.689,337.459 90.404 C 337.052 90.153,336.982 86.586,337.376 86.192 C 337.797 85.771,338.269 86.799,338.275 88.152 M386.328 89.063 C 386.328 91.980,385.945 93.007,385.393 91.570 C 384.798 90.019,385.223 85.938,385.979 85.938 C 386.171 85.938,386.328 87.344,386.328 89.063 M61.880 93.205 C 63.891 93.977,60.032 94.141,39.844 94.141 C 19.809 94.141,15.818 93.976,17.673 93.228 C 18.378 92.944,61.142 92.922,61.880 93.205 M94.692 93.205 C 96.547 93.917,93.701 94.141,82.813 94.141 C 72.045 94.141,69.092 93.916,70.798 93.228 C 71.503 92.944,93.956 92.922,94.692 93.205 M224.380 93.205 C 226.384 93.974,222.596 94.141,203.125 94.141 C 183.805 94.141,179.887 93.974,181.736 93.228 C 182.440 92.944,223.642 92.922,224.380 93.205 M383.755 93.205 C 385.759 93.974,381.971 94.141,362.500 94.141 C 343.180 94.141,339.262 93.974,341.111 93.228 C 341.815 92.944,383.017 92.922,383.755 93.205 M148.217 99.959 C 148.684 100.715,146.230 100.781,117.969 100.781 C 89.707 100.781,87.254 100.715,87.721 99.959 C 88.007 99.496,147.931 99.496,148.217 99.959 M370.092 99.959 C 370.559 100.715,368.074 100.781,339.063 100.781 C 310.102 100.781,307.813 100.721,307.813 99.958 C 307.813 99.495,369.806 99.496,370.092 99.959 M306.803 101.814 C 307.142 102.697,306.853 102.876,305.906 102.369 C 305.448 102.124,304.437 102.046,303.547 102.189 C 301.762 102.474,299.856 102.111,300.202 101.551 C 300.637 100.848,306.523 101.082,306.803 101.814 M69.089 105.300 C 68.961 109.408,68.140 109.036,77.344 109.036 C 86.547 109.036,85.727 109.408,85.598 105.300 C 85.540 103.440,85.663 101.927,85.884 101.791 C 86.511 101.403,86.719 102.711,86.631 106.512 L 86.549 110.083 77.344 110.083 L 68.138 110.083 68.056 106.512 C 67.969 102.711,68.176 101.403,68.804 101.791 C 69.024 101.927,69.147 103.440,69.089 105.300 M150.339 105.300 C 150.283 107.099,150.333 108.666,150.450 108.783 C 150.713 109.046,297.718 109.052,297.981 108.790 C 298.085 108.686,298.134 107.472,298.089 106.093 C 298.006 103.523,298.605 102.295,299.059 104.104 C 299.199 104.660,299.198 105.832,299.058 106.709 C 298.877 107.842,298.978 108.569,299.410 109.228 L 300.016 110.154 224.703 110.148 L 149.390 110.143 149.307 106.542 C 149.219 102.713,149.425 101.402,150.054 101.791 C 150.274 101.927,150.397 103.440,150.339 105.300 M305.977 104.283 C 306.149 104.442,306.237 105.696,306.172 107.071 L 306.055 109.570 303.927 109.691 C 300.260 109.899,300.000 109.724,300.000 107.052 C 300.000 103.913,300.551 103.386,303.468 103.734 C 304.676 103.878,305.805 104.125,305.977 104.283 M10.547 211.927 C 10.547 299.787,10.633 316.636,11.085 317.719 C 12.128 320.216,10.498 320.117,50.692 320.117 L 87.126 320.117 87.141 272.852 C 87.150 246.855,87.146 201.328,87.133 171.680 L 87.110 117.773 73.926 117.773 L 60.742 117.773 60.633 112.598 L 60.524 107.422 35.536 107.422 L 10.547 107.422 10.547 211.927 M93.301 107.813 C 93.268 107.920,93.224 150.151,93.203 201.660 L 93.164 295.312 200.618 295.312 C 259.718 295.312,308.146 295.239,308.236 295.150 C 308.325 295.060,308.354 255.100,308.299 206.349 L 308.200 117.710 226.268 117.850 C 181.205 117.926,143.946 117.895,143.469 117.779 C 142.637 117.578,142.597 117.366,142.492 112.627 L 142.383 107.684 117.871 107.651 C 104.390 107.632,93.333 107.705,93.301 107.813 M314.206 108.008 C 314.124 108.223,314.103 156.035,314.158 214.258 L 314.258 320.117 350.799 320.117 C 390.905 320.117,388.568 320.251,389.928 317.871 C 390.333 317.161,390.430 297.808,390.430 217.383 L 390.430 117.773 377.148 117.773 L 363.867 117.773 363.672 112.735 L 363.477 107.697 338.915 107.657 C 322.863 107.631,314.302 107.753,314.206 108.008 M58.425 112.580 C 58.405 115.492,58.262 116.580,57.882 116.708 C 57.476 116.844,57.388 116.168,57.471 113.530 C 57.529 111.688,57.478 110.082,57.359 109.963 C 57.146 109.750,13.270 109.642,13.069 109.853 C 12.946 109.983,12.732 276.816,12.825 300.293 C 12.884 315.106,12.954 316.797,13.513 316.797 C 13.856 316.797,14.228 317.148,14.340 317.578 C 14.542 318.352,14.873 318.359,49.037 318.359 C 68.008 318.359,83.764 318.445,84.050 318.551 C 85.595 319.119,85.551 322.016,85.551 219.542 C 85.551 165.326,85.478 120.894,85.387 120.804 C 85.297 120.714,79.830 120.661,73.238 120.686 C 63.621 120.723,61.286 120.633,61.421 120.230 C 61.553 119.835,64.293 119.714,74.150 119.670 L 86.711 119.613 86.711 219.562 L 86.711 319.511 50.911 319.510 L 15.110 319.510 13.490 317.861 L 11.870 316.211 11.788 212.418 L 11.705 108.625 35.078 108.625 L 58.451 108.625 58.425 112.580 M141.333 112.957 C 141.430 117.462,141.230 118.929,140.572 118.522 C 140.346 118.382,140.223 116.592,140.278 114.222 C 140.329 111.990,140.277 110.069,140.162 109.954 C 139.933 109.724,96.070 109.659,95.841 109.888 C 95.659 110.070,95.652 293.047,95.833 293.229 C 96.009 293.405,305.553 293.405,305.730 293.229 C 305.908 293.050,305.905 121.009,305.726 120.831 C 305.650 120.754,268.922 120.696,224.108 120.700 C 176.094 120.705,142.538 120.564,142.410 120.356 C 141.923 119.569,146.553 119.523,225.234 119.536 L 307.023 119.549 307.023 207.037 L 307.023 294.524 200.781 294.524 L 94.539 294.524 94.539 201.575 L 94.539 108.625 117.889 108.625 L 141.239 108.625 141.333 112.957 M361.550 112.580 C 361.530 115.492,361.387 116.580,361.007 116.708 C 360.601 116.844,360.513 116.168,360.596 113.530 C 360.654 111.688,360.603 110.082,360.484 109.963 C 360.236 109.715,316.382 109.660,316.135 109.907 C 316.046 109.995,315.985 156.881,316.000 214.096 C 316.027 321.982,315.985 319.112,317.512 318.551 C 317.799 318.445,333.554 318.359,352.525 318.359 C 386.690 318.359,387.020 318.352,387.223 317.578 C 387.335 317.148,387.707 316.797,388.049 316.797 C 388.617 316.797,388.672 308.288,388.672 219.759 C 388.672 166.387,388.758 122.486,388.863 122.200 C 389.410 120.713,388.792 120.638,376.385 120.686 C 366.750 120.723,364.411 120.633,364.546 120.230 C 364.678 119.835,367.418 119.714,377.275 119.670 L 389.836 119.613 389.836 217.870 L 389.836 316.126 388.144 317.818 L 386.452 319.510 350.644 319.510 L 314.836 319.511 314.863 214.068 L 314.890 108.625 338.233 108.625 L 361.576 108.625 361.550 112.580 M60.156 118.555 C 60.156 118.877,59.893 119.141,59.570 119.141 C 59.248 119.141,58.984 118.877,58.984 118.555 C 58.984 118.232,59.248 117.969,59.570 117.969 C 59.893 117.969,60.156 118.232,60.156 118.555 M363.281 118.555 C 363.281 118.877,363.018 119.141,362.695 119.141 C 362.373 119.141,362.109 118.877,362.109 118.555 C 362.109 118.232,362.373 117.969,362.695 117.969 C 363.018 117.969,363.281 118.232,363.281 118.555 M324.798 129.676 C 325.067 130.111,323.857 130.419,321.875 130.419 C 319.966 130.419,318.750 130.131,318.750 129.680 C 318.750 129.180,324.489 129.176,324.798 129.676 M370.092 129.647 C 370.549 130.385,368.512 130.469,350.000 130.469 C 331.488 130.469,329.451 130.385,329.908 129.647 C 330.193 129.185,369.807 129.185,370.092 129.647 M372.266 132.008 C 372.266 133.051,371.618 133.365,371.376 132.440 C 371.173 131.664,371.369 131.250,371.940 131.250 C 372.119 131.250,372.266 131.591,372.266 132.008 M317.712 134.438 C 317.624 137.280,317.608 137.370,317.279 136.856 C 317.121 136.609,317.053 135.308,317.128 133.964 C 317.290 131.038,317.805 131.456,317.712 134.438 M324.596 132.396 C 324.818 132.812,325.000 133.878,325.000 134.766 C 325.000 137.443,324.549 137.891,321.852 137.891 C 319.660 137.891,319.486 137.823,319.097 136.816 C 318.602 135.534,318.947 132.395,319.632 131.961 C 320.684 131.293,324.169 131.599,324.596 132.396 M326.610 136.654 C 326.292 137.715,325.962 136.335,326.048 134.301 C 326.175 131.271,326.276 131.166,326.535 133.789 C 326.662 135.078,326.696 136.367,326.610 136.654 M328.524 139.015 C 327.964 140.050,327.818 138.838,328.058 135.156 L 328.300 131.445 328.558 134.961 C 328.700 136.895,328.685 138.719,328.524 139.015 M369.863 131.995 C 370.539 132.413,370.898 136.599,370.318 137.298 C 369.890 137.813,367.237 137.891,349.966 137.891 L 330.106 137.891 329.658 137.055 C 329.249 136.290,329.427 132.769,329.914 131.981 C 330.137 131.621,369.280 131.634,369.863 131.995 M372.266 138.281 C 372.266 139.093,371.655 139.654,371.335 139.137 C 371.025 138.635,371.525 137.089,371.919 137.332 C 372.110 137.450,372.266 137.877,372.266 138.281 M319.531 138.867 C 319.531 139.189,319.268 139.453,318.945 139.453 C 318.623 139.453,318.359 139.189,318.359 138.867 C 318.359 138.545,318.623 138.281,318.945 138.281 C 319.268 138.281,319.531 138.545,319.531 138.867 M325.391 138.867 C 325.391 139.189,325.127 139.453,324.805 139.453 C 324.195 139.453,324.030 138.991,324.479 138.542 C 324.929 138.092,325.391 138.257,325.391 138.867 M322.951 140.527 C 323.056 140.847,322.696 141.016,321.908 141.016 C 320.747 141.016,320.400 140.668,320.980 140.088 C 321.400 139.668,322.769 139.973,322.951 140.527 M369.531 140.321 C 370.698 140.474,333.354 140.816,331.706 140.668 C 330.775 140.585,330.186 140.409,330.398 140.278 C 330.731 140.072,367.939 140.113,369.531 140.321 M330.859 142.140 C 332.598 142.421,332.583 142.428,329.607 142.728 C 326.583 143.034,325.000 142.839,325.000 142.161 C 325.000 141.738,328.308 141.726,330.859 142.140 M377.930 142.188 C 378.215 142.648,340.102 142.911,336.719 142.471 C 336.396 142.430,343.779 142.302,353.125 142.188 C 362.471 142.073,371.821 141.939,373.903 141.888 C 376.108 141.835,377.789 141.960,377.930 142.188 M335.079 146.084 C 335.228 149.216,334.944 150.123,334.152 149.046 C 333.581 148.270,333.359 144.115,333.862 143.612 C 334.538 142.936,334.970 143.815,335.079 146.084 M323.991 144.629 C 324.430 146.799,324.060 150.189,323.426 149.798 C 322.926 149.489,322.930 143.750,323.430 143.750 C 323.641 143.750,323.893 144.146,323.991 144.629 M331.394 144.629 C 331.842 146.299,331.652 148.761,331.027 149.386 C 330.092 150.321,326.709 150.222,326.186 149.244 C 325.631 148.209,325.675 144.794,326.250 144.219 C 327.161 143.308,331.125 143.624,331.394 144.629 M377.330 144.506 C 377.933 145.632,377.819 148.143,377.119 149.142 L 376.504 150.021 356.904 149.784 C 346.124 149.653,337.085 149.478,336.816 149.395 C 336.299 149.234,336.098 144.501,336.589 144.010 C 337.341 143.258,376.920 143.739,377.330 144.506 M380.078 146.875 C 380.078 149.509,379.497 150.906,379.138 149.137 C 378.695 146.956,379.062 143.559,379.699 143.952 C 379.907 144.081,380.078 145.396,380.078 146.875 M330.731 151.304 C 330.873 151.446,329.686 151.560,328.092 151.557 C 326.499 151.553,325.398 151.421,325.646 151.264 C 326.198 150.912,330.372 150.945,330.731 151.304 M367.480 151.465 C 361.733 151.525,352.329 151.525,346.582 151.465 C 340.835 151.404,345.537 151.354,357.031 151.354 C 368.525 151.354,373.228 151.404,367.480 151.465 M329.590 153.410 C 328.784 153.494,327.466 153.494,326.660 153.410 C 325.854 153.325,326.514 153.256,328.125 153.256 C 329.736 153.256,330.396 153.325,329.590 153.410 M367.480 153.418 C 361.733 153.479,352.329 153.479,346.582 153.418 C 340.835 153.357,345.537 153.307,357.031 153.307 C 368.525 153.307,373.228 153.357,367.480 153.418 M324.156 157.601 C 324.139 159.993,323.893 161.023,323.409 160.725 C 322.995 160.468,322.909 155.346,323.313 154.942 C 323.803 154.452,324.171 155.613,324.156 157.601 M331.394 155.566 C 332.351 159.137,331.373 160.938,328.478 160.938 C 326.260 160.938,325.781 160.288,325.781 157.279 C 325.781 155.100,326.283 154.688,328.939 154.688 C 330.911 154.688,331.185 154.786,331.394 155.566 M335.150 157.887 C 335.157 160.256,334.676 161.058,334.004 159.802 C 333.478 158.820,333.480 156.992,334.007 155.605 C 334.606 154.030,335.143 155.102,335.150 157.887 M377.392 156.230 C 377.543 156.970,377.546 158.289,377.397 159.159 L 377.127 160.742 358.925 160.844 C 348.914 160.899,339.778 160.810,338.623 160.645 L 336.523 160.344 336.405 158.048 C 336.339 156.785,336.378 155.511,336.491 155.216 C 336.663 154.770,340.079 154.697,356.907 154.782 L 377.117 154.883 377.392 156.230 M380.078 157.813 C 380.078 160.447,379.497 161.844,379.138 160.075 C 378.695 157.894,379.062 154.496,379.699 154.890 C 379.907 155.019,380.078 156.334,380.078 157.813 M330.469 162.076 C 332.348 162.221,329.767 162.674,327.714 162.560 C 326.371 162.486,325.458 162.310,325.686 162.169 C 326.037 161.953,328.292 161.909,330.469 162.076 M367.480 162.402 C 361.733 162.463,352.329 162.463,346.582 162.402 C 340.835 162.341,345.537 162.291,357.031 162.291 C 368.525 162.291,373.228 162.341,367.480 162.402 M332.715 164.160 C 332.625 164.429,332.171 164.636,331.706 164.621 C 331.240 164.605,329.585 164.530,328.027 164.453 L 325.195 164.312 328.125 164.063 C 329.736 163.925,331.465 163.781,331.966 163.742 C 332.543 163.698,332.818 163.851,332.715 164.160 M367.480 164.355 C 361.733 164.416,352.329 164.416,346.582 164.355 C 340.835 164.294,345.537 164.245,357.031 164.245 C 368.525 164.245,373.228 164.294,367.480 164.355 M335.079 167.959 C 335.228 171.091,334.944 171.998,334.152 170.921 C 333.581 170.145,333.359 165.990,333.862 165.487 C 334.538 164.811,334.970 165.690,335.079 167.959 M324.156 168.539 C 324.139 170.930,323.893 171.961,323.409 171.662 C 322.995 171.406,322.909 166.283,323.313 165.880 C 323.803 165.390,324.171 166.551,324.156 168.539 M331.404 166.243 C 332.469 169.020,331.474 171.511,329.196 171.768 C 326.364 172.087,324.277 168.067,326.250 166.094 C 326.980 165.364,331.112 165.483,331.404 166.243 M377.505 167.262 C 377.723 168.147,377.718 169.203,377.490 169.996 L 377.119 171.289 356.821 171.289 L 336.523 171.289 336.409 168.454 L 336.294 165.618 356.721 165.719 L 377.148 165.820 377.505 167.262 M380.078 168.750 C 380.078 171.384,379.497 172.781,379.138 171.012 C 378.695 168.831,379.062 165.434,379.699 165.827 C 379.907 165.956,380.078 167.271,380.078 168.750 M332.871 171.680 C 332.871 171.884,332.682 172.114,332.451 172.191 C 332.220 172.268,332.031 172.038,332.031 171.680 C 332.031 171.322,332.220 171.092,332.451 171.169 C 332.682 171.246,332.871 171.476,332.871 171.680 M330.762 173.340 C 330.882 173.700,330.202 173.828,328.181 173.828 C 325.658 173.828,324.301 173.375,325.486 172.929 C 326.524 172.538,330.601 172.856,330.762 173.340 M377.505 172.892 C 379.501 173.658,375.786 173.828,357.031 173.828 C 338.426 173.828,334.582 173.658,336.423 172.916 C 337.128 172.632,376.767 172.609,377.505 172.892 M38.842 223.397 C 39.259 224.072,37.763 224.219,30.469 224.219 C 26.422 224.219,22.834 224.112,22.495 223.983 C 20.766 223.319,23.084 223.047,30.469 223.047 C 34.955 223.047,38.723 223.204,38.842 223.397 M74.779 223.397 C 75.202 224.081,73.664 224.219,65.625 224.219 C 61.148 224.219,57.209 224.112,56.870 223.983 C 55.110 223.307,57.545 223.047,65.625 223.047 C 70.541 223.047,74.661 223.204,74.779 223.397 M21.094 225.222 C 21.094 225.630,20.809 225.794,20.245 225.711 C 18.995 225.527,18.861 224.609,20.085 224.609 C 20.741 224.609,21.094 224.824,21.094 225.222 M41.701 225.098 C 41.454 225.849,39.844 225.957,39.844 225.222 C 39.844 224.824,40.196 224.609,40.853 224.609 C 41.486 224.609,41.802 224.792,41.701 225.098 M55.469 225.222 C 55.469 225.630,55.184 225.794,54.620 225.711 C 53.370 225.527,53.236 224.609,54.460 224.609 C 55.116 224.609,55.469 224.824,55.469 225.222 M77.639 225.098 C 77.391 225.849,75.781 225.957,75.781 225.222 C 75.781 224.824,76.134 224.609,76.790 224.609 C 77.423 224.609,77.739 224.792,77.639 225.098 M17.969 226.735 C 17.969 227.357,17.260 227.937,16.918 227.595 C 16.597 227.274,17.098 226.172,17.566 226.172 C 17.787 226.172,17.969 226.425,17.969 226.735 M41.627 227.143 C 44.705 228.946,44.997 230.141,44.851 240.316 C 44.663 253.479,44.889 253.267,30.859 253.435 C 16.152 253.610,16.016 253.485,16.016 239.748 C 16.016 226.202,15.963 226.251,30.630 226.203 C 39.900 226.172,39.983 226.179,41.627 227.143 M44.018 226.917 C 44.125 227.327,44.548 227.750,44.958 227.857 C 45.782 228.072,45.988 228.910,45.215 228.900 C 44.619 228.891,42.969 227.205,42.969 226.605 C 42.969 225.875,43.811 226.125,44.018 226.917 M52.344 226.758 C 52.344 227.080,52.080 227.344,51.758 227.344 C 51.436 227.344,51.172 227.080,51.172 226.758 C 51.172 226.436,51.436 226.172,51.758 226.172 C 52.080 226.172,52.344 226.436,52.344 226.758 M77.174 227.143 C 80.133 228.877,80.469 230.137,80.467 239.479 C 80.463 253.217,80.151 253.516,65.843 253.516 C 51.630 253.516,51.563 253.450,51.563 239.616 C 51.563 226.175,51.525 226.210,65.981 226.187 C 75.447 226.172,75.530 226.179,77.174 227.143 M80.078 226.758 C 80.078 227.080,79.814 227.344,79.492 227.344 C 79.170 227.344,78.906 227.080,78.906 226.758 C 78.906 226.436,79.170 226.172,79.492 226.172 C 79.814 226.172,80.078 226.436,80.078 226.758 M16.797 228.077 C 16.797 228.570,15.650 229.452,15.372 229.174 C 14.972 228.774,15.569 227.734,16.199 227.734 C 16.528 227.734,16.797 227.889,16.797 228.077 M50.586 239.844 C 50.586 248.351,50.473 250.949,50.098 251.074 C 49.714 251.202,49.609 248.785,49.609 239.844 C 49.609 230.903,49.714 228.486,50.098 228.613 C 50.473 228.738,50.586 231.337,50.586 239.844 M81.641 229.492 C 81.641 230.490,81.107 230.796,80.653 230.059 C 80.328 229.534,80.713 228.516,81.238 228.516 C 81.459 228.516,81.641 228.955,81.641 229.492 M47.266 239.844 C 47.266 248.620,47.016 251.167,46.330 249.380 C 46.022 248.577,46.022 231.111,46.330 230.308 C 47.016 228.521,47.266 231.068,47.266 239.844 M14.486 239.507 C 14.475 250.644,14.496 249.782,14.244 249.530 C 14.087 249.374,13.963 236.907,14.055 230.501 C 14.059 230.197,14.160 230.045,14.279 230.165 C 14.398 230.284,14.492 234.488,14.486 239.507 M83.203 239.844 C 83.203 247.624,82.967 249.640,82.268 247.820 C 81.959 247.014,81.959 232.674,82.268 231.868 C 82.967 230.048,83.203 232.063,83.203 239.844 M21.964 239.738 L 22.070 247.461 30.469 247.461 L 38.867 247.461 38.867 239.844 L 38.867 232.227 30.363 232.121 L 21.858 232.016 21.964 239.738 M57.422 239.844 L 57.422 247.671 65.918 247.566 L 74.414 247.461 74.414 239.844 L 74.414 232.227 65.918 232.121 L 57.422 232.016 57.422 239.844 M38.176 239.844 L 38.176 246.007 30.469 246.007 L 22.762 246.007 22.762 239.844 L 22.762 233.681 30.469 233.681 L 38.176 233.681 38.176 239.844 M72.551 239.844 L 72.551 245.998 65.625 245.998 L 58.699 245.998 58.699 239.844 L 58.699 233.689 65.625 233.689 L 72.551 233.689 72.551 239.844 M24.141 234.814 C 23.742 235.060,23.563 244.397,23.950 244.783 C 24.061 244.894,26.994 244.985,30.469 244.985 C 33.943 244.985,36.877 244.894,36.988 244.783 C 37.250 244.521,37.253 235.170,36.991 234.908 C 36.699 234.616,24.604 234.527,24.141 234.814 M60.078 234.814 C 59.677 235.062,59.502 244.398,59.891 244.787 C 60.004 244.900,62.585 244.993,65.625 244.993 C 68.665 244.993,71.246 244.900,71.359 244.787 C 71.626 244.520,71.629 235.171,71.363 234.905 C 71.069 234.610,60.544 234.526,60.078 234.814 M81.641 250.228 C 81.641 251.452,80.723 251.318,80.539 250.067 C 80.456 249.504,80.620 249.219,81.028 249.219 C 81.426 249.219,81.641 249.571,81.641 250.228 M16.896 251.527 C 18.013 252.711,18.274 253.516,17.542 253.516 C 17.307 253.516,17.027 253.180,16.920 252.770 C 16.812 252.361,16.389 251.938,15.980 251.830 C 15.570 251.723,15.234 251.356,15.234 251.013 C 15.234 250.105,15.685 250.245,16.896 251.527 M45.703 251.208 C 45.703 251.443,45.368 251.723,44.958 251.830 C 44.548 251.938,44.125 252.361,44.018 252.770 C 43.811 253.563,42.969 253.813,42.969 253.082 C 42.969 252.482,44.619 250.796,45.215 250.788 C 45.483 250.784,45.703 250.973,45.703 251.208 M52.344 252.930 C 52.344 253.252,52.080 253.516,51.758 253.516 C 51.436 253.516,51.172 253.252,51.172 252.930 C 51.172 252.607,51.436 252.344,51.758 252.344 C 52.080 252.344,52.344 252.607,52.344 252.930 M80.078 252.930 C 80.078 253.252,79.814 253.516,79.492 253.516 C 79.170 253.516,78.906 253.252,78.906 252.930 C 78.906 252.607,79.170 252.344,79.492 252.344 C 79.814 252.344,80.078 252.607,80.078 252.930 M21.094 254.492 C 21.094 254.857,20.725 255.078,20.117 255.078 C 19.169 255.078,18.870 254.698,19.401 254.167 C 19.892 253.675,21.094 253.906,21.094 254.492 M41.701 254.590 C 41.802 254.896,41.486 255.078,40.853 255.078 C 40.196 255.078,39.844 254.864,39.844 254.465 C 39.844 253.730,41.454 253.839,41.701 254.590 M57.031 254.522 C 57.031 255.144,53.725 255.342,53.354 254.742 C 53.029 254.216,53.321 254.106,55.241 254.034 C 56.561 253.984,57.031 254.112,57.031 254.522 M77.639 254.590 C 77.739 254.896,77.423 255.078,76.790 255.078 C 76.134 255.078,75.781 254.864,75.781 254.465 C 75.781 253.730,77.391 253.839,77.639 254.590 M38.591 256.039 C 38.707 256.155,35.037 256.247,30.436 256.244 C 25.835 256.241,22.273 256.109,22.521 255.951 C 23.029 255.628,38.263 255.711,38.591 256.039 M74.380 255.705 C 76.109 256.369,73.791 256.641,66.406 256.641 C 59.174 256.641,56.720 256.364,58.298 255.728 C 59.004 255.444,73.644 255.423,74.380 255.705 M38.589 258.025 C 38.472 258.142,34.818 258.238,30.469 258.238 C 26.119 258.238,22.465 258.142,22.348 258.025 C 22.231 257.908,25.885 257.813,30.469 257.813 C 35.052 257.813,38.706 257.908,38.589 258.025 M21.094 259.597 C 21.094 260.005,20.809 260.169,20.245 260.086 C 18.995 259.902,18.861 258.984,20.085 258.984 C 20.741 258.984,21.094 259.199,21.094 259.597 M41.701 259.473 C 41.454 260.224,39.844 260.332,39.844 259.597 C 39.844 259.199,40.196 258.984,40.853 258.984 C 41.486 258.984,41.802 259.167,41.701 259.473 M17.969 261.110 C 17.969 261.732,17.260 262.312,16.918 261.970 C 16.597 261.649,17.098 260.547,17.566 260.547 C 17.787 260.547,17.969 260.800,17.969 261.110 M41.404 261.426 C 44.679 263.093,44.988 264.279,44.847 274.609 C 44.664 287.980,44.553 288.081,30.202 288.009 C 16.077 287.937,15.924 287.781,16.099 273.601 L 16.211 264.586 17.258 263.214 C 19.183 260.692,19.801 260.566,30.288 260.556 C 39.263 260.547,39.754 260.586,41.404 261.426 M44.018 261.292 C 44.125 261.702,44.548 262.125,44.958 262.232 C 45.782 262.447,45.988 263.285,45.215 263.275 C 44.619 263.266,42.969 261.580,42.969 260.980 C 42.969 260.250,43.811 260.500,44.018 261.292 M16.797 262.452 C 16.797 262.945,15.650 263.827,15.372 263.549 C 14.972 263.149,15.569 262.109,16.199 262.109 C 16.528 262.109,16.797 262.264,16.797 262.452 M14.486 273.882 C 14.475 285.019,14.496 284.157,14.244 283.905 C 14.087 283.749,13.963 271.282,14.055 264.876 C 14.059 264.572,14.160 264.420,14.279 264.540 C 14.398 264.659,14.492 268.863,14.486 273.882 M47.266 274.251 C 47.266 281.916,47.159 284.014,46.777 283.887 C 46.289 283.725,45.817 266.127,46.269 264.949 C 47.025 262.981,47.266 265.232,47.266 274.251 M22.049 266.907 C 21.943 267.183,21.905 270.654,21.964 274.622 L 22.070 281.836 30.469 281.836 L 38.867 281.836 38.978 275.000 C 39.136 265.334,40.200 266.406,30.449 266.406 C 24.133 266.406,22.197 266.522,22.049 266.907 M38.176 274.219 L 38.176 280.382 30.469 280.382 L 22.762 280.382 22.762 274.219 L 22.762 268.056 30.469 268.056 L 38.176 268.056 38.176 274.219 M24.141 269.189 C 23.742 269.435,23.563 278.772,23.950 279.158 C 24.061 279.269,26.994 279.360,30.469 279.360 C 33.943 279.360,36.877 279.269,36.988 279.158 C 37.250 278.896,37.253 269.545,36.991 269.283 C 36.699 268.991,24.604 268.902,24.141 269.189 M16.896 285.902 C 18.013 287.086,18.274 287.891,17.542 287.891 C 17.307 287.891,17.027 287.555,16.920 287.145 C 16.812 286.736,16.389 286.313,15.980 286.205 C 15.570 286.098,15.234 285.731,15.234 285.388 C 15.234 284.480,15.685 284.620,16.896 285.902 M45.703 285.583 C 45.703 285.818,45.368 286.098,44.958 286.205 C 44.548 286.313,44.125 286.736,44.018 287.145 C 43.811 287.938,42.969 288.188,42.969 287.457 C 42.969 286.857,44.619 285.171,45.215 285.163 C 45.483 285.159,45.703 285.348,45.703 285.583 M21.094 288.867 C 21.094 289.232,20.725 289.453,20.117 289.453 C 19.169 289.453,18.870 289.073,19.401 288.542 C 19.892 288.050,21.094 288.281,21.094 288.867 M41.701 288.965 C 41.802 289.271,41.486 289.453,40.853 289.453 C 40.196 289.453,39.844 289.239,39.844 288.840 C 39.844 288.105,41.454 288.214,41.701 288.965 M38.442 290.080 C 40.172 290.744,37.854 291.016,30.469 291.016 C 23.237 291.016,20.783 290.739,22.361 290.103 C 23.066 289.819,37.707 289.798,38.442 290.080 M93.059 310.645 L 93.164 320.117 200.684 320.216 L 308.203 320.314 308.203 310.743 L 308.203 301.172 200.579 301.172 L 92.955 301.172 93.059 310.645 M306.952 310.935 L 306.952 319.524 200.817 319.524 L 94.683 319.524 94.705 311.032 L 94.727 302.539 200.839 302.442 L 306.952 302.345 306.952 310.935 M96.020 303.645 C 95.504 304.161,95.280 317.676,95.780 318.176 C 96.008 318.404,305.527 318.431,305.756 318.203 C 305.962 317.996,305.968 303.884,305.761 303.678 C 305.261 303.178,96.520 303.145,96.020 303.645 M141.569 304.684 C 141.766 304.686,141.834 304.780,141.721 304.893 C 141.573 305.042,106.874 305.198,100.781 305.078 C 100.382 305.070,100.339 304.975,100.646 304.779 C 100.979 304.567,124.471 304.513,141.569 304.684 M185.467 304.898 C 185.362 305.003,178.701 305.091,170.665 305.093 C 153.105 305.098,154.780 305.132,155.333 304.779 C 155.824 304.467,185.780 304.584,185.467 304.898 M227.677 304.875 C 227.416 305.136,196.046 305.161,195.785 304.900 C 195.668 304.783,202.839 304.688,211.719 304.688 C 220.599 304.688,227.780 304.772,227.677 304.875 M99.609 306.172 C 99.609 306.576,98.764 307.422,98.359 307.422 C 98.188 307.422,98.047 307.070,98.047 306.641 C 98.047 306.120,98.307 305.859,98.828 305.859 C 99.258 305.859,99.609 306.000,99.609 306.172 M144.141 306.474 C 144.141 306.838,143.875 307.037,143.489 306.962 C 142.509 306.772,142.375 305.859,143.327 305.859 C 143.807 305.859,144.141 306.112,144.141 306.474 M154.199 306.348 C 153.953 307.087,152.734 307.192,152.734 306.474 C 152.734 306.112,153.068 305.859,153.548 305.859 C 154.026 305.859,154.295 306.061,154.199 306.348 M187.891 309.938 C 187.891 313.390,187.498 314.859,186.955 313.442 C 186.648 312.642,186.649 307.669,186.956 306.868 C 187.534 305.360,187.891 306.530,187.891 309.938 M194.294 306.868 C 194.601 307.669,194.602 312.642,194.295 313.442 C 193.752 314.859,193.359 313.390,193.359 309.938 C 193.359 306.530,193.716 305.360,194.294 306.868 M230.078 309.938 C 230.078 313.390,229.686 314.859,229.142 313.442 C 228.835 312.642,228.836 307.669,229.143 306.868 C 229.722 305.360,230.078 306.530,230.078 309.938 M142.561 307.780 C 143.021 308.640,143.059 311.153,142.629 312.247 C 142.340 312.982,100.454 313.475,99.732 312.753 C 99.121 312.142,99.136 308.342,99.751 307.727 C 100.817 306.661,141.989 306.712,142.561 307.780 M185.405 307.466 C 186.004 307.963,186.134 311.585,185.584 312.453 C 185.080 313.249,155.153 313.246,154.648 312.449 C 154.258 311.833,154.174 307.675,154.544 307.305 C 155.015 306.834,184.831 306.990,185.405 307.466 M227.148 310.142 L 227.148 313.058 211.974 313.072 C 194.826 313.088,196.028 313.287,195.788 310.388 C 195.492 306.823,194.414 307.041,211.855 307.140 L 227.148 307.227 227.148 310.142 M97.410 309.959 C 97.447 310.739,97.344 311.586,97.182 311.841 C 97.020 312.096,96.884 311.353,96.881 310.189 C 96.874 307.869,97.303 307.683,97.410 309.959 M145.703 310.189 C 145.703 311.602,145.562 312.128,145.215 312.014 C 144.692 311.843,144.339 309.659,144.687 308.752 C 145.153 307.536,145.703 308.314,145.703 310.189 M152.148 310.156 C 152.148 311.163,151.951 311.915,151.660 312.012 C 151.312 312.128,151.172 311.597,151.172 310.156 C 151.172 308.715,151.312 308.185,151.660 308.301 C 151.951 308.398,152.148 309.149,152.148 310.156 M99.150 313.802 C 99.224 314.187,99.025 314.453,98.661 314.453 C 98.299 314.453,98.047 314.119,98.047 313.639 C 98.047 312.687,98.960 312.822,99.150 313.802 M144.141 313.867 C 144.141 314.189,143.877 314.453,143.555 314.453 C 143.232 314.453,142.969 314.189,142.969 313.867 C 142.969 313.545,143.232 313.281,143.555 313.281 C 143.877 313.281,144.141 313.545,144.141 313.867 M153.906 313.867 C 153.906 314.189,153.643 314.453,153.320 314.453 C 152.998 314.453,152.734 314.189,152.734 313.867 C 152.734 313.545,152.998 313.281,153.320 313.281 C 153.643 313.281,153.906 313.545,153.906 313.867 M141.567 315.080 C 143.563 315.846,139.848 316.016,121.094 316.016 C 102.488 316.016,98.645 315.845,100.486 315.103 C 101.190 314.819,140.829 314.797,141.567 315.080 M185.320 315.081 C 187.300 315.841,184.537 316.016,170.531 316.016 C 156.720 316.016,153.400 315.818,155.173 315.103 C 155.879 314.819,184.581 314.797,185.320 315.081 M227.507 315.081 C 229.502 315.846,226.641 316.016,211.719 316.016 C 196.902 316.016,193.957 315.847,195.801 315.102 C 196.505 314.818,226.769 314.798,227.507 315.081 M397.266 320.540 C 397.266 321.764,396.348 321.630,396.164 320.380 C 396.081 319.816,396.245 319.531,396.653 319.531 C 397.051 319.531,397.266 319.884,397.266 320.540 M5.398 321.942 C 5.214 323.193,4.297 323.327,4.297 322.103 C 4.297 321.446,4.511 321.094,4.910 321.094 C 5.317 321.094,5.481 321.379,5.398 321.942 M395.703 323.059 C 395.703 323.281,395.422 323.570,395.078 323.702 C 394.734 323.834,394.057 324.338,393.572 324.822 C 393.088 325.307,392.584 325.984,392.452 326.328 C 392.320 326.672,392.031 326.953,391.809 326.953 C 390.999 326.953,391.445 326.041,393.066 324.380 C 394.669 322.738,395.703 322.220,395.703 323.059 M7.031 324.805 C 7.031 325.127,6.768 325.391,6.445 325.391 C 6.123 325.391,5.859 325.127,5.859 324.805 C 5.859 324.482,6.123 324.219,6.445 324.219 C 6.768 324.219,7.031 324.482,7.031 324.805 M10.156 326.367 C 10.156 326.732,9.787 326.953,9.180 326.953 C 8.231 326.953,7.932 326.573,8.464 326.042 C 8.955 325.550,10.156 325.781,10.156 326.367 M390.137 328.027 C 390.337 328.627,11.524 328.758,11.153 328.158 C 11.032 327.962,11.153 327.712,11.423 327.603 C 12.632 327.115,389.974 327.538,390.137 328.027 " stroke="none" fill="#363a50" fill-rule="evenodd"></path><path id="path1" d="M13.685 74.259 C 9.082 74.845,5.752 78.273,5.285 82.907 C 4.570 90.004,5.263 318.534,6.005 320.026 C 7.019 322.068,10.280 324.906,12.040 325.281 C 12.830 325.449,97.852 325.586,200.977 325.586 L 388.477 325.586 390.430 324.550 C 392.739 323.326,393.743 322.297,394.930 319.933 L 395.807 318.187 395.767 199.867 C 395.728 81.880,395.725 81.543,394.936 79.912 C 393.109 76.138,390.767 74.674,385.792 74.198 C 381.267 73.765,17.098 73.825,13.685 74.259 M388.388 79.789 C 390.750 81.337,390.801 81.679,390.948 96.947 C 391.028 105.248,390.934 111.154,390.714 111.546 C 390.384 112.136,389.455 112.201,381.989 112.161 C 377.393 112.136,372.622 112.114,371.387 112.112 L 369.141 112.109 369.141 107.227 L 369.141 102.344 368.066 102.317 C 361.095 102.147,309.269 102.319,309.075 102.514 C 308.931 102.658,308.856 104.656,308.909 106.954 C 309.036 112.449,309.167 112.305,304.018 112.305 C 301.701 112.305,265.659 112.261,223.926 112.207 L 148.047 112.109 148.047 107.436 C 148.047 103.372,147.958 102.718,147.363 102.429 C 146.987 102.245,133.496 102.145,117.383 102.204 L 88.086 102.313 87.815 103.598 C 87.667 104.305,87.545 106.422,87.544 108.303 C 87.542 112.699,87.971 112.404,81.750 112.287 C 78.789 112.231,74.038 112.168,71.191 112.147 L 66.016 112.109 66.016 107.052 L 66.016 101.994 38.678 101.964 C 23.643 101.947,11.066 101.828,10.730 101.699 C 10.194 101.493,10.133 100.276,10.235 91.773 L 10.352 82.081 11.509 80.874 C 12.145 80.210,13.200 79.511,13.853 79.321 C 16.463 78.559,387.218 79.022,388.388 79.789 M19.043 86.209 C 18.329 86.393,18.116 88.309,18.606 90.137 L 18.841 91.016 39.844 91.016 L 60.847 91.016 61.120 88.834 C 61.270 87.635,61.326 86.586,61.245 86.505 C 61.029 86.289,19.851 86.000,19.043 86.209 M70.990 86.172 C 70.832 86.329,70.703 87.484,70.703 88.737 L 70.703 91.016 82.593 91.016 L 94.483 91.016 94.746 89.263 C 95.158 86.519,94.966 86.332,91.711 86.304 C 90.147 86.290,84.909 86.190,80.072 86.082 C 75.234 85.974,71.147 86.014,70.990 86.172 M181.856 86.243 C 181.737 86.362,181.641 87.484,181.641 88.737 L 181.641 91.016 202.693 91.016 C 226.255 91.016,224.219 91.296,224.219 88.054 L 224.219 86.328 221.582 86.309 C 189.718 86.076,182.035 86.064,181.856 86.243 M343.066 86.248 C 339.928 86.375,339.823 86.519,340.479 89.798 L 340.724 91.022 361.866 90.921 L 383.008 90.820 383.125 88.574 C 383.235 86.463,383.188 86.327,382.344 86.302 C 378.945 86.202,345.342 86.155,343.066 86.248 M300.550 104.835 C 300.437 105.131,300.398 106.229,300.465 107.276 L 300.586 109.180 303.223 109.295 L 305.859 109.411 305.859 106.854 L 305.859 104.297 303.308 104.297 C 301.502 104.297,300.696 104.454,300.550 104.835 M60.938 112.285 L 61.133 117.344 74.077 117.232 C 82.352 117.161,87.108 117.260,87.262 117.508 C 87.425 117.773,87.653 307.425,87.506 320.232 C 87.495 321.134,14.272 320.729,12.604 319.818 C 9.949 318.367,10.161 327.677,10.156 212.231 C 10.154 154.693,10.153 107.484,10.154 107.321 C 10.155 107.159,21.538 107.071,35.449 107.126 L 60.742 107.227 60.938 112.285 M142.883 112.207 C 142.962 115.804,143.125 117.188,143.469 117.191 C 143.731 117.193,180.991 117.191,226.270 117.188 L 308.594 117.180 308.637 125.680 C 309.062 208.540,308.740 295.358,308.008 295.534 C 307.578 295.637,258.975 295.673,200.000 295.614 L 92.773 295.508 92.673 201.758 C 92.618 150.195,92.657 107.787,92.760 107.517 C 92.908 107.128,98.136 107.046,117.860 107.126 L 142.773 107.227 142.883 112.207 M364.063 112.270 L 364.258 117.313 377.539 117.348 L 390.820 117.383 390.820 216.797 C 390.820 325.433,390.974 318.500,388.542 319.831 C 387.082 320.629,314.633 321.288,314.123 320.508 C 313.813 320.035,313.556 109.161,313.863 107.907 L 314.079 107.025 338.973 107.126 L 363.867 107.227 364.063 112.270 M319.692 132.566 C 319.579 132.860,319.541 134.047,319.607 135.203 L 319.727 137.305 321.612 137.425 C 324.191 137.589,324.742 137.061,324.509 134.641 C 324.408 133.590,324.082 132.575,323.784 132.386 C 322.905 131.830,319.924 131.961,319.692 132.566 M329.872 134.059 C 329.351 137.850,327.422 137.517,349.713 137.493 C 370.965 137.470,370.330 137.541,370.285 135.206 C 370.226 132.169,372.032 132.425,349.919 132.320 L 330.124 132.227 329.872 134.059 M326.432 144.401 C 325.958 144.875,326.162 148.275,326.709 149.023 C 327.788 150.499,331.024 149.395,331.180 147.498 C 331.419 144.570,331.111 144.141,328.769 144.141 C 327.627 144.141,326.576 144.258,326.432 144.401 M336.979 144.401 C 336.836 144.544,336.719 145.687,336.719 146.940 L 336.719 149.219 356.836 149.219 L 376.953 149.219 376.953 146.680 L 376.953 144.141 357.096 144.141 C 346.175 144.141,337.122 144.258,336.979 144.401 M326.432 155.339 C 325.104 156.667,326.540 160.547,328.360 160.547 C 331.040 160.547,331.855 159.132,331.004 155.957 C 330.769 155.081,327.176 154.595,326.432 155.339 M336.979 155.339 C 336.836 155.482,336.719 156.624,336.719 157.878 L 336.719 160.156 356.218 160.156 C 366.943 160.156,375.995 160.263,376.335 160.393 C 376.863 160.596,376.953 160.225,376.953 157.854 L 376.953 155.078 357.096 155.078 C 346.175 155.078,337.122 155.195,336.979 155.339 M326.449 166.259 C 326.110 166.598,326.094 169.006,326.423 170.233 C 326.642 171.052,326.852 171.120,328.859 171.014 L 331.055 170.898 331.055 168.555 L 331.055 166.211 328.891 166.096 C 327.701 166.033,326.602 166.106,326.449 166.259 M336.719 168.555 L 336.719 171.094 356.836 171.094 L 376.953 171.094 376.953 168.555 L 376.953 166.016 356.836 166.016 L 336.719 166.016 336.719 168.555 M19.685 227.308 C 16.666 228.679,16.330 230.050,16.477 240.386 C 16.657 253.073,16.463 252.876,28.964 253.049 C 44.660 253.266,44.741 253.186,44.471 237.785 L 44.336 230.128 43.164 228.896 C 40.987 226.608,40.735 226.562,30.586 226.571 C 22.359 226.579,21.104 226.664,19.685 227.308 M55.273 227.110 C 52.298 228.424,51.838 230.184,51.881 240.077 C 51.937 253.026,52.049 253.130,65.905 253.116 C 79.904 253.103,80.084 252.932,80.070 239.688 C 80.060 230.822,79.751 229.498,77.252 227.591 L 75.903 226.563 66.174 226.578 C 58.979 226.589,56.140 226.728,55.273 227.110 M74.690 232.148 C 75.264 233.052,75.057 247.123,74.462 247.616 C 74.087 247.928,71.405 248.031,65.575 247.957 L 57.227 247.852 57.227 239.844 L 57.227 231.836 59.570 231.641 C 63.842 231.285,74.366 231.638,74.690 232.148 M39.207 232.520 C 39.520 233.687,39.520 245.270,39.208 246.834 L 38.962 248.062 30.321 247.957 L 21.680 247.852 21.573 240.246 C 21.515 236.063,21.553 232.415,21.659 232.140 C 22.061 231.092,38.922 231.456,39.207 232.520 M19.922 261.549 C 16.856 262.829,16.602 263.796,16.602 274.191 C 16.602 287.804,16.288 287.500,30.330 287.500 C 44.335 287.500,44.268 287.557,44.464 275.591 C 44.703 261.018,44.610 260.924,30.033 260.958 C 23.284 260.973,20.977 261.108,19.922 261.549 M39.209 267.236 C 39.566 269.019,39.496 281.359,39.126 281.941 C 38.884 282.323,36.838 282.413,30.246 282.332 L 21.680 282.227 21.569 275.000 C 21.413 264.867,20.280 266.016,30.427 266.016 L 38.965 266.016 39.209 267.236 M308.672 310.449 C 308.746 316.581,308.646 320.222,308.398 320.405 C 308.184 320.563,259.580 320.651,200.391 320.600 L 92.773 320.508 92.669 310.645 L 92.565 300.781 200.560 300.781 L 308.555 300.781 308.672 310.449 M120.818 307.718 L 100.034 307.819 99.813 309.085 C 99.691 309.782,99.734 310.858,99.909 311.477 L 100.227 312.603 121.101 312.527 C 132.582 312.486,142.029 312.398,142.094 312.333 C 142.565 311.862,142.598 308.324,142.134 307.995 C 141.803 307.760,133.740 307.655,120.818 307.718 M169.824 307.719 L 154.688 307.822 154.688 309.942 C 154.688 311.124,154.887 312.187,155.139 312.342 C 155.589 312.620,184.821 312.575,185.100 312.296 C 185.449 311.947,185.608 308.640,185.299 308.152 C 185.021 307.711,182.296 307.635,169.824 307.719 M196.720 307.928 C 194.803 309.335,196.449 313.071,198.828 312.714 C 199.580 312.601,206.216 312.507,213.574 312.504 L 226.953 312.500 226.953 310.156 L 226.953 307.813 212.988 307.807 C 205.308 307.804,198.672 307.708,198.242 307.593 C 197.813 307.478,197.127 307.629,196.720 307.928 " stroke="none" fill="#f6f7fa" fill-rule="evenodd"></path><path id="path2" d="M26.270 73.730 C 29.438 73.795,34.624 73.795,37.793 73.730 C 40.962 73.664,38.369 73.610,32.031 73.610 C 25.693 73.610,23.101 73.664,26.270 73.730 M62.025 73.726 C 63.160 73.805,64.918 73.804,65.931 73.724 C 66.944 73.644,66.016 73.579,63.867 73.580 C 61.719 73.581,60.890 73.647,62.025 73.726 M314.551 73.726 C 315.786 73.804,317.808 73.804,319.043 73.726 C 320.278 73.649,319.268 73.585,316.797 73.585 C 314.326 73.585,313.315 73.649,314.551 73.726 M326.660 73.707 C 327.036 73.805,327.651 73.805,328.027 73.707 C 328.403 73.609,328.096 73.528,327.344 73.528 C 326.592 73.528,326.284 73.609,326.660 73.707 M364.143 73.727 C 365.584 73.802,368.045 73.802,369.612 73.728 C 371.179 73.654,370.000 73.592,366.992 73.592 C 363.984 73.591,362.702 73.652,364.143 73.727 M374.907 73.714 C 375.393 73.807,376.096 73.804,376.469 73.706 C 376.843 73.608,376.445 73.532,375.586 73.536 C 374.727 73.540,374.421 73.620,374.907 73.714 M10.322 92.188 C 10.322 96.807,10.379 98.696,10.448 96.387 C 10.517 94.077,10.517 90.298,10.448 87.988 C 10.379 85.679,10.322 87.568,10.322 92.188 M18.059 87.891 C 18.059 88.643,18.140 88.950,18.238 88.574 C 18.336 88.198,18.336 87.583,18.238 87.207 C 18.140 86.831,18.059 87.139,18.059 87.891 M40.723 91.295 C 41.313 91.385,42.280 91.385,42.871 91.295 C 43.462 91.206,42.979 91.133,41.797 91.133 C 40.615 91.133,40.132 91.206,40.723 91.295 M192.485 91.292 C 192.971 91.385,193.674 91.382,194.048 91.284 C 194.421 91.186,194.023 91.110,193.164 91.114 C 192.305 91.118,191.999 91.198,192.485 91.292 M195.410 91.285 C 195.786 91.383,196.401 91.383,196.777 91.285 C 197.153 91.187,196.846 91.106,196.094 91.106 C 195.342 91.106,195.034 91.187,195.410 91.285 M198.535 91.285 C 198.911 91.383,199.526 91.383,199.902 91.285 C 200.278 91.187,199.971 91.106,199.219 91.106 C 198.467 91.106,198.159 91.187,198.535 91.285 M31.348 101.851 C 32.583 101.929,34.604 101.929,35.840 101.851 C 37.075 101.774,36.064 101.710,33.594 101.710 C 31.123 101.710,30.112 101.774,31.348 101.851 M44.604 101.855 C 48.189 101.919,54.165 101.919,57.885 101.855 C 61.605 101.791,58.672 101.738,51.367 101.738 C 44.063 101.738,41.019 101.790,44.604 101.855 M88.972 101.846 C 89.674 101.933,90.729 101.931,91.316 101.842 C 91.903 101.752,91.328 101.681,90.039 101.684 C 88.750 101.686,88.270 101.759,88.972 101.846 M66.166 107.031 C 66.166 109.717,66.229 110.815,66.305 109.473 C 66.381 108.130,66.381 105.933,66.305 104.590 C 66.229 103.247,66.166 104.346,66.166 107.031 M22.754 107.324 C 29.575 107.384,40.737 107.384,47.559 107.324 C 54.380 107.264,48.799 107.215,35.156 107.215 C 21.514 107.215,15.933 107.264,22.754 107.324 M142.712 110.742 C 142.713 112.461,142.782 113.115,142.865 112.197 C 142.947 111.278,142.946 109.872,142.862 109.072 C 142.778 108.272,142.711 109.023,142.712 110.742 M10.349 212.109 C 10.349 268.936,10.394 292.183,10.449 263.770 C 10.505 235.356,10.505 188.862,10.449 160.449 C 10.394 132.036,10.349 155.283,10.349 212.109 M302.056 109.655 C 302.650 109.745,303.529 109.743,304.009 109.650 C 304.490 109.557,304.004 109.484,302.930 109.487 C 301.855 109.490,301.462 109.566,302.056 109.655 M308.395 209.766 C 308.395 254.346,308.440 272.583,308.496 250.293 C 308.552 228.003,308.552 191.528,308.496 169.238 C 308.440 146.948,308.395 165.186,308.395 209.766 M324.708 135.352 C 324.712 136.211,324.792 136.517,324.886 136.031 C 324.979 135.545,324.976 134.842,324.878 134.468 C 324.780 134.095,324.704 134.492,324.708 135.352 M330.957 137.769 C 331.333 137.868,331.948 137.868,332.324 137.769 C 332.700 137.671,332.393 137.591,331.641 137.591 C 330.889 137.591,330.581 137.671,330.957 137.769 M327.441 149.879 C 327.817 149.977,328.433 149.977,328.809 149.879 C 329.185 149.780,328.877 149.700,328.125 149.700 C 327.373 149.700,327.065 149.780,327.441 149.879 M346.777 154.980 C 351.987 155.042,360.513 155.042,365.723 154.980 C 370.933 154.919,366.670 154.868,356.250 154.868 C 345.830 154.868,341.567 154.919,346.777 154.980 M331.349 168.555 C 331.353 169.414,331.433 169.720,331.526 169.234 C 331.620 168.748,331.616 168.045,331.518 167.671 C 331.421 167.298,331.344 167.695,331.349 168.555 M347.976 171.386 C 353.201 171.448,361.639 171.448,366.726 171.386 C 371.814 171.325,367.539 171.274,357.227 171.274 C 346.914 171.274,342.751 171.325,347.976 171.386 M22.363 226.441 C 22.739 226.539,23.354 226.539,23.730 226.441 C 24.106 226.343,23.799 226.263,23.047 226.263 C 22.295 226.263,21.987 226.343,22.363 226.441 M57.129 226.441 C 57.505 226.539,58.120 226.539,58.496 226.441 C 58.872 226.343,58.564 226.263,57.813 226.263 C 57.061 226.263,56.753 226.343,57.129 226.441 M21.642 238.672 C 21.642 242.002,21.702 243.364,21.775 241.699 C 21.848 240.034,21.848 237.310,21.775 235.645 C 21.702 233.979,21.642 235.342,21.642 238.672 M44.693 239.648 C 44.693 243.516,44.752 245.045,44.823 243.047 C 44.894 241.048,44.893 237.884,44.822 236.015 C 44.750 234.146,44.692 235.781,44.693 239.648 M80.234 239.648 C 80.235 242.871,80.295 244.137,80.369 242.463 C 80.442 240.788,80.442 238.151,80.368 236.603 C 80.294 235.055,80.234 236.426,80.234 239.648 M16.114 246.289 C 16.118 247.148,16.198 247.454,16.292 246.968 C 16.385 246.482,16.382 245.779,16.284 245.406 C 16.186 245.032,16.110 245.430,16.114 246.289 M35.454 247.933 C 35.940 248.026,36.643 248.022,37.016 247.925 C 37.390 247.827,36.992 247.750,36.133 247.755 C 35.273 247.759,34.968 247.839,35.454 247.933 M58.301 247.926 C 58.677 248.024,59.292 248.024,59.668 247.926 C 60.044 247.827,59.736 247.747,58.984 247.747 C 58.232 247.747,57.925 247.827,58.301 247.926 M25.293 253.416 C 27.495 253.486,31.099 253.486,33.301 253.416 C 35.503 253.347,33.701 253.290,29.297 253.290 C 24.893 253.290,23.091 253.347,25.293 253.416 M59.683 253.415 C 61.034 253.491,63.144 253.490,64.371 253.413 C 65.598 253.336,64.492 253.273,61.914 253.274 C 59.336 253.275,58.332 253.338,59.683 253.415 M68.652 253.413 C 69.780 253.492,71.626 253.492,72.754 253.413 C 73.882 253.334,72.959 253.270,70.703 253.270 C 68.447 253.270,67.524 253.334,68.652 253.413 M26.074 266.307 C 28.276 266.377,31.880 266.377,34.082 266.307 C 36.284 266.237,34.482 266.180,30.078 266.180 C 25.674 266.180,23.872 266.237,26.074 266.307 M44.694 274.414 C 44.694 278.496,44.752 280.113,44.823 278.007 C 44.893 275.901,44.893 272.561,44.822 270.585 C 44.751 268.609,44.694 270.332,44.694 274.414 M21.623 277.148 C 21.622 279.082,21.688 279.922,21.770 279.016 C 21.852 278.109,21.853 276.527,21.772 275.500 C 21.691 274.473,21.624 275.215,21.623 277.148 M16.114 280.664 C 16.118 281.523,16.198 281.829,16.292 281.343 C 16.385 280.857,16.382 280.154,16.284 279.781 C 16.186 279.407,16.110 279.805,16.114 280.664 M134.668 301.074 C 156.851 301.130,193.149 301.130,215.332 301.074 C 237.515 301.018,219.365 300.973,175.000 300.973 C 130.635 300.973,112.485 301.018,134.668 301.074 M281.815 301.073 C 302.112 301.154,308.042 301.286,308.309 301.663 C 308.562 302.020,308.611 301.993,308.493 301.563 C 308.353 301.049,305.073 300.976,281.999 300.972 L 255.664 300.968 281.815 301.073 M308.363 311.133 C 308.363 314.785,308.421 316.332,308.493 314.570 C 308.566 312.808,308.566 309.820,308.494 307.929 C 308.422 306.039,308.363 307.480,308.363 311.133 M185.638 310.156 C 185.638 310.908,185.718 311.216,185.816 310.840 C 185.914 310.464,185.914 309.849,185.816 309.473 C 185.718 309.097,185.638 309.404,185.638 310.156 M15.527 326.057 C 16.011 326.150,16.802 326.150,17.285 326.057 C 17.769 325.964,17.373 325.888,16.406 325.888 C 15.439 325.888,15.044 325.964,15.527 326.057 M19.238 326.061 C 19.829 326.151,20.796 326.151,21.387 326.061 C 21.978 325.972,21.494 325.898,20.313 325.898 C 19.131 325.898,18.647 325.972,19.238 326.061 M25.488 326.071 C 26.938 326.146,29.312 326.146,30.762 326.071 C 32.212 325.996,31.025 325.934,28.125 325.934 C 25.225 325.934,24.038 325.996,25.488 326.071 M34.277 326.057 C 34.761 326.150,35.552 326.150,36.035 326.057 C 36.519 325.964,36.123 325.888,35.156 325.888 C 34.189 325.888,33.794 325.964,34.277 326.057 M47.754 326.074 C 53.716 326.135,63.472 326.135,69.434 326.074 C 75.396 326.013,70.518 325.964,58.594 325.964 C 46.670 325.964,41.792 326.013,47.754 326.074 M82.715 326.057 C 83.198 326.150,83.989 326.150,84.473 326.057 C 84.956 325.964,84.561 325.888,83.594 325.888 C 82.627 325.888,82.231 325.964,82.715 326.057 M86.035 326.051 C 86.411 326.149,87.026 326.149,87.402 326.051 C 87.778 325.952,87.471 325.872,86.719 325.872 C 85.967 325.872,85.659 325.952,86.035 326.051 M93.848 326.073 C 96.802 326.140,101.636 326.140,104.590 326.073 C 107.544 326.007,105.127 325.953,99.219 325.953 C 93.311 325.953,90.894 326.007,93.848 326.073 M111.237 326.064 C 111.940 326.151,112.994 326.149,113.581 326.060 C 114.168 325.971,113.594 325.900,112.305 325.902 C 111.016 325.904,110.535 325.977,111.237 326.064 M120.219 326.058 C 120.705 326.151,121.408 326.147,121.782 326.050 C 122.155 325.952,121.758 325.875,120.898 325.880 C 120.039 325.884,119.733 325.964,120.219 326.058 M123.344 326.058 C 123.830 326.151,124.533 326.147,124.907 326.050 C 125.280 325.952,124.883 325.875,124.023 325.880 C 123.164 325.884,122.858 325.964,123.344 326.058 M140.332 326.072 C 142.212 326.144,145.288 326.144,147.168 326.072 C 149.048 326.000,147.510 325.942,143.750 325.942 C 139.990 325.942,138.452 326.000,140.332 326.072 M161.035 326.051 C 161.411 326.149,162.026 326.149,162.402 326.051 C 162.778 325.952,162.471 325.872,161.719 325.872 C 160.967 325.872,160.659 325.952,161.035 326.051 M164.551 326.061 C 165.142 326.151,166.108 326.151,166.699 326.061 C 167.290 325.972,166.807 325.898,165.625 325.898 C 164.443 325.898,163.960 325.972,164.551 326.061 M203.223 326.072 C 205.317 326.143,208.745 326.143,210.840 326.072 C 212.935 326.002,211.221 325.945,207.031 325.945 C 202.842 325.945,201.128 326.002,203.223 326.072 M216.712 326.070 C 217.847 326.149,219.605 326.148,220.619 326.068 C 221.632 325.988,220.703 325.923,218.555 325.924 C 216.406 325.925,215.577 325.991,216.712 326.070 M227.051 326.071 C 228.501 326.146,230.874 326.146,232.324 326.071 C 233.774 325.996,232.588 325.934,229.688 325.934 C 226.787 325.934,225.601 325.996,227.051 326.071 M238.770 326.068 C 239.790 326.149,241.460 326.149,242.480 326.068 C 243.501 325.988,242.666 325.922,240.625 325.922 C 238.584 325.922,237.749 325.988,238.770 326.068 M246.191 326.066 C 246.997 326.150,248.315 326.150,249.121 326.066 C 249.927 325.982,249.268 325.913,247.656 325.913 C 246.045 325.913,245.386 325.982,246.191 326.066 M262.798 326.058 C 263.283 326.151,263.987 326.147,264.360 326.050 C 264.733 325.952,264.336 325.875,263.477 325.880 C 262.617 325.884,262.312 325.964,262.798 326.058 M265.723 326.051 C 266.099 326.149,266.714 326.149,267.090 326.051 C 267.466 325.952,267.158 325.872,266.406 325.872 C 265.654 325.872,265.347 325.952,265.723 326.051 M270.410 326.051 C 270.786 326.149,271.401 326.149,271.777 326.051 C 272.153 325.952,271.846 325.872,271.094 325.872 C 270.342 325.872,270.034 325.952,270.410 326.051 M288.969 326.058 C 289.455 326.151,290.158 326.147,290.532 326.050 C 290.905 325.952,290.508 325.875,289.648 325.880 C 288.789 325.884,288.483 325.964,288.969 326.058 M294.837 326.070 C 295.972 326.149,297.730 326.148,298.744 326.068 C 299.757 325.988,298.828 325.923,296.680 325.924 C 294.531 325.925,293.702 325.991,294.837 326.070 M306.176 326.073 C 309.250 326.140,314.172 326.139,317.113 326.073 C 320.055 326.007,317.539 325.953,311.523 325.953 C 305.508 325.953,303.101 326.007,306.176 326.073 M324.316 326.066 C 325.122 326.150,326.440 326.150,327.246 326.066 C 328.052 325.982,327.393 325.913,325.781 325.913 C 324.170 325.913,323.511 325.982,324.316 326.066 M331.348 326.070 C 332.583 326.147,334.604 326.147,335.840 326.070 C 337.075 325.992,336.064 325.929,333.594 325.929 C 331.123 325.929,330.112 325.992,331.348 326.070 M347.586 326.074 C 352.810 326.136,361.248 326.135,366.336 326.074 C 371.423 326.012,367.148 325.962,356.836 325.962 C 346.523 325.962,342.361 326.012,347.586 326.074 M377.051 326.061 C 377.642 326.151,378.608 326.151,379.199 326.061 C 379.790 325.972,379.307 325.898,378.125 325.898 C 376.943 325.898,376.460 325.972,377.051 326.061 M382.129 326.066 C 382.935 326.150,384.253 326.150,385.059 326.066 C 385.864 325.982,385.205 325.913,383.594 325.913 C 381.982 325.913,381.323 325.982,382.129 326.066 " stroke="none" fill="#9498ab" fill-rule="evenodd"></path><path id="path3" d="M13.969 74.104 C 14.455 74.198,15.158 74.194,15.532 74.097 C 15.905 73.999,15.508 73.922,14.648 73.927 C 13.789 73.931,13.483 74.011,13.969 74.104 M196.782 74.104 C 197.268 74.198,197.971 74.194,198.344 74.097 C 198.718 73.999,198.320 73.922,197.461 73.927 C 196.602 73.931,196.296 74.011,196.782 74.104 M202.051 74.113 C 202.856 74.197,204.175 74.197,204.980 74.113 C 205.786 74.028,205.127 73.959,203.516 73.959 C 201.904 73.959,201.245 74.028,202.051 74.113 M384.478 74.108 C 385.072 74.198,385.951 74.196,386.431 74.103 C 386.912 74.010,386.426 73.937,385.352 73.940 C 384.277 73.943,383.884 74.019,384.478 74.108 M107.551 79.199 C 158.648 79.254,242.144 79.254,293.098 79.199 C 344.052 79.145,302.246 79.100,200.195 79.100 C 98.145 79.100,56.455 79.145,107.551 79.199 M395.815 84.961 C 395.818 86.035,395.894 86.428,395.983 85.834 C 396.073 85.241,396.071 84.362,395.978 83.881 C 395.885 83.401,395.812 83.887,395.815 84.961 M4.880 199.609 C 4.880 263.096,4.925 289.067,4.980 257.324 C 5.036 225.581,5.036 173.638,4.980 141.895 C 4.925 110.151,4.880 136.123,4.880 199.609 M390.800 98.438 C 390.800 105.635,390.853 108.579,390.917 104.980 C 390.982 101.382,390.982 95.493,390.917 91.895 C 390.853 88.296,390.800 91.240,390.800 98.438 M34.863 86.207 C 35.239 86.305,35.854 86.305,36.230 86.207 C 36.606 86.109,36.299 86.028,35.547 86.028 C 34.795 86.028,34.487 86.109,34.863 86.207 M39.551 86.207 C 39.927 86.305,40.542 86.305,40.918 86.207 C 41.294 86.109,40.986 86.028,40.234 86.028 C 39.482 86.028,39.175 86.109,39.551 86.207 M45.020 86.228 C 46.685 86.301,49.409 86.301,51.074 86.228 C 52.739 86.155,51.377 86.095,48.047 86.095 C 44.717 86.095,43.354 86.155,45.020 86.228 M56.543 86.213 C 57.026 86.306,57.817 86.306,58.301 86.213 C 58.784 86.120,58.389 86.044,57.422 86.044 C 56.455 86.044,56.060 86.120,56.543 86.213 M70.471 86.479 C 70.357 86.776,70.322 87.787,70.394 88.725 C 70.520 90.375,70.531 90.357,70.712 88.183 C 70.901 85.903,70.845 85.504,70.471 86.479 M86.914 86.193 C 90.659 86.480,94.835 86.500,94.668 86.230 C 94.567 86.069,92.430 85.968,89.918 86.006 C 87.407 86.043,86.055 86.128,86.914 86.193 M181.408 86.479 C 181.294 86.776,181.260 87.787,181.331 88.725 C 181.458 90.375,181.468 90.357,181.649 88.183 C 181.839 85.903,181.782 85.504,181.408 86.479 M197.566 86.221 C 198.268 86.308,199.322 86.306,199.909 86.217 C 200.496 86.127,199.922 86.056,198.633 86.059 C 197.344 86.061,196.863 86.134,197.566 86.221 M202.051 86.207 C 202.427 86.305,203.042 86.305,203.418 86.207 C 203.794 86.109,203.486 86.028,202.734 86.028 C 201.982 86.028,201.675 86.109,202.051 86.207 M205.957 86.225 C 206.978 86.305,208.647 86.305,209.668 86.225 C 210.688 86.144,209.854 86.078,207.813 86.078 C 205.771 86.078,204.937 86.144,205.957 86.225 M219.816 86.219 C 220.509 86.306,221.739 86.307,222.550 86.223 C 223.360 86.138,222.793 86.067,221.289 86.066 C 219.785 86.064,219.122 86.133,219.816 86.219 M341.691 86.219 C 342.384 86.306,343.614 86.307,344.425 86.223 C 345.235 86.138,344.668 86.067,343.164 86.066 C 341.660 86.064,340.997 86.133,341.691 86.219 M372.173 86.214 C 372.658 86.307,373.362 86.304,373.735 86.206 C 374.108 86.108,373.711 86.032,372.852 86.036 C 371.992 86.040,371.687 86.120,372.173 86.214 M375.488 86.217 C 376.079 86.307,377.046 86.307,377.637 86.217 C 378.228 86.128,377.744 86.055,376.563 86.055 C 375.381 86.055,374.897 86.128,375.488 86.217 M224.309 87.891 C 224.309 88.643,224.390 88.950,224.488 88.574 C 224.586 88.198,224.586 87.583,224.488 87.207 C 224.390 86.831,224.309 87.139,224.309 87.891 M61.028 89.844 C 61.028 90.596,61.109 90.903,61.207 90.527 C 61.305 90.151,61.305 89.536,61.207 89.160 C 61.109 88.784,61.028 89.092,61.028 89.844 M94.562 90.131 L 94.531 91.004 82.715 91.113 L 70.898 91.223 82.727 91.315 C 95.103 91.410,95.440 91.367,94.794 89.759 C 94.684 89.483,94.579 89.651,94.562 90.131 M223.828 90.560 C 223.828 90.891,221.401 91.040,214.941 91.105 L 206.055 91.195 214.817 91.308 C 222.987 91.414,224.941 91.217,224.095 90.371 C 223.948 90.224,223.828 90.309,223.828 90.560 M22.754 91.307 C 24.849 91.377,28.276 91.377,30.371 91.307 C 32.466 91.237,30.752 91.179,26.563 91.179 C 22.373 91.179,20.659 91.237,22.754 91.307 M53.824 91.305 C 55.175 91.382,57.284 91.381,58.511 91.304 C 59.738 91.227,58.633 91.164,56.055 91.165 C 53.477 91.166,52.473 91.229,53.824 91.305 M183.703 91.303 C 184.730 91.384,186.312 91.383,187.219 91.301 C 188.125 91.219,187.285 91.153,185.352 91.154 C 183.418 91.155,182.676 91.222,183.703 91.303 M342.871 91.304 C 343.999 91.383,345.845 91.383,346.973 91.304 C 348.101 91.225,347.178 91.160,344.922 91.160 C 342.666 91.160,341.743 91.225,342.871 91.304 M350.879 91.300 C 351.685 91.384,353.003 91.384,353.809 91.300 C 354.614 91.216,353.955 91.147,352.344 91.147 C 350.732 91.147,350.073 91.216,350.879 91.300 M359.453 91.306 C 361.322 91.378,364.486 91.378,366.484 91.307 C 368.482 91.236,366.953 91.177,363.086 91.177 C 359.219 91.177,357.584 91.235,359.453 91.306 M373.358 91.307 C 375.141 91.379,377.954 91.379,379.608 91.306 C 381.263 91.233,379.805 91.173,376.367 91.174 C 372.930 91.174,371.576 91.234,373.358 91.307 M13.983 101.853 C 15.766 101.926,18.579 101.926,20.233 101.853 C 21.888 101.779,20.430 101.720,16.992 101.721 C 13.555 101.721,12.201 101.781,13.983 101.853 M96.995 102.245 C 99.531 102.313,103.574 102.313,105.979 102.245 C 108.384 102.176,106.309 102.120,101.367 102.121 C 96.426 102.121,94.458 102.177,96.995 102.245 M117.505 102.245 C 120.794 102.311,126.068 102.311,129.223 102.245 C 132.379 102.180,129.688 102.126,123.242 102.126 C 116.797 102.126,114.215 102.180,117.505 102.245 M308.854 102.214 C 308.711 102.357,308.596 102.664,308.600 102.897 C 308.603 103.158,308.721 103.139,308.907 102.846 C 309.105 102.535,310.682 102.328,313.491 102.245 L 317.773 102.119 313.444 102.036 C 311.063 101.990,308.997 102.070,308.854 102.214 M339.916 102.245 C 343.501 102.310,349.478 102.310,353.198 102.246 C 356.917 102.181,353.984 102.129,346.680 102.128 C 339.375 102.128,336.332 102.181,339.916 102.245 M360.844 102.229 C 361.330 102.323,362.033 102.319,362.407 102.222 C 362.780 102.124,362.383 102.047,361.523 102.052 C 360.664 102.056,360.358 102.136,360.844 102.229 M395.883 120.703 C 395.883 130.264,395.934 134.175,395.996 129.395 C 396.058 124.614,396.058 116.792,395.996 112.012 C 395.934 107.231,395.883 111.143,395.883 120.703 M300.646 104.199 C 300.547 104.360,301.283 104.440,302.283 104.375 C 305.136 104.192,305.482 104.001,303.050 103.952 C 301.828 103.927,300.746 104.038,300.646 104.199 M308.735 107.813 C 308.735 109.854,308.800 110.688,308.881 109.668 C 308.961 108.647,308.961 106.978,308.881 105.957 C 308.800 104.937,308.735 105.771,308.735 107.813 M148.190 108.398 C 148.191 110.547,148.256 111.376,148.335 110.241 C 148.414 109.106,148.414 107.348,148.333 106.335 C 148.253 105.321,148.189 106.250,148.190 108.398 M305.980 106.836 C 305.983 108.125,306.056 108.605,306.142 107.903 C 306.229 107.201,306.228 106.146,306.138 105.559 C 306.049 104.972,305.978 105.547,305.980 106.836 M300.099 107.227 C 300.103 108.086,300.183 108.392,300.276 107.906 C 300.370 107.420,300.366 106.717,300.268 106.343 C 300.171 105.970,300.094 106.367,300.099 107.227 M102.930 107.316 C 125.148 107.586,142.878 107.590,142.713 107.324 C 142.614 107.163,131.688 107.072,118.434 107.121 C 105.180 107.170,98.203 107.258,102.930 107.316 M327.470 107.324 C 334.091 107.384,344.814 107.384,351.298 107.324 C 357.781 107.264,352.363 107.215,339.258 107.215 C 326.152 107.215,320.848 107.264,327.470 107.324 M60.693 111.523 C 60.694 113.887,60.758 114.803,60.836 113.560 C 60.914 112.317,60.913 110.383,60.834 109.263 C 60.756 108.143,60.692 109.160,60.693 111.523 M313.864 212.109 C 313.864 269.580,313.910 293.091,313.965 264.355 C 314.020 235.620,314.020 188.599,313.965 159.863 C 313.910 131.128,313.864 154.639,313.864 212.109 M92.770 201.367 C 92.770 252.500,92.816 273.476,92.871 247.981 C 92.927 222.485,92.927 180.649,92.871 155.012 C 92.816 129.374,92.770 150.234,92.770 201.367 M363.816 112.891 C 363.816 115.146,363.881 116.069,363.960 114.941 C 364.039 113.813,364.039 111.968,363.960 110.840 C 363.881 109.712,363.816 110.635,363.816 112.891 M81.738 112.389 C 82.329 112.479,83.296 112.479,83.887 112.389 C 84.478 112.300,83.994 112.226,82.813 112.226 C 81.631 112.226,81.147 112.300,81.738 112.389 M300.488 112.389 C 301.079 112.479,302.046 112.479,302.637 112.389 C 303.228 112.300,302.744 112.226,301.563 112.226 C 300.381 112.226,299.897 112.300,300.488 112.389 M305.176 112.379 C 305.552 112.477,306.167 112.477,306.543 112.379 C 306.919 112.280,306.611 112.200,305.859 112.200 C 305.107 112.200,304.800 112.280,305.176 112.379 M142.731 115.399 C 142.761 116.752,142.947 117.369,143.359 117.480 C 143.764 117.589,143.803 117.536,143.484 117.308 C 143.230 117.127,142.948 116.191,142.856 115.228 L 142.689 113.477 142.731 115.399 M69.848 117.480 C 73.138 117.545,78.411 117.545,81.567 117.479 C 84.723 117.414,82.031 117.360,75.586 117.361 C 69.141 117.361,66.559 117.414,69.848 117.480 M185.613 117.480 C 208.101 117.536,245.015 117.536,267.645 117.480 C 290.274 117.425,271.875 117.379,226.758 117.379 C 181.641 117.379,163.126 117.425,185.613 117.480 M378.496 117.477 C 387.383 117.561,390.477 117.712,390.733 118.072 C 390.983 118.424,391.032 118.396,390.915 117.969 C 390.778 117.464,389.077 117.382,378.679 117.374 L 366.602 117.365 378.496 117.477 M390.801 132.813 C 390.801 140.439,390.853 143.560,390.917 139.746 C 390.981 135.933,390.981 129.692,390.917 125.879 C 390.853 122.065,390.801 125.186,390.801 132.813 M340.332 132.324 C 345.649 132.385,354.351 132.385,359.668 132.324 C 364.985 132.263,360.635 132.212,350.000 132.212 C 339.365 132.212,335.015 132.263,340.332 132.324 M319.258 134.766 C 319.258 135.947,319.331 136.431,319.420 135.840 C 319.510 135.249,319.510 134.282,319.420 133.691 C 319.331 133.101,319.258 133.584,319.258 134.766 M321.191 137.769 C 321.567 137.868,322.183 137.868,322.559 137.769 C 322.935 137.671,322.627 137.591,321.875 137.591 C 321.123 137.591,320.815 137.671,321.191 137.769 M395.815 140.820 C 395.818 141.895,395.894 142.288,395.983 141.694 C 396.073 141.100,396.071 140.221,395.978 139.741 C 395.885 139.260,395.812 139.746,395.815 140.820 M395.893 192.773 C 395.893 220.273,395.939 231.466,395.996 217.645 C 396.053 203.825,396.053 181.325,395.996 167.645 C 395.939 153.966,395.893 165.273,395.893 192.773 M308.715 145.508 C 308.717 146.797,308.790 147.277,308.877 146.575 C 308.964 145.873,308.962 144.818,308.873 144.231 C 308.784 143.644,308.713 144.219,308.715 145.508 M328.900 144.028 C 329.863 144.119,330.799 144.402,330.980 144.656 C 331.208 144.975,331.261 144.936,331.152 144.531 C 331.040 144.119,330.424 143.933,329.071 143.903 L 327.148 143.861 328.900 144.028 M347.363 144.043 C 352.466 144.104,360.815 144.104,365.918 144.043 C 371.021 143.981,366.846 143.930,356.641 143.930 C 346.436 143.930,342.261 143.981,347.363 144.043 M377.074 146.680 C 377.076 147.969,377.149 148.449,377.236 147.747 C 377.323 147.045,377.321 145.990,377.232 145.403 C 377.143 144.816,377.072 145.391,377.074 146.680 M336.440 146.680 C 336.443 147.754,336.519 148.147,336.608 147.553 C 336.698 146.959,336.696 146.081,336.603 145.600 C 336.510 145.120,336.437 145.605,336.440 146.680 M390.817 230.273 C 390.817 276.250,390.862 295.001,390.918 271.941 C 390.974 248.882,390.974 211.265,390.918 188.348 C 390.862 165.430,390.817 184.297,390.817 230.273 M346.973 149.511 C 352.505 149.573,361.558 149.573,367.090 149.511 C 372.622 149.450,368.096 149.400,357.031 149.400 C 345.967 149.400,341.440 149.450,346.973 149.511 M328.423 154.964 C 328.908 155.057,329.612 155.054,329.985 154.956 C 330.358 154.858,329.961 154.782,329.102 154.786 C 328.242 154.790,327.937 154.870,328.423 154.964 M377.060 157.422 C 377.060 158.389,377.136 158.784,377.229 158.301 C 377.322 157.817,377.322 157.026,377.229 156.543 C 377.136 156.060,377.060 156.455,377.060 157.422 M336.419 158.203 C 336.419 158.955,336.499 159.263,336.597 158.887 C 336.696 158.511,336.696 157.896,336.597 157.520 C 336.499 157.144,336.419 157.451,336.419 158.203 M346.777 160.449 C 352.202 160.510,361.079 160.510,366.504 160.449 C 371.929 160.388,367.490 160.338,356.641 160.338 C 345.791 160.338,341.353 160.388,346.777 160.449 M327.344 165.845 C 328.714 166.147,331.169 166.201,330.999 165.925 C 330.897 165.760,329.901 165.645,328.786 165.670 C 327.670 165.695,327.021 165.774,327.344 165.845 M347.000 165.918 C 352.547 165.979,361.512 165.979,366.922 165.918 C 372.332 165.856,367.793 165.806,356.836 165.806 C 345.879 165.806,341.453 165.857,347.000 165.918 M336.440 168.555 C 336.443 169.629,336.519 170.022,336.608 169.428 C 336.698 168.834,336.696 167.956,336.603 167.475 C 336.510 166.995,336.437 167.480,336.440 168.555 M377.070 168.750 C 377.070 169.932,377.143 170.415,377.233 169.824 C 377.322 169.233,377.322 168.267,377.233 167.676 C 377.143 167.085,377.070 167.568,377.070 168.750 M327.837 171.374 C 328.431 171.464,329.310 171.461,329.791 171.369 C 330.271 171.276,329.785 171.203,328.711 171.205 C 327.637 171.208,327.244 171.284,327.837 171.374 M308.715 179.883 C 308.717 181.172,308.790 181.652,308.877 180.950 C 308.964 180.248,308.962 179.193,308.873 178.606 C 308.784 178.019,308.713 178.594,308.715 179.883 M27.637 226.463 C 29.624 226.534,32.876 226.534,34.863 226.463 C 36.851 226.392,35.225 226.334,31.250 226.334 C 27.275 226.334,25.649 226.392,27.637 226.463 M62.793 226.463 C 64.995 226.533,68.599 226.533,70.801 226.463 C 73.003 226.394,71.201 226.337,66.797 226.337 C 62.393 226.337,60.591 226.394,62.793 226.463 M51.691 234.180 C 51.692 235.684,51.763 236.251,51.848 235.441 C 51.932 234.630,51.931 233.400,51.844 232.706 C 51.758 232.013,51.689 232.676,51.691 234.180 M74.765 237.891 C 74.765 241.006,74.825 242.280,74.899 240.723 C 74.974 239.165,74.974 236.616,74.899 235.059 C 74.825 233.501,74.765 234.775,74.765 237.891 M39.224 239.648 C 39.224 243.516,39.283 245.045,39.354 243.047 C 39.425 241.048,39.425 237.884,39.353 236.015 C 39.282 234.146,39.223 235.781,39.224 239.648 M16.173 239.063 C 16.173 242.393,16.233 243.755,16.306 242.090 C 16.379 240.425,16.379 237.700,16.306 236.035 C 16.233 234.370,16.173 235.732,16.173 239.063 M51.701 243.945 C 51.700 245.879,51.766 246.719,51.848 245.813 C 51.930 244.906,51.931 243.324,51.850 242.297 C 51.769 241.270,51.702 242.012,51.701 243.945 M21.515 245.973 C 21.498 246.873,21.623 247.696,21.793 247.801 C 21.963 247.906,22.038 247.345,21.960 246.555 C 21.747 244.393,21.550 244.135,21.515 245.973 M395.870 252.930 C 395.870 257.656,395.926 259.536,395.995 257.107 C 396.064 254.678,396.063 250.811,395.994 248.514 C 395.925 246.216,395.869 248.203,395.870 252.930 M75.977 252.553 C 75.332 252.848,75.079 253.098,75.414 253.107 C 75.749 253.117,76.364 252.867,76.781 252.551 C 77.707 251.851,77.509 251.852,75.977 252.553 M27.031 260.837 C 28.900 260.909,32.064 260.909,34.062 260.838 C 36.060 260.767,34.531 260.709,30.664 260.708 C 26.797 260.708,25.162 260.766,27.031 260.837 M395.865 268.555 C 395.865 272.422,395.923 273.951,395.994 271.953 C 396.065 269.955,396.065 266.791,395.994 264.922 C 395.922 263.053,395.864 264.688,395.865 268.555 M16.173 273.438 C 16.173 276.768,16.233 278.130,16.306 276.465 C 16.379 274.800,16.379 272.075,16.306 270.410 C 16.233 268.745,16.173 270.107,16.173 273.438 M39.225 274.609 C 39.225 278.584,39.283 280.210,39.354 278.223 C 39.424 276.235,39.424 272.983,39.354 270.996 C 39.283 269.009,39.225 270.635,39.225 274.609 M395.844 279.297 C 395.844 281.338,395.910 282.173,395.990 281.152 C 396.071 280.132,396.071 278.462,395.990 277.441 C 395.910 276.421,395.844 277.256,395.844 279.297 M26.291 287.792 C 28.612 287.861,32.303 287.861,34.494 287.791 C 36.684 287.722,34.785 287.665,30.273 287.665 C 25.762 287.666,23.970 287.723,26.291 287.792 M100.123 295.605 C 104.166 295.669,110.669 295.668,114.576 295.605 C 118.483 295.541,115.176 295.489,107.227 295.489 C 99.277 295.489,96.081 295.541,100.123 295.605 M122.956 295.596 C 123.658 295.683,124.713 295.681,125.300 295.592 C 125.887 295.502,125.313 295.431,124.023 295.434 C 122.734 295.436,122.254 295.509,122.956 295.596 M128.613 295.600 C 129.634 295.680,131.304 295.680,132.324 295.600 C 133.345 295.519,132.510 295.453,130.469 295.453 C 128.428 295.453,127.593 295.519,128.613 295.600 M177.863 295.605 C 201.889 295.661,241.089 295.661,264.973 295.605 C 288.857 295.550,269.199 295.504,221.289 295.504 C 173.379 295.504,153.837 295.550,177.863 295.605 M395.802 299.023 C 395.806 299.883,395.886 300.188,395.979 299.702 C 396.073 299.217,396.069 298.513,395.972 298.140 C 395.874 297.767,395.797 298.164,395.802 299.023 M92.746 310.352 C 92.746 315.293,92.802 317.261,92.870 314.724 C 92.938 312.188,92.938 308.145,92.870 305.740 C 92.801 303.335,92.745 305.410,92.746 310.352 M99.744 308.025 C 99.617 308.356,99.622 308.737,99.756 308.871 C 99.890 309.005,100.000 308.823,100.000 308.467 C 100.000 307.873,101.733 307.811,120.801 307.715 L 141.602 307.610 120.789 307.516 C 102.333 307.433,99.949 307.490,99.744 308.025 M161.986 307.714 C 166.107 307.777,172.963 307.778,177.220 307.714 C 181.478 307.651,178.105 307.600,169.727 307.599 C 161.348 307.599,157.864 307.651,161.986 307.714 M205.592 307.714 C 209.634 307.778,216.138 307.778,220.045 307.714 C 223.952 307.651,220.645 307.599,212.695 307.599 C 204.746 307.599,201.550 307.651,205.592 307.714 M227.060 309.766 C 227.060 310.732,227.136 311.128,227.229 310.645 C 227.322 310.161,227.322 309.370,227.229 308.887 C 227.136 308.403,227.060 308.799,227.060 309.766 M185.156 311.844 C 185.156 312.431,183.892 312.500,171.387 312.598 L 157.617 312.706 171.399 312.798 C 185.383 312.892,186.721 312.762,185.400 311.441 C 185.266 311.308,185.156 311.489,185.156 311.844 M112.793 312.793 C 118.218 312.854,127.095 312.854,132.520 312.793 C 137.944 312.731,133.506 312.681,122.656 312.681 C 111.807 312.681,107.368 312.731,112.793 312.793 M206.178 312.793 C 210.113 312.856,216.441 312.856,220.240 312.792 C 224.040 312.728,220.820 312.676,213.086 312.676 C 205.352 312.676,202.243 312.729,206.178 312.793 M395.820 315.234 C 395.820 316.416,395.893 316.899,395.983 316.309 C 396.072 315.718,396.072 314.751,395.983 314.160 C 395.893 313.569,395.820 314.053,395.820 315.234 M92.911 320.411 C 93.072 320.572,141.623 320.660,200.801 320.606 L 308.398 320.508 200.508 320.312 C 141.168 320.205,92.749 320.249,92.911 320.411 M34.248 320.605 C 43.953 320.663,59.949 320.664,69.795 320.605 C 79.640 320.547,71.699 320.500,52.148 320.500 C 32.598 320.500,24.542 320.547,34.248 320.605 M332.715 320.605 C 342.437 320.664,358.345 320.664,368.066 320.605 C 377.788 320.547,369.834 320.500,350.391 320.500 C 330.947 320.500,322.993 320.547,332.715 320.605 M255.566 326.051 C 255.942 326.149,256.558 326.149,256.934 326.051 C 257.310 325.952,257.002 325.872,256.250 325.872 C 255.498 325.872,255.190 325.952,255.566 326.051 " stroke="none" fill="#c0c5d4" fill-rule="evenodd"></path><path id="path4" d="M18.072 73.718 C 18.666 73.808,19.544 73.805,20.025 73.712 C 20.505 73.620,20.020 73.546,18.945 73.549 C 17.871 73.552,17.478 73.628,18.072 73.718 M50.488 73.727 C 51.938 73.802,54.312 73.802,55.762 73.727 C 57.212 73.652,56.025 73.591,53.125 73.591 C 50.225 73.591,49.038 73.652,50.488 73.727 M78.027 73.730 C 83.882 73.791,93.462 73.791,99.316 73.730 C 105.171 73.669,100.381 73.620,88.672 73.620 C 76.963 73.620,72.173 73.669,78.027 73.730 M110.844 73.714 C 111.330 73.807,112.033 73.804,112.407 73.706 C 112.780 73.608,112.383 73.532,111.523 73.536 C 110.664 73.540,110.358 73.620,110.844 73.714 M113.965 73.713 C 114.448 73.806,115.239 73.806,115.723 73.713 C 116.206 73.620,115.811 73.544,114.844 73.544 C 113.877 73.544,113.481 73.620,113.965 73.713 M127.637 73.730 C 131.987 73.793,139.106 73.793,143.457 73.730 C 147.808 73.667,144.248 73.616,135.547 73.616 C 126.846 73.616,123.286 73.667,127.637 73.730 M157.715 73.729 C 160.562 73.796,165.220 73.796,168.066 73.729 C 170.913 73.663,168.584 73.608,162.891 73.608 C 157.197 73.608,154.868 73.663,157.715 73.729 M194.629 73.730 C 205.962 73.788,224.507 73.788,235.840 73.730 C 247.173 73.673,237.900 73.626,215.234 73.626 C 192.568 73.626,183.296 73.673,194.629 73.730 M261.035 73.707 C 261.411 73.805,262.026 73.805,262.402 73.707 C 262.778 73.609,262.471 73.528,261.719 73.528 C 260.967 73.528,260.659 73.609,261.035 73.707 M272.175 73.721 C 272.877 73.808,273.932 73.806,274.519 73.717 C 275.106 73.627,274.531 73.556,273.242 73.559 C 271.953 73.561,271.473 73.634,272.175 73.721 M283.496 73.730 C 287.847 73.793,294.966 73.793,299.316 73.730 C 303.667 73.667,300.107 73.616,291.406 73.616 C 282.705 73.616,279.146 73.667,283.496 73.730 M339.160 73.717 C 339.751 73.807,340.718 73.807,341.309 73.717 C 341.899 73.628,341.416 73.555,340.234 73.555 C 339.053 73.555,338.569 73.628,339.160 73.717 M345.422 73.725 C 346.449 73.806,348.031 73.805,348.938 73.723 C 349.844 73.641,349.004 73.575,347.070 73.576 C 345.137 73.577,344.395 73.644,345.422 73.725 M353.027 73.725 C 354.155 73.804,356.001 73.804,357.129 73.725 C 358.257 73.647,357.334 73.582,355.078 73.582 C 352.822 73.582,351.899 73.647,353.027 73.725 M379.018 73.727 C 380.261 73.804,382.195 73.804,383.315 73.725 C 384.435 73.646,383.418 73.583,381.055 73.584 C 378.691 73.585,377.775 73.649,379.018 73.727 M15.728 79.577 C 16.322 79.667,17.201 79.665,17.681 79.572 C 18.162 79.479,17.676 79.406,16.602 79.409 C 15.527 79.412,15.134 79.487,15.728 79.577 M111.035 79.590 C 161.470 79.644,243.999 79.644,294.434 79.590 C 344.868 79.535,303.604 79.491,202.734 79.491 C 101.865 79.491,60.601 79.535,111.035 79.590 M396.286 200.195 C 396.286 264.219,396.332 290.468,396.387 258.528 C 396.442 226.587,396.442 174.204,396.387 142.121 C 396.332 110.039,396.286 136.172,396.286 200.195 M27.858 85.839 C 32.331 85.902,39.538 85.902,43.874 85.839 C 48.210 85.776,44.551 85.725,35.742 85.725 C 26.934 85.725,23.386 85.777,27.858 85.839 M55.766 85.823 C 56.252 85.917,56.955 85.913,57.329 85.815 C 57.702 85.717,57.305 85.641,56.445 85.645 C 55.586 85.650,55.280 85.730,55.766 85.823 M74.316 85.838 C 76.411 85.908,79.839 85.908,81.934 85.838 C 84.028 85.768,82.314 85.710,78.125 85.710 C 73.936 85.710,72.222 85.768,74.316 85.838 M190.163 85.840 C 194.958 85.902,202.693 85.902,207.351 85.839 C 212.009 85.777,208.086 85.726,198.633 85.726 C 189.180 85.726,185.368 85.777,190.163 85.840 M217.676 85.827 C 218.267 85.916,219.233 85.916,219.824 85.827 C 220.415 85.737,219.932 85.664,218.750 85.664 C 217.568 85.664,217.085 85.737,217.676 85.827 M354.809 85.839 C 357.775 85.905,362.522 85.905,365.355 85.839 C 368.189 85.772,365.762 85.718,359.961 85.718 C 354.160 85.718,351.842 85.773,354.809 85.839 M377.051 85.831 C 377.856 85.916,379.175 85.916,379.980 85.831 C 380.786 85.747,380.127 85.678,378.516 85.678 C 376.904 85.678,376.245 85.747,377.051 85.831 M61.440 88.086 C 61.443 89.160,61.519 89.553,61.608 88.959 C 61.698 88.366,61.696 87.487,61.603 87.006 C 61.510 86.526,61.437 87.012,61.440 88.086 M383.184 89.736 C 383.077 90.643,383.138 91.237,383.320 91.055 C 383.502 90.873,383.590 90.131,383.515 89.405 C 383.382 88.118,383.374 88.127,383.184 89.736 M57.910 91.676 C 58.286 91.774,58.901 91.774,59.277 91.676 C 59.653 91.577,59.346 91.497,58.594 91.497 C 57.842 91.497,57.534 91.577,57.910 91.676 M92.285 91.676 C 92.661 91.774,93.276 91.774,93.652 91.676 C 94.028 91.577,93.721 91.497,92.969 91.497 C 92.217 91.497,91.909 91.577,92.285 91.676 M221.387 91.682 C 221.870 91.775,222.661 91.775,223.145 91.682 C 223.628 91.589,223.232 91.513,222.266 91.513 C 221.299 91.513,220.903 91.589,221.387 91.682 M379.985 91.683 C 380.471 91.776,381.174 91.772,381.548 91.675 C 381.921 91.577,381.523 91.500,380.664 91.505 C 379.805 91.509,379.499 91.589,379.985 91.683 M105.986 101.855 C 113.682 101.915,126.163 101.915,133.720 101.855 C 141.278 101.796,134.980 101.748,119.727 101.748 C 104.473 101.748,98.289 101.796,105.986 101.855 M323.955 101.855 C 332.081 101.914,345.264 101.914,353.252 101.855 C 361.239 101.796,354.590 101.748,338.477 101.748 C 322.363 101.748,315.828 101.796,323.955 101.855 M369.317 107.128 L 369.336 111.914 379.199 111.924 L 389.063 111.935 379.309 111.820 L 369.555 111.705 369.427 107.024 L 369.298 102.342 369.317 107.128 M308.324 104.883 C 308.326 106.172,308.399 106.652,308.486 105.950 C 308.573 105.248,308.571 104.193,308.482 103.606 C 308.393 103.019,308.322 103.594,308.324 104.883 M100.879 107.691 C 101.255 107.789,101.870 107.789,102.246 107.691 C 102.622 107.593,102.314 107.513,101.563 107.513 C 100.811 107.513,100.503 107.593,100.879 107.691 M110.840 107.714 C 115.190 107.777,122.310 107.777,126.660 107.714 C 131.011 107.652,127.451 107.600,118.750 107.600 C 110.049 107.600,106.489 107.652,110.840 107.714 M331.738 107.714 C 336.196 107.777,343.491 107.777,347.949 107.714 C 352.407 107.652,348.760 107.600,339.844 107.600 C 330.928 107.600,327.280 107.652,331.738 107.714 M87.063 110.852 C 86.934 111.628,86.992 111.993,87.208 111.776 C 87.405 111.579,87.501 111.002,87.421 110.494 C 87.298 109.712,87.243 109.767,87.063 110.852 M71.168 112.010 C 73.895 112.078,78.465 112.078,81.325 112.011 C 84.184 111.944,81.953 111.889,76.367 111.889 C 70.781 111.889,68.442 111.943,71.168 112.010 M186.395 112.012 C 207.379 112.068,241.832 112.068,262.957 112.012 C 284.083 111.956,266.914 111.910,224.805 111.910 C 182.695 111.910,165.411 111.956,186.395 112.012 M60.645 117.188 C 60.756 117.600,61.373 117.786,62.726 117.815 L 64.648 117.858 62.897 117.691 C 61.934 117.599,60.998 117.317,60.817 117.063 C 60.589 116.744,60.536 116.782,60.645 117.188 M364.029 117.701 C 364.206 117.878,365.033 117.962,365.866 117.889 L 367.383 117.757 365.546 117.568 C 364.535 117.465,363.853 117.525,364.029 117.701 M68.652 117.869 C 70.854 117.939,74.458 117.939,76.660 117.869 C 78.862 117.800,77.061 117.743,72.656 117.743 C 68.252 117.743,66.450 117.800,68.652 117.869 M81.738 117.858 C 82.329 117.947,83.296 117.947,83.887 117.858 C 84.478 117.768,83.994 117.695,82.813 117.695 C 81.631 117.695,81.147 117.768,81.738 117.858 M144.835 117.865 C 145.753 117.947,147.160 117.946,147.960 117.862 C 148.760 117.778,148.008 117.711,146.289 117.712 C 144.570 117.713,143.916 117.782,144.835 117.865 M150.098 117.847 C 150.474 117.946,151.089 117.946,151.465 117.847 C 151.841 117.749,151.533 117.669,150.781 117.669 C 150.029 117.669,149.722 117.749,150.098 117.847 M154.004 117.858 C 154.595 117.947,155.562 117.947,156.152 117.858 C 156.743 117.768,156.260 117.695,155.078 117.695 C 153.896 117.695,153.413 117.768,154.004 117.858 M158.897 117.865 C 159.816 117.947,161.222 117.946,162.022 117.862 C 162.822 117.778,162.070 117.711,160.352 117.712 C 158.633 117.713,157.978 117.782,158.897 117.865 M166.875 117.869 C 168.744 117.940,171.908 117.940,173.906 117.869 C 175.904 117.798,174.375 117.740,170.508 117.740 C 166.641 117.739,165.006 117.797,166.875 117.869 M180.772 117.865 C 181.691 117.947,183.097 117.946,183.897 117.862 C 184.697 117.778,183.945 117.711,182.227 117.712 C 180.508 117.713,179.853 117.782,180.772 117.865 M188.191 117.861 C 188.893 117.948,189.947 117.946,190.534 117.857 C 191.121 117.768,190.547 117.697,189.258 117.699 C 187.969 117.701,187.488 117.774,188.191 117.861 M200.879 117.870 C 203.188 117.939,206.968 117.939,209.277 117.870 C 211.587 117.801,209.697 117.744,205.078 117.744 C 200.459 117.744,198.569 117.801,200.879 117.870 M217.654 117.869 C 219.952 117.938,223.819 117.939,226.248 117.870 C 228.677 117.801,226.797 117.745,222.070 117.745 C 217.344 117.744,215.356 117.800,217.654 117.869 M231.548 117.854 C 232.033 117.948,232.737 117.944,233.110 117.847 C 233.483 117.749,233.086 117.672,232.227 117.677 C 231.367 117.681,231.062 117.761,231.548 117.854 M236.235 117.854 C 236.721 117.948,237.424 117.944,237.798 117.847 C 238.171 117.749,237.773 117.672,236.914 117.677 C 236.055 117.681,235.749 117.761,236.235 117.854 M239.551 117.858 C 240.142 117.947,241.108 117.947,241.699 117.858 C 242.290 117.768,241.807 117.695,240.625 117.695 C 239.443 117.695,238.960 117.768,239.551 117.858 M256.348 117.847 C 256.724 117.946,257.339 117.946,257.715 117.847 C 258.091 117.749,257.783 117.669,257.031 117.669 C 256.279 117.669,255.972 117.749,256.348 117.847 M272.168 117.854 C 272.651 117.947,273.442 117.947,273.926 117.854 C 274.409 117.761,274.014 117.685,273.047 117.685 C 272.080 117.685,271.685 117.761,272.168 117.854 M299.126 117.854 C 299.612 117.948,300.315 117.944,300.688 117.847 C 301.062 117.749,300.664 117.672,299.805 117.677 C 298.945 117.681,298.640 117.761,299.126 117.854 M369.634 117.858 C 370.228 117.948,371.107 117.946,371.587 117.853 C 372.068 117.760,371.582 117.687,370.508 117.690 C 369.434 117.693,369.041 117.769,369.634 117.858 M375.308 117.868 C 376.659 117.944,378.769 117.944,379.996 117.866 C 381.223 117.789,380.117 117.726,377.539 117.727 C 374.961 117.728,373.957 117.791,375.308 117.868 M87.299 171.680 C 87.299 201.328,87.346 213.515,87.402 198.761 C 87.459 184.007,87.459 159.749,87.402 144.855 C 87.346 129.960,87.299 142.031,87.299 171.680 M308.348 121.875 C 308.348 124.131,308.412 125.054,308.491 123.926 C 308.570 122.798,308.570 120.952,308.491 119.824 C 308.412 118.696,308.348 119.619,308.348 121.875 M321.875 131.793 C 321.875 131.877,322.478 132.016,323.215 132.102 C 323.952 132.188,324.469 132.120,324.364 131.950 C 324.175 131.644,321.875 131.499,321.875 131.793 M334.103 131.932 C 336.425 132.002,340.116 132.001,342.306 131.932 C 344.497 131.862,342.598 131.806,338.086 131.806 C 333.574 131.806,331.782 131.863,334.103 131.932 M354.004 131.920 C 354.595 132.010,355.562 132.010,356.152 131.920 C 356.743 131.831,356.260 131.758,355.078 131.758 C 353.896 131.758,353.413 131.831,354.004 131.920 M361.816 131.930 C 363.267 132.005,365.640 132.005,367.090 131.930 C 368.540 131.855,367.354 131.794,364.453 131.794 C 361.553 131.794,360.366 131.855,361.816 131.930 M318.849 134.961 C 318.853 135.820,318.933 136.126,319.026 135.640 C 319.120 135.154,319.116 134.451,319.018 134.077 C 318.921 133.704,318.844 134.102,318.849 134.961 M329.395 135.352 C 329.400 136.211,329.480 136.517,329.573 136.031 C 329.667 135.545,329.663 134.842,329.565 134.468 C 329.467 134.095,329.391 134.492,329.395 135.352 M342.117 137.793 C 347.342 137.854,355.779 137.854,360.867 137.793 C 365.955 137.731,361.680 137.681,351.367 137.681 C 341.055 137.681,336.892 137.731,342.117 137.793 M331.367 146.875 C 331.367 148.057,331.440 148.540,331.530 147.949 C 331.619 147.358,331.619 146.392,331.530 145.801 C 331.440 145.210,331.367 145.693,331.367 146.875 M377.455 146.680 C 377.458 147.754,377.534 148.147,377.624 147.553 C 377.714 146.959,377.711 146.081,377.619 145.600 C 377.526 145.120,377.453 145.605,377.455 146.680 M366.504 149.900 C 368.384 149.972,371.460 149.972,373.340 149.900 C 375.220 149.829,373.682 149.770,369.922 149.770 C 366.162 149.770,364.624 149.829,366.504 149.900 M325.898 157.422 C 325.898 158.604,325.972 159.087,326.061 158.496 C 326.151 157.905,326.151 156.938,326.061 156.348 C 325.972 155.757,325.898 156.240,325.898 157.422 M331.367 157.813 C 331.367 158.994,331.440 159.478,331.530 158.887 C 331.619 158.296,331.619 157.329,331.530 156.738 C 331.440 156.147,331.367 156.631,331.367 157.813 M93.154 184.961 C 93.154 200.430,93.202 206.701,93.262 198.897 C 93.321 191.093,93.321 178.437,93.262 170.772 C 93.202 163.107,93.154 169.492,93.154 184.961 M358.203 160.547 L 339.258 160.753 358.082 160.845 C 370.311 160.905,376.992 160.801,377.148 160.547 C 377.281 160.332,377.336 160.198,377.269 160.248 C 377.203 160.299,368.623 160.433,358.203 160.547 M377.442 168.555 C 377.447 169.414,377.527 169.720,377.620 169.234 C 377.713 168.748,377.710 168.045,377.612 167.671 C 377.514 167.298,377.438 167.695,377.442 168.555 M325.872 169.141 C 325.872 169.893,325.952 170.200,326.051 169.824 C 326.149 169.448,326.149 168.833,326.051 168.457 C 325.952 168.081,325.872 168.389,325.872 169.141 M328.032 171.761 C 328.518 171.854,329.221 171.851,329.594 171.753 C 329.968 171.655,329.570 171.579,328.711 171.583 C 327.852 171.587,327.546 171.667,328.032 171.761 M93.130 220.117 C 93.131 223.984,93.189 225.514,93.260 223.515 C 93.331 221.517,93.331 218.353,93.259 216.484 C 93.188 214.615,93.130 216.250,93.130 220.117 M87.241 228.516 C 87.241 230.127,87.310 230.786,87.394 229.980 C 87.478 229.175,87.478 227.856,87.394 227.051 C 87.310 226.245,87.241 226.904,87.241 228.516 M80.177 232.617 C 80.181 233.477,80.261 233.782,80.354 233.296 C 80.448 232.810,80.444 232.107,80.347 231.734 C 80.249 231.360,80.172 231.758,80.177 232.617 M26.270 231.932 C 28.364 232.002,31.792 232.002,33.887 231.932 C 35.981 231.862,34.268 231.804,30.078 231.804 C 25.889 231.804,24.175 231.862,26.270 231.932 M62.227 231.932 C 64.333 232.002,67.673 232.002,69.649 231.931 C 71.625 231.861,69.902 231.803,65.820 231.803 C 61.738 231.804,60.121 231.862,62.227 231.932 M57.194 239.648 C 57.194 243.730,57.252 245.347,57.323 243.241 C 57.393 241.136,57.393 237.796,57.322 235.820 C 57.251 233.843,57.194 235.566,57.194 239.648 M93.086 234.375 C 93.086 235.557,93.159 236.040,93.249 235.449 C 93.338 234.858,93.338 233.892,93.249 233.301 C 93.159 232.710,93.086 233.193,93.086 234.375 M87.295 273.242 C 87.295 288.926,87.343 295.285,87.402 287.374 C 87.461 279.462,87.461 266.630,87.402 258.858 C 87.343 251.086,87.295 257.559,87.295 273.242 M80.177 246.680 C 80.181 247.539,80.261 247.845,80.354 247.359 C 80.448 246.873,80.444 246.170,80.347 245.796 C 80.249 245.423,80.172 245.820,80.177 246.680 M29.395 247.943 C 30.415 248.024,32.085 248.024,33.105 247.943 C 34.126 247.863,33.291 247.797,31.250 247.797 C 29.209 247.797,28.374 247.863,29.395 247.943 M67.676 247.936 C 68.267 248.026,69.233 248.026,69.824 247.936 C 70.415 247.847,69.932 247.773,68.750 247.773 C 67.568 247.773,67.085 247.847,67.676 247.936 M52.344 250.513 C 52.344 250.580,52.915 251.151,53.613 251.782 L 54.883 252.930 53.736 251.660 C 52.666 250.477,52.344 250.211,52.344 250.513 M37.598 253.394 C 37.974 253.493,38.589 253.493,38.965 253.394 C 39.341 253.296,39.033 253.216,38.281 253.216 C 37.529 253.216,37.222 253.296,37.598 253.394 M93.130 261.133 C 93.131 265.000,93.189 266.529,93.260 264.531 C 93.331 262.533,93.331 259.369,93.259 257.500 C 93.188 255.631,93.130 257.266,93.130 261.133 M93.135 276.563 C 93.135 281.182,93.191 283.071,93.260 280.762 C 93.329 278.452,93.329 274.673,93.260 272.363 C 93.191 270.054,93.135 271.943,93.135 276.563 M21.605 271.680 C 21.608 272.969,21.681 273.449,21.767 272.747 C 21.854 272.045,21.853 270.990,21.763 270.403 C 21.674 269.816,21.603 270.391,21.605 271.680 M23.535 282.301 C 23.911 282.399,24.526 282.399,24.902 282.301 C 25.278 282.202,24.971 282.122,24.219 282.122 C 23.467 282.122,23.159 282.202,23.535 282.301 M28.630 282.321 C 30.089 282.397,32.374 282.396,33.708 282.320 C 35.041 282.244,33.848 282.182,31.055 282.183 C 28.262 282.184,27.170 282.246,28.630 282.321 M32.910 288.160 C 33.286 288.258,33.901 288.258,34.277 288.160 C 34.653 288.062,34.346 287.981,33.594 287.981 C 32.842 287.981,32.534 288.062,32.910 288.160 M308.320 292.578 C 308.320 293.760,308.393 294.243,308.483 293.652 C 308.572 293.062,308.572 292.095,308.483 291.504 C 308.393 290.913,308.320 291.396,308.320 292.578 M308.302 303.320 C 308.306 304.180,308.386 304.485,308.479 303.999 C 308.573 303.513,308.569 302.810,308.472 302.437 C 308.374 302.063,308.297 302.461,308.302 303.320 M87.269 311.523 C 87.269 315.176,87.327 316.722,87.400 314.961 C 87.472 313.199,87.472 310.210,87.401 308.320 C 87.329 306.430,87.270 307.871,87.269 311.523 M101.660 307.316 C 102.466 307.400,103.784 307.400,104.590 307.316 C 105.396 307.232,104.736 307.163,103.125 307.163 C 101.514 307.163,100.854 307.232,101.660 307.316 M106.938 307.308 C 107.424 307.401,108.127 307.397,108.501 307.300 C 108.874 307.202,108.477 307.125,107.617 307.130 C 106.758 307.134,106.452 307.214,106.938 307.308 M109.863 307.301 C 110.239 307.399,110.854 307.399,111.230 307.301 C 111.606 307.202,111.299 307.122,110.547 307.122 C 109.795 307.122,109.487 307.202,109.863 307.301 M113.379 307.301 C 113.755 307.399,114.370 307.399,114.746 307.301 C 115.122 307.202,114.814 307.122,114.063 307.122 C 113.311 307.122,113.003 307.202,113.379 307.301 M122.168 307.324 C 125.874 307.388,131.938 307.388,135.645 307.324 C 139.351 307.259,136.318 307.207,128.906 307.207 C 121.494 307.207,118.462 307.259,122.168 307.324 M154.552 307.324 C 154.452 307.485,155.364 307.568,156.579 307.507 C 160.394 307.316,160.855 307.151,157.738 307.090 C 156.086 307.058,154.652 307.163,154.552 307.324 M166.895 307.323 C 170.278 307.389,175.815 307.389,179.199 307.323 C 182.583 307.258,179.814 307.205,173.047 307.205 C 166.279 307.205,163.511 307.258,166.895 307.323 M196.172 307.500 C 195.914 307.758,195.715 308.241,195.731 308.574 C 195.750 308.992,195.852 308.938,196.062 308.398 C 196.336 307.693,196.834 307.597,201.210 307.403 L 206.055 307.190 201.348 307.110 C 198.112 307.056,196.494 307.178,196.172 307.500 M206.938 307.308 C 207.424 307.401,208.127 307.397,208.501 307.300 C 208.874 307.202,208.477 307.125,207.617 307.130 C 206.758 307.134,206.452 307.214,206.938 307.308 M211.636 307.321 C 212.988 307.397,215.097 307.397,216.324 307.319 C 217.551 307.242,216.445 307.180,213.867 307.180 C 211.289 307.181,210.285 307.244,211.636 307.321 M219.922 307.284 C 223.156 307.571,227.257 307.594,227.089 307.324 C 226.989 307.163,225.028 307.061,222.731 307.097 C 220.434 307.133,219.170 307.217,219.922 307.284 M99.330 309.961 C 99.333 311.035,99.409 311.428,99.499 310.834 C 99.589 310.241,99.586 309.362,99.494 308.881 C 99.401 308.401,99.328 308.887,99.330 309.961 M142.690 309.961 C 142.693 311.035,142.769 311.428,142.858 310.834 C 142.948 310.241,142.946 309.362,142.853 308.881 C 142.760 308.401,142.687 308.887,142.690 309.961 M226.953 312.435 C 226.953 312.733,225.975 312.917,224.121 312.967 L 221.289 313.044 223.985 313.182 C 226.481 313.309,227.879 312.905,227.220 312.246 C 227.073 312.099,226.953 312.184,226.953 312.435 M140.430 312.891 L 138.477 313.159 140.309 313.220 C 141.317 313.254,142.250 313.105,142.383 312.891 C 142.516 312.676,142.570 312.528,142.504 312.561 C 142.437 312.595,141.504 312.743,140.430 312.891 M101.465 313.173 C 102.163 313.260,103.306 313.260,104.004 313.173 C 104.702 313.087,104.131 313.016,102.734 313.016 C 101.338 313.016,100.767 313.087,101.465 313.173 M155.962 313.171 C 156.556 313.261,157.435 313.258,157.916 313.166 C 158.396 313.073,157.910 312.999,156.836 313.002 C 155.762 313.005,155.369 313.081,155.962 313.171 M183.110 313.167 C 183.596 313.260,184.299 313.257,184.673 313.159 C 185.046 313.061,184.648 312.985,183.789 312.989 C 182.930 312.993,182.624 313.073,183.110 313.167 M197.759 313.171 C 198.353 313.261,199.232 313.258,199.712 313.166 C 200.193 313.073,199.707 312.999,198.633 313.002 C 197.559 313.005,197.166 313.081,197.759 313.171 M202.051 313.160 C 202.427 313.258,203.042 313.258,203.418 313.160 C 203.794 313.062,203.486 312.981,202.734 312.981 C 201.982 312.981,201.675 313.062,202.051 313.160 " stroke="none" fill="#7c7c84" fill-rule="evenodd"></path></g></svg>