<?xml version="1.0" encoding="UTF-8"?>
<!DOCTYPE svg PUBLIC "-//W3C//DTD SVG 1.1//EN" "http://www.w3.org/Graphics/SVG/1.1/DTD/svg11.dtd">
<svg xmlns="http://www.w3.org/2000/svg" version="1.1" width="240px" height="202px" style="shape-rendering:geometricPrecision; text-rendering:geometricPrecision; image-rendering:optimizeQuality; fill-rule:evenodd; clip-rule:evenodd" xmlns:xlink="http://www.w3.org/1999/xlink">
<g><path style="opacity:1" fill="#fefefe" d="M 110.5,-0.5 C 112.167,-0.5 113.833,-0.5 115.5,-0.5C 120.316,0.612121 124.983,2.44545 129.5,5C 164.833,24.3333 200.167,43.6667 235.5,63C 237.07,64.3968 238.404,65.8968 239.5,67.5C 239.5,95.5 239.5,123.5 239.5,151.5C 231.998,160.786 224.498,160.786 217,151.5C 216.667,127.5 216.333,103.5 216,79.5C 187.247,95.4603 158.414,111.294 129.5,127C 122.03,131.872 114.03,133.205 105.5,131C 72.1667,113 38.8333,95 5.5,77C 2.97739,75.6403 0.977392,73.807 -0.5,71.5C -0.5,67.8333 -0.5,64.1667 -0.5,60.5C 3.69549,56.0504 8.69549,52.5504 14.5,50C 40.3267,36.2541 65.9934,22.2541 91.5,8C 97.7119,4.55399 104.045,1.72065 110.5,-0.5 Z"/></g>
<g><path style="opacity:1" fill="#fdfdfd" d="M 115.5,201.5 C 114.167,201.5 112.833,201.5 111.5,201.5C 105.287,199.905 99.2868,197.405 93.5,194C 76.6604,184.413 59.6604,175.079 42.5,166C 37.2953,162.469 34.1286,157.636 33,151.5C 32.1674,138.82 32.334,126.154 33.5,113.5C 56.3274,125.746 78.994,138.246 101.5,151C 111.666,155.775 121.333,154.775 130.5,148C 151.373,136.299 172.373,124.799 193.5,113.5C 194.666,124.819 194.832,136.152 194,147.5C 193.487,156.001 189.654,162.501 182.5,167C 164.007,176.746 145.673,186.746 127.5,197C 123.568,199.028 119.568,200.528 115.5,201.5 Z"/></g>
</svg>
