<?xml version="1.0" encoding="UTF-8"?>
<!DOCTYPE svg PUBLIC "-//W3C//DTD SVG 1.1//EN" "http://www.w3.org/Graphics/SVG/1.1/DTD/svg11.dtd">
<svg xmlns="http://www.w3.org/2000/svg" version="1.1" width="1024px" height="1024px" style="shape-rendering:geometricPrecision; text-rendering:geometricPrecision; image-rendering:optimizeQuality; fill-rule:evenodd; clip-rule:evenodd" xmlns:xlink="http://www.w3.org/1999/xlink">
<g><path style="opacity:1" fill="#fefffe" d="M 86.5,82.5 C 369.834,82.3333 653.167,82.5 936.5,83C 961.58,88.414 977.08,103.581 983,128.5C 983.667,383.833 983.667,639.167 983,894.5C 976.961,919.872 961.128,935.038 935.5,940C 652.833,940.667 370.167,940.667 87.5,940C 61.8721,935.038 46.0387,919.872 40,894.5C 39.3333,639.167 39.3333,383.833 40,128.5C 46.099,103.567 61.599,88.2339 86.5,82.5 Z M 675.5,157.5 C 712.804,150.972 727.637,166.305 720,203.5C 718.942,210.898 715.109,216.398 708.5,220C 668.813,230.64 652.313,215.806 659,175.5C 660.914,166.09 666.414,160.09 675.5,157.5 Z M 772.5,157.5 C 782.172,157.334 791.839,157.5 801.5,158C 809.575,159.778 814.742,164.611 817,172.5C 817.667,183.833 817.667,195.167 817,206.5C 814.833,214 810,218.833 802.5,221C 792.167,221.667 781.833,221.667 771.5,221C 764,218.833 759.167,214 757,206.5C 756.333,195.5 756.333,184.5 757,173.5C 759.685,165.65 764.852,160.316 772.5,157.5 Z M 870.5,157.5 C 879.839,157.334 889.173,157.5 898.5,158C 907.333,160.167 912.833,165.667 915,174.5C 915.667,184.833 915.667,195.167 915,205.5C 913.222,213.575 908.389,218.742 900.5,221C 889.833,221.667 879.167,221.667 868.5,221C 863.112,218.945 858.946,215.445 856,210.5C 853.062,197.591 852.729,184.591 855,171.5C 857.869,164.124 863.036,159.457 870.5,157.5 Z M 107.5,285.5 C 376.833,285.5 646.167,285.5 915.5,285.5C 915.5,480.833 915.5,676.167 915.5,871.5C 646.167,871.5 376.833,871.5 107.5,871.5C 107.5,676.167 107.5,480.833 107.5,285.5 Z"/></g>
<g><path style="opacity:1" fill="#fefffe" d="M 554.5,387.5 C 573.855,385.579 586.022,393.912 591,412.5C 591.726,417.239 591.393,421.905 590,426.5C 556.333,530.833 522.667,635.167 489,739.5C 477.84,757.622 462.674,761.789 443.5,752C 433.111,743.167 429.277,732.001 432,718.5C 465.667,614.167 499.333,509.833 533,405.5C 537.404,396.068 544.57,390.068 554.5,387.5 Z"/></g>
<g><path style="opacity:1" fill="#fefffe" d="M 402.5,471.5 C 429.276,473.113 440.109,487.113 435,513.5C 432.247,519.246 428.414,524.079 423.5,528C 391.158,543.171 358.825,558.338 326.5,573.5C 355.278,587.481 384.278,600.981 413.5,614C 431.419,620.663 438.919,633.497 436,652.5C 427.138,673.903 411.972,680.07 390.5,671C 338.196,646.847 286.196,622.18 234.5,597C 223.468,584.822 221.635,571.322 229,556.5C 231.5,552.667 234.667,549.5 238.5,547C 293.148,521.505 347.814,496.339 402.5,471.5 Z"/></g>
<g><path style="opacity:1" fill="#fefffe" d="M 608.5,471.5 C 616.832,470.684 624.832,471.851 632.5,475C 683.167,498.667 733.833,522.333 784.5,546C 796.65,554.766 801.15,566.6 798,581.5C 796.226,587.553 793.059,592.72 788.5,597C 734.985,622.59 681.318,647.923 627.5,673C 603.459,677.824 589.793,668.157 586.5,644C 586.577,635.428 589.577,628.095 595.5,622C 601.178,618.159 607.178,614.826 613.5,612C 641.5,599 669.5,586 697.5,573C 667.286,558.726 636.953,544.726 606.5,531C 590.021,523.207 583.854,510.374 588,492.5C 591.685,482.316 598.519,475.316 608.5,471.5 Z"/></g>
</svg>
