<?xml version="1.0" encoding="UTF-8"?>
<!DOCTYPE svg PUBLIC "-//W3C//DTD SVG 1.1//EN" "http://www.w3.org/Graphics/SVG/1.1/DTD/svg11.dtd">
<svg xmlns="http://www.w3.org/2000/svg" version="1.1" width="512px" height="512px" style="shape-rendering:geometricPrecision; text-rendering:geometricPrecision; image-rendering:optimizeQuality; fill-rule:evenodd; clip-rule:evenodd" xmlns:xlink="http://www.w3.org/1999/xlink">
<g><path style="opacity:0.999" fill="#fefeff" d="M 199.5,31.5 C 247.501,31.3333 295.501,31.5 343.5,32C 355.746,35.9132 363.579,44.0799 367,56.5C 367.975,94.5467 367.642,132.547 366,170.5C 361.652,180.85 354.152,187.683 343.5,191C 330.171,191.5 316.837,191.667 303.5,191.5C 303.5,202.167 303.5,212.833 303.5,223.5C 338.168,223.333 372.835,223.5 407.5,224C 415.068,226.038 421.234,230.205 426,236.5C 438.543,260.252 450.543,284.252 462,308.5C 466.71,329.251 459.21,343.418 439.5,351C 426.25,353.916 415.084,350.416 406,340.5C 396.942,323.385 388.108,306.052 379.5,288.5C 364.848,287.501 350.182,287.167 335.5,287.5C 335.667,300.171 335.5,312.838 335,325.5C 332.892,334.253 328.392,341.42 321.5,347C 331.204,367.576 341.537,387.743 352.5,407.5C 378.673,398.053 405.173,389.72 432,382.5C 451.752,384.752 462.585,395.752 464.5,415.5C 463.985,427.166 458.985,436.332 449.5,443C 414.315,455.395 378.982,467.395 343.5,479C 328.631,482.138 316.798,477.638 308,465.5C 291.829,432.49 275.162,399.823 258,367.5C 203.833,403.667 149.667,439.833 95.5,476C 79.9071,482.671 66.0738,480.171 54,468.5C 43.0261,451.791 44.5261,436.291 58.5,422C 108.303,389.029 157.969,355.863 207.5,322.5C 206.7,315.216 206.2,307.883 206,300.5C 187.935,306.855 169.769,313.022 151.5,319C 133.629,322.149 120.796,315.649 113,299.5C 102,266.5 91,233.5 80,200.5C 76.5995,185.365 81.0995,173.198 93.5,164C 110.568,155.651 125.401,158.484 138,172.5C 147.455,196.865 156.122,221.532 164,246.5C 188.551,237.594 213.384,229.594 238.5,222.5C 238.5,212.167 238.5,201.833 238.5,191.5C 224.108,191.93 209.774,191.43 195.5,190C 185.507,186.007 179.007,178.84 176,168.5C 174.366,132.206 174.032,95.8722 175,59.5C 177.387,44.9549 185.554,35.6216 199.5,31.5 Z M 207.5,95.5 C 217.833,95.5 228.167,95.5 238.5,95.5C 238.5,116.833 238.5,138.167 238.5,159.5C 228.167,159.5 217.833,159.5 207.5,159.5C 207.5,138.167 207.5,116.833 207.5,95.5 Z"/></g>
</svg>
